<?xml version="1.0" encoding="UTF-8" standalone="no"?>
<!-- Created with Inkscape (http://www.inkscape.org/) -->

<svg
   width="172.65784mm"
   height="48.204914mm"
   viewBox="0 0 172.65784 48.204914"
   version="1.1"
   id="svg1"
   xml:space="preserve"
   sodipodi:docname="marciodantas.svg"
   inkscape:version="1.3.2 (091e20e, 2023-11-25, custom)"
   xmlns:inkscape="http://www.inkscape.org/namespaces/inkscape"
   xmlns:sodipodi="http://sodipodi.sourceforge.net/DTD/sodipodi-0.dtd"
   xmlns="http://www.w3.org/2000/svg"
   xmlns:svg="http://www.w3.org/2000/svg"><sodipodi:namedview
     id="namedview1"
     pagecolor="#ffffff"
     bordercolor="#000000"
     borderopacity="0.25"
     inkscape:showpageshadow="2"
     inkscape:pageopacity="0.0"
     inkscape:pagecheckerboard="0"
     inkscape:deskcolor="#d1d1d1"
     inkscape:document-units="mm"
     inkscape:zoom="1.3523085"
     inkscape:cx="406.71193"
     inkscape:cy="159.35713"
     inkscape:window-width="1920"
     inkscape:window-height="1009"
     inkscape:window-x="-8"
     inkscape:window-y="-8"
     inkscape:window-maximized="1"
     inkscape:current-layer="layer1" /><defs
     id="defs1" /><g
     inkscape:label="Camada 1"
     inkscape:groupmode="layer"
     id="layer1"
     transform="translate(-23.040022,-115.85444)"><path
       style="opacity:1;fill:none;stroke:#000000;stroke-width:2.6813;stroke-linecap:round;stroke-linejoin:round;stroke-dasharray:none;stroke-opacity:1"
       d="m 24.380673,134.69482 c 0,0 5.798773,-7.25863 6.262675,2.62118 0.463902,9.87981 -3.479263,25.40524 -3.479263,25.40524 0,0 11.365593,-31.85738 19.715821,-36.49483 8.350232,-4.63747 -2.783408,17.74334 -2.783408,17.74334 0,0 21.280332,-32.23256 18.604927,-16.45543 -3.386008,19.96763 -9.094941,32.38412 -9.094941,32.38412"
       id="path11"
       inkscape:export-filename="path11.svg"
       inkscape:export-xdpi="96"
       inkscape:export-ydpi="96"
       sodipodi:nodetypes="cscccsc" /><path
       style="opacity:1;fill:none;stroke:#000000;stroke-width:2.6813;stroke-linecap:round;stroke-linejoin:round;stroke-dasharray:none;stroke-opacity:1"
       d="m 76.80157,154.55527 c 0,0 0.23195,0.64243 1.275728,-7.32192 1.04378,-7.96435 5.731656,-2.42916 5.731656,-2.42916"
       id="path13"
       sodipodi:nodetypes="csc" /><path
       style="opacity:1;fill:none;stroke:#000000;stroke-width:2.6813;stroke-linecap:round;stroke-linejoin:round;stroke-dasharray:none;stroke-opacity:1"
       d="m 89.790819,152.63979 c 0,0 -2.772295,3.28969 -5.566822,0.90734 -4.586808,-3.91028 3.310312,-9.19986 3.310312,-9.19986"
       id="path14"
       sodipodi:nodetypes="csc" /><path
       style="opacity:1;fill:none;stroke:#000000;stroke-width:2.6813;stroke-linecap:round;stroke-linejoin:round;stroke-dasharray:none;stroke-opacity:1"
       d="m 92.659601,144.52532 c 0,0 -0.781224,9.42506 0.958404,9.52588 1.739637,0.10078 1.369339,-2.20832 1.369339,-2.20832"
       id="path15"
       sodipodi:nodetypes="ccc" /><path
       style="opacity:1;fill:none;stroke:#000000;stroke-width:2.6813;stroke-linecap:round;stroke-linejoin:round;stroke-dasharray:none;stroke-opacity:1"
       d="m 91.986119,140.13663 c 0,-0.0715 0.885309,2.78143 2.065191,0.2553 0.551141,-1.18 -2.065191,-0.2553 -2.065191,-0.2553 z"
       id="path16"
       sodipodi:nodetypes="csc" /><path
       style="opacity:1;fill:none;stroke:#000000;stroke-width:2.6813;stroke-linecap:round;stroke-linejoin:round;stroke-dasharray:none;stroke-opacity:1"
       d="m 98.02096,147.63443 c 0,0 -0.606369,10.05569 4.7285,5.41822 5.33487,-4.63747 -0.74883,-12.41196 -4.982827,-9.17192"
       id="path17"
       sodipodi:nodetypes="csc" /><path
       style="opacity:1;fill:none;stroke:#000000;stroke-width:2.68129;stroke-linecap:round;stroke-linejoin:round;stroke-dasharray:none;stroke-opacity:1"
       d="m 120.24582,151.11272 c 0.9278,-3.42769 -6.82662,-29.09479 5.86356,-25.23807 6.33459,2.42758 25.34355,13.1474 12.57652,28.32668 -13.1821,15.67277 -26.18627,-7.80767 -26.18627,-7.80767"
       id="path18"
       sodipodi:nodetypes="ccsc" /><path
       style="opacity:1;fill:none;stroke:#000000;stroke-width:2.68129;stroke-linecap:round;stroke-linejoin:round;stroke-dasharray:none;stroke-opacity:1"
       d="m 152.10947,142.75251 c 2.26326,-2.77288 -8.14211,-4.32101 -6.82441,3.98964 0.88443,5.57806 3.90289,3.67713 6.89699,-0.59034 4.86341,-6.93178 -3.24377,7.64735 3.88872,3.51396"
       id="path19"
       sodipodi:nodetypes="cssc" /><path
       style="opacity:1;fill:none;stroke:#000000;stroke-width:2.68129;stroke-linecap:round;stroke-linejoin:round;stroke-dasharray:none;stroke-opacity:1"
       d="m 157.69443,140.94532 c 0,0 1.91359,7.30905 1.10176,9.62779 -0.81183,2.31873 4.40707,-16.38236 6.84255,-6.70417 2.43549,9.67819 1.79763,6.9562 1.79763,6.9562"
       id="path20" /><path
       style="opacity:1;fill:none;stroke:#000000;stroke-width:2.68129;stroke-linecap:round;stroke-linejoin:round;stroke-dasharray:none;stroke-opacity:1"
       d="m 169.40795,130.91428 c 0,0 4.17511,15.52543 3.2473,21.32225"
       id="path21" /><path
       style="opacity:1;fill:none;stroke:#000000;stroke-width:2.68129;stroke-linecap:round;stroke-linejoin:round;stroke-dasharray:none;stroke-opacity:1"
       d="m 169.00204,145.58279 c -0.0112,-0.0161 4.56559,-3.50132 7.30645,-0.90734"
       id="path22"
       sodipodi:nodetypes="cc" /><path
       style="opacity:1;fill:none;stroke:#000000;stroke-width:2.68129;stroke-linecap:round;stroke-linejoin:round;stroke-dasharray:none;stroke-opacity:1"
       d="m 180.1448,142.28382 c 0,0 -5.71429,3.03624 -0.009,8.13806 5.16844,4.62185 3.65321,-8.06517 3.65321,-8.06517 0,0 17.76025,9.45794 -0.39563,11.67611"
       id="path23"
       sodipodi:nodetypes="cscc" /><path
       style="fill:none;stroke:#000000;stroke-width:2.68129;stroke-linecap:round;stroke-linejoin:round;stroke-dasharray:none;stroke-opacity:1"
       d="m 70.940869,145.3181 c -3.361766,-2.57039 -10.539415,-2.22526 -9.270073,6.09291 0.910212,5.96475 4.438955,5.21266 7.777428,-1.56822 3.740231,-7.59691 -2.607897,9.06583 4.524593,4.93244"
       id="path19-5"
       sodipodi:nodetypes="cssc" /></g></svg>
