<?xml version="1.0" encoding="UTF-8" standalone="no"?>
<!-- Created with Inkscape (http://www.inkscape.org/) -->

<svg
   width="172.65784mm"
   height="48.204914mm"
   viewBox="0 0 172.65784 48.204914"
   version="1.1"
   id="svg1"
   xml:space="preserve"
   xmlns:inkscape="http://www.inkscape.org/namespaces/inkscape"
   xmlns:sodipodi="http://sodipodi.sourceforge.net/DTD/sodipodi-0.dtd"
   xmlns="http://www.w3.org/2000/svg"
   xmlns:svg="http://www.w3.org/2000/svg"><sodipodi:namedview
     id="namedview1"
     pagecolor="#ffffff"
     bordercolor="#000000"
     borderopacity="0.25"
     inkscape:showpageshadow="2"
     inkscape:pageopacity="0.0"
     inkscape:pagecheckerboard="0"
     inkscape:deskcolor="#d1d1d1"
     inkscape:document-units="mm" /><defs
     id="defs1" /><g
     inkscape:label="Camada 1"
     inkscape:groupmode="layer"
     id="layer1"
     transform="translate(-23.040022,-115.85444)"><path
       style="opacity:1;fill:none;stroke:#000000;stroke-width:2.6813;stroke-linecap:round;stroke-linejoin:round;stroke-dasharray:none;stroke-opacity:1"
       d="m 24.380673,134.69482 c 0,0 5.798773,-7.25863 6.262675,2.62118 0.463902,9.87981 -3.479263,25.40524 -3.479263,25.40524 0,0 11.365593,-31.85738 19.715821,-36.49483 8.350232,-4.63747 -2.783408,17.74334 -2.783408,17.74334 0,0 23.890938,-40.93067 19.01997,-21.57429 -4.870969,19.35637 -9.509984,37.50298 -9.509984,37.50298"
       id="path11"
       inkscape:export-filename="path11.svg"
       inkscape:export-xdpi="96"
       inkscape:export-ydpi="96" /><path
       style="opacity:1;fill:none;stroke:#000000;stroke-width:2.6813;stroke-linecap:round;stroke-linejoin:round;stroke-dasharray:none;stroke-opacity:1"
       d="m 69.959019,151.12758 c 0,0 -4.754994,10.28308 -6.030723,-1.31059 -1.275732,-11.59366 6.146698,-2.11711 6.146698,-2.11711 0,0 1.623653,1.20979 2.087557,-2.62117 0.4639,-3.83096 -3.131336,13.40832 1.159754,8.97249"
       id="path12" /><path
       style="opacity:1;fill:none;stroke:#000000;stroke-width:2.6813;stroke-linecap:round;stroke-linejoin:round;stroke-dasharray:none;stroke-opacity:1"
       d="m 76.80157,154.55527 c 0,0 0.23195,0.50408 1.275728,-7.46027 1.04378,-7.96435 6.146699,-0.90733 6.146699,-0.90733"
       id="path13" /><path
       style="opacity:1;fill:none;stroke:#000000;stroke-width:2.6813;stroke-linecap:round;stroke-linejoin:round;stroke-dasharray:none;stroke-opacity:1"
       d="m 89.790819,152.63979 c 0,0 -2.899391,2.0163 -5.566822,0.90734 -2.667437,-1.10896 2.203531,-9.47656 2.203531,-9.47656"
       id="path14" /><path
       style="opacity:1;fill:none;stroke:#000000;stroke-width:2.6813;stroke-linecap:round;stroke-linejoin:round;stroke-dasharray:none;stroke-opacity:1"
       d="m 91.414472,145.07871 c 0,0 0.463905,8.87167 2.203533,8.97249 1.739637,0.10078 1.507687,-3.73014 1.507687,-3.73014"
       id="path15" /><path
       style="opacity:1;fill:none;stroke:#000000;stroke-width:2.6813;stroke-linecap:round;stroke-linejoin:round;stroke-dasharray:none;stroke-opacity:1"
       d="m 90.602643,139.02985 c 0,0 0.115975,3.42769 2.203538,1.91547 2.087561,-1.51222 -2.203538,-1.91547 -2.203538,-1.91547 z"
       id="path16" /><path
       style="opacity:1;fill:none;stroke:#000000;stroke-width:2.6813;stroke-linecap:round;stroke-linejoin:round;stroke-dasharray:none;stroke-opacity:1"
       d="m 97.329222,146.3893 c 0,0 -1.15976,9.779 4.175108,5.14153 5.33487,-4.63747 -1.855608,-11.99692 -4.291088,-8.06514"
       id="path17" /><path
       style="opacity:1;fill:none;stroke:#000000;stroke-width:2.68129;stroke-linecap:round;stroke-linejoin:round;stroke-dasharray:none;stroke-opacity:1"
       d="m 124.11955,156.36993 c 0.9278,-3.42769 -11.94548,-34.0753 1.15974,-29.94189 13.10524,4.13338 28.76191,10.78715 17.28034,27.2199 -11.48156,16.43276 -29.92165,-5.04072 -29.92165,-5.04072"
       id="path18" /><path
       style="opacity:1;fill:none;stroke:#000000;stroke-width:2.68129;stroke-linecap:round;stroke-linejoin:round;stroke-dasharray:none;stroke-opacity:1"
       d="m 152.01164,142.50794 c 0,0 -8.00232,-4.08299 -6.72658,4.23421 1.27573,8.3172 2.43549,5.24235 7.19047,-1.76426 4.75499,-7.0066 -3.53725,8.82127 3.59524,4.68788"
       id="path19" /><path
       style="opacity:1;fill:none;stroke:#000000;stroke-width:2.68129;stroke-linecap:round;stroke-linejoin:round;stroke-dasharray:none;stroke-opacity:1"
       d="m 157.69443,140.94532 c 0,0 1.91359,7.30905 1.10176,9.62779 -0.81183,2.31873 4.40707,-16.38236 6.84255,-6.70417 2.43549,9.67819 1.79763,6.9562 1.79763,6.9562"
       id="path20" /><path
       style="opacity:1;fill:none;stroke:#000000;stroke-width:2.68129;stroke-linecap:round;stroke-linejoin:round;stroke-dasharray:none;stroke-opacity:1"
       d="m 169.40795,130.91428 c 0,0 4.17511,15.52543 3.2473,21.32225"
       id="path21" /><path
       style="opacity:1;fill:none;stroke:#000000;stroke-width:2.68129;stroke-linecap:round;stroke-linejoin:round;stroke-dasharray:none;stroke-opacity:1"
       d="m 169.00204,145.58279 c 0,0 7.01651,0 7.30645,-0.90734"
       id="path22" /><path
       style="opacity:1;fill:none;stroke:#000000;stroke-width:2.68129;stroke-linecap:round;stroke-linejoin:round;stroke-dasharray:none;stroke-opacity:1"
       d="m 179.72976,143.6673 c 0,0 -5.1609,2.62119 0.40592,6.75458 5.56681,4.13339 3.65321,-8.06517 3.65321,-8.06517 0,0 18.61407,9.32535 6.43664,8.06517"
       id="path23" /></g></svg>
