<svg xmlns="http://www.w3.org/2000/svg" id="canvas" viewBox="289.104 351.726 1338.935 143.860"><path d="M 294.41,449.43 C 295.31 449.33, 295.85 448.73, 296.83 447.82 C 297.80 446.90, 298.29 446.25, 299.29 444.86 C 300.29 443.47, 300.84 442.47, 301.82 440.86 C 302.79 439.25, 303.13 438.40, 304.17 436.82 C 305.21 435.24, 305.76 434.58, 307.02 432.94 C 308.28 431.30, 309.09 430.45, 310.46 428.61 C 311.83 426.77, 312.35 425.92, 313.88 423.75 C 315.41 421.58, 316.34 420.37, 318.10 417.77 C 319.86 415.17, 320.87 413.61, 322.69 410.76 C 324.50 407.90, 325.24 406.40, 327.16 403.48 C 329.07 400.57, 330.22 399.07, 332.26 396.19 C 334.30 393.32, 335.41 391.86, 337.36 389.12 C 339.30 386.38, 340.29 384.93, 341.98 382.51 C 343.67 380.08, 344.54 378.87, 345.81 376.99 C 347.09 375.12, 347.68 374.36, 348.36 373.13 C 349.04 371.91, 349.20 371.28, 349.22 370.88 C 349.25 370.48, 348.94 370.38, 348.48 371.12 C 348.01 371.85, 347.52 372.39, 346.90 374.56 C 346.28 376.73, 346.01 378.46, 345.38 381.98 C 344.76 385.50, 344.65 387.77, 343.78 392.15 C 342.91 396.52, 342.20 398.93, 341.04 403.84 C 339.87 408.74, 339.09 411.41, 337.97 416.66 C 336.86 421.92, 336.34 424.83, 335.46 430.12 C 334.59 435.42, 334.26 438.07, 333.59 443.13 C 332.93 448.20, 332.63 450.76, 332.13 455.45 C 331.63 460.13, 331.37 462.48, 331.08 466.57 C 330.79 470.66, 330.79 472.62, 330.67 475.89 C 330.55 479.17, 330.35 480.64, 330.46 482.94 C 330.58 485.25, 330.73 486.25, 331.25 487.41 C 331.77 488.57, 332.23 488.79, 333.06 488.76 C 333.90 488.72, 334.61 488.51, 335.45 487.26 C 336.29 486.01, 336.79 484.98, 337.27 482.51 C 337.74 480.04, 337.41 478.48, 337.80 474.92 C 338.19 471.35, 338.45 469.08, 339.21 464.70 C 339.96 460.33, 340.41 457.90, 341.57 453.05 C 342.74 448.19, 343.40 445.68, 345.03 440.43 C 346.66 435.19, 347.71 432.27, 349.73 426.82 C 351.75 421.38, 352.86 418.59, 355.14 413.21 C 357.42 407.83, 358.65 405.04, 361.11 399.93 C 363.58 394.81, 364.89 392.21, 367.49 387.65 C 370.08 383.10, 371.44 380.93, 374.07 377.15 C 376.70 373.38, 378.07 371.58, 380.64 368.78 C 383.21 365.97, 384.68 364.85, 386.92 363.14 C 389.17 361.43, 390.18 360.71, 391.88 360.22 C 393.58 359.73, 394.28 359.88, 395.41 360.69 C 396.54 361.49, 396.62 362.12, 397.52 364.25 C 398.43 366.38, 398.99 368.01, 399.95 371.34 C 400.90 374.68, 401.58 376.73, 402.31 380.91 C 403.04 385.09, 403.10 387.48, 403.61 392.24 C 404.13 397.00, 404.32 399.66, 404.88 404.70 C 405.44 409.74, 405.78 412.46, 406.40 417.43 C 407.03 422.41, 407.27 425.03, 408.01 429.60 C 408.75 434.18, 409.24 436.46, 410.10 440.31 C 410.96 444.16, 411.20 445.91, 412.33 448.84 C 413.45 451.77, 414.12 453.15, 415.73 454.96 C 417.34 456.77, 418.42 457.46, 420.38 457.91 C 422.34 458.35, 423.50 458.26, 425.55 457.18 C 427.60 456.09, 428.75 455.11, 430.63 452.48 C 432.52 449.86, 433.05 447.77, 434.95 444.06 C 436.85 440.36, 437.80 438.23, 440.14 433.96 C 442.47 429.70, 443.94 427.32, 446.65 422.73 C 449.36 418.15, 450.86 415.58, 453.68 411.03 C 456.49 406.48, 457.96 404.19, 460.73 399.99 C 463.49 395.79, 465.00 393.60, 467.49 390.05 C 469.99 386.49, 471.26 384.79, 473.18 382.19 C 475.11 379.59, 476.02 378.41, 477.12 377.05 C 478.22 375.69, 478.41 375.23, 478.67 375.40 C 478.93 375.57, 478.53 376.12, 478.43 377.89 C 478.32 379.66, 478.33 380.97, 478.15 384.27 C 477.96 387.57, 477.99 389.91, 477.50 394.38 C 477.01 398.85, 476.54 401.38, 475.69 406.63 C 474.85 411.89, 474.37 414.93, 473.27 420.65 C 472.18 426.37, 471.32 429.56, 470.22 435.22 C 469.11 440.89, 468.52 443.74, 467.74 448.98 C 466.95 454.22, 466.64 456.81, 466.30 461.42 C 465.97 466.02, 465.92 468.14, 466.06 472.00 C 466.20 475.87, 466.15 477.75, 467.00 480.75 C 467.85 483.75, 468.68 484.97, 470.31 487.03 C 471.95 489.08, 472.94 489.91, 475.17 491.02 C 477.40 492.13, 478.70 492.65, 481.47 492.58 C 484.23 492.51, 485.87 491.98, 489.00 490.65 C 492.14 489.33, 493.74 488.21, 497.13 485.95 C 500.52 483.69, 502.34 482.29, 505.95 479.36 C 509.56 476.44, 511.44 474.60, 515.19 471.33 C 518.93 468.05, 520.93 466.32, 524.67 462.97 C 528.41 459.61, 530.40 457.81, 533.91 454.56 C 537.41 451.31, 539.05 449.68, 542.20 446.70 C 545.36 443.73, 546.86 442.28, 549.66 439.68 C 552.47 437.08, 553.98 435.86, 556.21 433.71 C 558.44 431.56, 559.49 430.61, 560.83 428.95 C 562.17 427.28, 562.50 426.53, 562.92 425.39 C 563.34 424.25, 563.40 423.96, 562.92 423.24 C 562.45 422.52, 561.74 421.91, 560.56 421.79 C 559.38 421.68, 558.62 421.91, 557.02 422.67 C 555.43 423.42, 554.48 424.00, 552.59 425.56 C 550.70 427.13, 549.64 428.28, 547.59 430.51 C 545.53 432.74, 544.52 434.00, 542.32 436.72 C 540.12 439.43, 538.83 440.93, 536.58 444.09 C 534.34 447.24, 533.15 449.16, 531.10 452.49 C 529.04 455.82, 527.94 457.52, 526.31 460.73 C 524.67 463.95, 523.84 465.54, 522.93 468.59 C 522.02 471.64, 521.83 473.25, 521.75 475.98 C 521.66 478.72, 521.86 480.05, 522.50 482.26 C 523.14 484.48, 523.63 485.44, 524.96 487.06 C 526.28 488.69, 527.17 489.51, 529.13 490.41 C 531.08 491.31, 532.41 491.61, 534.73 491.55 C 537.04 491.49, 538.37 491.05, 540.70 490.11 C 543.02 489.16, 544.11 488.48, 546.36 486.82 C 548.60 485.16, 549.69 484.14, 551.91 481.82 C 554.13 479.49, 555.33 478.09, 557.46 475.19 C 559.60 472.30, 560.57 470.65, 562.59 467.35 C 564.62 464.05, 565.76 462.22, 567.59 458.70 C 569.42 455.18, 570.34 453.19, 571.74 449.75 C 573.13 446.32, 573.59 444.67, 574.55 441.53 C 575.52 438.38, 576.30 436.48, 576.56 434.02 C 576.83 431.57, 576.45 430.31, 575.88 429.24 C 575.31 428.17, 574.63 428.00, 573.71 428.66 C 572.80 429.33, 571.94 430.34, 571.32 432.57 C 570.69 434.80, 570.54 436.63, 570.58 439.81 C 570.62 442.99, 571.15 445.07, 571.53 448.49 C 571.90 451.91, 572.00 453.67, 572.44 456.91 C 572.89 460.14, 573.08 461.77, 573.77 464.65 C 574.46 467.53, 574.85 468.90, 575.91 471.31 C 576.97 473.72, 577.64 474.99, 579.07 476.70 C 580.50 478.41, 581.39 478.99, 583.05 479.87 C 584.71 480.76, 585.51 481.01, 587.37 481.11 C 589.22 481.22, 590.32 481.22, 592.33 480.40 C 594.35 479.57, 595.52 478.86, 597.46 476.98 C 599.40 475.11, 600.21 473.83, 602.03 471.03 C 603.86 468.23, 604.69 466.44, 606.59 462.97 C 608.50 459.50, 609.61 457.45, 611.58 453.70 C 613.55 449.95, 614.58 447.84, 616.44 444.22 C 618.30 440.60, 619.34 438.63, 620.86 435.58 C 622.39 432.53, 623.22 430.99, 624.07 428.98 C 624.91 426.97, 624.96 426.09, 625.08 425.52 C 625.21 424.95, 624.85 425.08, 624.67 426.12 C 624.50 427.15, 624.06 428.24, 624.19 430.68 C 624.31 433.12, 624.92 434.98, 625.30 438.31 C 625.69 441.65, 625.97 443.81, 626.12 447.36 C 626.27 450.92, 626.04 452.98, 626.05 456.08 C 626.07 459.19, 625.86 460.60, 626.19 462.90 C 626.52 465.20, 626.84 466.44, 627.69 467.58 C 628.54 468.73, 629.33 469.06, 630.44 468.62 C 631.55 468.18, 632.40 467.32, 633.22 465.39 C 634.05 463.46, 634.40 461.91, 634.58 458.96 C 634.76 456.01, 634.18 453.97, 634.11 450.63 C 634.04 447.28, 634.01 445.38, 634.22 442.22 C 634.43 439.05, 634.81 437.49, 635.17 434.79 C 635.54 432.09, 635.58 430.71, 636.04 428.70 C 636.49 426.69, 636.61 425.91, 637.45 424.75 C 638.30 423.59, 638.78 423.31, 640.26 422.90 C 641.75 422.49, 642.60 422.70, 644.89 422.68 C 647.18 422.66, 648.66 422.80, 651.71 422.79 C 654.76 422.78, 656.52 422.71, 660.12 422.64 C 663.72 422.57, 665.64 422.58, 669.72 422.44 C 673.79 422.29, 676.13 422.16, 680.51 421.94 C 684.90 421.72, 687.15 421.63, 691.62 421.34 C 696.10 421.06, 698.67 420.76, 702.89 420.50 C 707.10 420.24, 709.11 420.18, 712.69 420.05 C 716.28 419.92, 717.96 420.07, 720.82 419.84 C 723.69 419.60, 725.14 419.43, 727.02 418.87 C 728.91 418.31, 729.66 417.86, 730.24 417.03 C 730.82 416.20, 730.67 415.43, 729.92 414.73 C 729.18 414.02, 728.26 413.51, 726.51 413.49 C 724.77 413.46, 723.58 413.58, 721.21 414.60 C 718.84 415.63, 717.39 416.69, 714.64 418.60 C 711.90 420.51, 710.36 421.60, 707.49 424.15 C 704.62 426.70, 702.90 428.27, 700.29 431.36 C 697.67 434.46, 696.38 436.19, 694.42 439.62 C 692.46 443.04, 691.61 444.92, 690.51 448.50 C 689.41 452.08, 688.90 454.07, 688.90 457.51 C 688.90 460.95, 689.34 462.70, 690.52 465.70 C 691.70 468.70, 692.73 470.14, 694.81 472.52 C 696.89 474.90, 698.15 475.95, 700.92 477.59 C 703.69 479.23, 705.30 480.03, 708.66 480.72 C 712.02 481.41, 714.07 481.45, 717.73 481.03 C 721.40 480.62, 723.25 479.96, 726.99 478.63 C 730.73 477.31, 732.69 476.52, 736.44 474.42 C 740.20 472.31, 742.20 471.04, 745.78 468.12 C 749.35 465.20, 751.08 463.25, 754.32 459.81 C 757.55 456.37, 759.13 454.54, 761.96 450.92 C 764.79 447.30, 766.09 445.27, 768.47 441.71 C 770.85 438.15, 772.27 435.93, 773.84 433.13 C 775.41 430.33, 775.98 429.00, 776.32 427.71 C 776.66 426.42, 776.08 426.10, 775.55 426.68 C 775.01 427.26, 774.23 428.33, 773.65 430.62 C 773.06 432.91, 772.86 434.76, 772.62 438.12 C 772.37 441.48, 772.27 443.81, 772.42 447.42 C 772.57 451.03, 772.79 452.78, 773.38 456.16 C 773.96 459.53, 774.18 461.29, 775.35 464.30 C 776.51 467.32, 777.22 469.01, 779.21 471.23 C 781.20 473.45, 782.62 474.27, 785.29 475.40 C 787.96 476.53, 789.59 476.83, 792.56 476.90 C 795.53 476.96, 796.98 476.70, 800.16 475.75 C 803.33 474.80, 805.08 474.01, 808.45 472.15 C 811.83 470.29, 813.69 469.07, 817.03 466.46 C 820.37 463.86, 821.91 462.25, 825.17 459.13 C 828.43 456.02, 830.23 454.26, 833.34 450.88 C 836.45 447.51, 837.86 445.52, 840.72 442.26 C 843.57 439.01, 845.05 437.47, 847.61 434.60 C 850.18 431.73, 851.55 430.19, 853.54 427.92 C 855.53 425.64, 856.40 424.78, 857.57 423.22 C 858.74 421.66, 859.24 420.87, 859.39 420.12 C 859.54 419.37, 858.93 419.00, 858.33 419.47 C 857.74 419.93, 857.09 420.81, 856.40 422.46 C 855.71 424.12, 855.39 425.20, 854.88 427.74 C 854.37 430.28, 854.25 431.96, 853.85 435.17 C 853.45 438.39, 853.02 440.36, 852.86 443.82 C 852.71 447.28, 852.62 449.17, 853.07 452.47 C 853.51 455.76, 853.93 457.39, 855.08 460.29 C 856.23 463.18, 856.87 464.62, 858.83 466.93 C 860.78 469.24, 862.14 470.46, 864.85 471.83 C 867.57 473.20, 869.23 473.49, 872.41 473.79 C 875.60 474.08, 877.38 473.88, 880.77 473.29 C 884.17 472.70, 886.08 472.30, 889.40 470.85 C 892.71 469.39, 894.37 468.28, 897.35 466.01 C 900.33 463.73, 901.84 462.35, 904.31 459.47 C 906.77 456.59, 907.98 454.96, 909.68 451.60 C 911.38 448.23, 912.16 446.30, 912.82 442.65 C 913.48 439.01, 913.54 436.99, 912.97 433.37 C 912.40 429.75, 911.81 427.91, 909.98 424.55 C 908.15 421.18, 906.81 419.39, 903.82 416.54 C 900.84 413.68, 898.90 412.39, 895.07 410.29 C 891.23 408.18, 888.99 407.19, 884.66 406.00 C 880.32 404.81, 877.76 404.65, 873.38 404.35 C 869.00 404.04, 866.67 404.11, 862.76 404.50 C 858.86 404.88, 856.94 405.24, 853.84 406.25 C 850.73 407.26, 849.42 407.95, 847.24 409.55 C 845.06 411.15, 844.04 412.20, 842.93 414.23 C 841.83 416.26, 841.49 417.52, 841.70 419.69 C 841.92 421.86, 842.52 423.16, 844.00 425.07 C 845.49 426.97, 846.57 427.92, 849.12 429.23 C 851.66 430.53, 853.38 430.90, 856.73 431.57 C 860.08 432.25, 861.97 432.35, 865.86 432.59 C 869.75 432.83, 871.87 432.82, 876.18 432.77 C 880.48 432.73, 882.86 432.65, 887.39 432.36 C 891.91 432.07, 894.35 431.81, 898.81 431.31 C 903.27 430.82, 905.56 430.53, 909.69 429.89 C 913.81 429.25, 915.80 428.73, 919.42 428.11 C 923.05 427.49, 925.05 427.48, 927.81 426.79 C 930.58 426.09, 931.49 425.46, 933.26 424.64 C 935.04 423.82, 936.10 423.41, 936.69 422.69 C 937.29 421.96, 937.13 421.34, 936.24 421.01 C 935.36 420.68, 934.18 420.84, 932.27 421.04 C 930.36 421.24, 929.42 421.40, 926.68 422.01 C 923.95 422.61, 922.12 423.24, 918.59 424.08 C 915.07 424.93, 913.11 425.52, 909.07 426.25 C 905.04 426.99, 902.79 427.27, 898.41 427.77 C 894.03 428.26, 891.62 428.51, 887.18 428.73 C 882.74 428.95, 880.38 428.98, 876.20 428.88 C 872.02 428.77, 869.93 428.67, 866.28 428.19 C 862.63 427.72, 860.87 427.31, 857.94 426.49 C 855.01 425.67, 853.68 425.04, 851.62 424.10 C 849.56 423.15, 848.79 422.75, 847.63 421.76 C 846.48 420.78, 846.06 420.22, 845.85 419.16 C 845.65 418.09, 845.80 417.60, 846.61 416.44 C 847.42 415.27, 848.17 414.50, 849.91 413.32 C 851.65 412.14, 852.64 411.49, 855.30 410.52 C 857.97 409.55, 859.66 408.96, 863.23 408.47 C 866.80 407.98, 869.06 407.85, 873.15 408.07 C 877.24 408.28, 879.67 408.43, 883.68 409.54 C 887.70 410.64, 889.75 411.62, 893.22 413.60 C 896.69 415.57, 898.43 416.81, 901.05 419.40 C 903.67 421.98, 904.78 423.58, 906.32 426.51 C 907.86 429.43, 908.30 430.94, 908.75 434.02 C 909.20 437.09, 909.16 438.75, 908.58 441.88 C 908.00 445.00, 907.36 446.70, 905.85 449.65 C 904.34 452.61, 903.27 454.09, 901.04 456.65 C 898.81 459.22, 897.39 460.49, 894.70 462.47 C 892.01 464.45, 890.52 465.37, 887.58 466.56 C 884.64 467.75, 882.95 468.00, 880.01 468.41 C 877.07 468.82, 875.46 468.83, 872.88 468.61 C 870.29 468.38, 869.13 468.28, 867.09 467.30 C 865.05 466.32, 864.14 465.49, 862.67 463.71 C 861.21 461.94, 860.72 460.80, 859.79 458.42 C 858.85 456.05, 858.35 454.67, 857.99 451.82 C 857.63 448.97, 857.68 447.30, 857.98 444.17 C 858.28 441.04, 858.77 439.19, 859.48 436.18 C 860.19 433.17, 860.99 431.68, 861.53 429.12 C 862.08 426.55, 862.33 425.36, 862.20 423.35 C 862.08 421.34, 861.74 420.13, 860.90 419.06 C 860.06 417.99, 859.33 417.80, 858.01 418.00 C 856.69 418.21, 855.89 418.73, 854.28 420.11 C 852.67 421.49, 851.90 422.51, 849.96 424.90 C 848.03 427.29, 847.00 429.06, 844.61 432.07 C 842.21 435.07, 840.76 436.63, 837.99 439.91 C 835.21 443.19, 833.80 445.17, 830.74 448.48 C 827.68 451.79, 825.89 453.51, 822.67 456.46 C 819.45 459.42, 817.89 460.93, 814.64 463.27 C 811.38 465.62, 809.57 466.66, 806.40 468.20 C 803.24 469.73, 801.56 470.24, 798.81 470.96 C 796.06 471.68, 794.98 471.82, 792.64 471.80 C 790.31 471.78, 789.10 471.63, 787.14 470.87 C 785.18 470.11, 784.30 469.68, 782.86 468.01 C 781.42 466.34, 780.90 465.07, 779.94 462.54 C 778.98 460.01, 778.55 458.40, 778.06 455.37 C 777.57 452.35, 777.36 450.75, 777.50 447.41 C 777.64 444.08, 778.39 441.97, 778.76 438.69 C 779.12 435.41, 779.62 433.51, 779.35 430.99 C 779.08 428.47, 778.46 427.12, 777.40 426.08 C 776.34 425.04, 775.57 424.87, 774.05 425.80 C 772.52 426.72, 771.53 427.93, 769.78 430.71 C 768.03 433.50, 767.39 436.10, 765.28 439.72 C 763.17 443.34, 761.93 445.27, 759.24 448.82 C 756.54 452.36, 754.96 454.14, 751.82 457.44 C 748.68 460.75, 746.97 462.61, 743.54 465.34 C 740.10 468.06, 738.20 469.20, 734.63 471.08 C 731.06 472.95, 729.14 473.61, 725.68 474.71 C 722.21 475.80, 720.49 476.29, 717.29 476.55 C 714.09 476.81, 712.45 476.66, 709.69 476.01 C 706.94 475.36, 705.74 474.65, 703.51 473.28 C 701.28 471.92, 700.27 471.07, 698.56 469.19 C 696.85 467.31, 695.98 466.21, 694.95 463.87 C 693.93 461.52, 693.49 460.28, 693.41 457.46 C 693.34 454.63, 693.66 452.88, 694.58 449.72 C 695.50 446.57, 696.23 444.79, 698.01 441.67 C 699.80 438.56, 701.00 436.93, 703.50 434.16 C 705.99 431.38, 707.67 429.92, 710.49 427.79 C 713.30 425.65, 714.88 424.83, 717.57 423.47 C 720.27 422.10, 721.88 421.86, 723.96 420.96 C 726.04 420.06, 726.72 419.78, 727.97 418.96 C 729.21 418.14, 729.81 417.71, 730.17 416.88 C 730.52 416.04, 730.53 415.32, 729.75 414.79 C 728.98 414.26, 728.18 414.19, 726.29 414.22 C 724.40 414.25, 723.09 414.60, 720.32 414.95 C 717.54 415.30, 715.95 415.60, 712.41 415.96 C 708.87 416.33, 706.82 416.43, 702.62 416.78 C 698.41 417.13, 695.84 417.44, 691.39 417.73 C 686.94 418.01, 684.71 418.09, 680.37 418.22 C 676.02 418.35, 673.70 418.41, 669.66 418.37 C 665.63 418.33, 663.77 418.22, 660.21 418.02 C 656.65 417.81, 654.98 417.51, 651.85 417.34 C 648.73 417.17, 647.23 416.90, 644.58 417.16 C 641.93 417.42, 640.70 417.63, 638.60 418.62 C 636.49 419.60, 635.50 420.34, 634.06 422.08 C 632.62 423.83, 632.23 424.96, 631.41 427.35 C 630.58 429.74, 630.40 431.13, 629.94 434.02 C 629.48 436.92, 629.40 438.54, 629.12 441.83 C 628.84 445.11, 628.82 447.09, 628.52 450.44 C 628.23 453.79, 627.81 455.73, 627.65 458.56 C 627.49 461.38, 627.47 462.73, 627.74 464.58 C 628.01 466.43, 628.41 467.34, 629.00 467.83 C 629.60 468.31, 630.28 468.06, 630.72 467.02 C 631.17 465.98, 631.13 464.82, 631.22 462.63 C 631.31 460.44, 631.17 459.14, 631.16 456.06 C 631.15 452.99, 631.19 450.89, 631.18 447.25 C 631.16 443.60, 631.27 441.35, 631.09 437.84 C 630.92 434.33, 631.02 432.31, 630.32 429.68 C 629.62 427.05, 628.87 425.92, 627.59 424.69 C 626.31 423.46, 625.42 423.14, 623.91 423.54 C 622.39 423.94, 621.43 424.68, 620.01 426.70 C 618.59 428.72, 618.24 430.50, 616.81 433.64 C 615.37 436.79, 614.60 438.80, 612.84 442.42 C 611.08 446.05, 610.02 448.12, 608.00 451.77 C 605.98 455.42, 604.80 457.45, 602.74 460.68 C 600.67 463.92, 599.55 465.52, 597.68 467.96 C 595.81 470.40, 594.91 471.30, 593.38 472.87 C 591.85 474.44, 591.22 475.02, 590.03 475.81 C 588.83 476.60, 588.38 476.75, 587.41 476.83 C 586.43 476.91, 586.08 476.81, 585.17 476.21 C 584.27 475.60, 583.80 475.18, 582.90 473.81 C 581.99 472.43, 581.44 471.41, 580.63 469.34 C 579.81 467.26, 579.47 466.04, 578.82 463.42 C 578.18 460.81, 577.79 459.29, 577.40 456.24 C 577.01 453.20, 576.89 451.44, 576.87 448.18 C 576.85 444.91, 577.18 442.92, 577.30 439.90 C 577.42 436.87, 577.75 435.28, 577.47 433.05 C 577.19 430.83, 576.74 429.63, 575.90 428.77 C 575.06 427.91, 574.21 427.92, 573.28 428.76 C 572.36 429.60, 571.94 430.69, 571.28 432.99 C 570.61 435.30, 570.67 437.25, 569.97 440.29 C 569.26 443.34, 568.98 444.92, 567.76 448.21 C 566.55 451.51, 565.64 453.40, 563.87 456.77 C 562.11 460.13, 560.97 461.94, 558.94 465.04 C 556.92 468.14, 555.90 469.69, 553.74 472.28 C 551.59 474.88, 550.31 476.04, 548.16 478.03 C 546.02 480.03, 544.95 480.87, 543.02 482.26 C 541.09 483.66, 540.24 484.21, 538.51 485.00 C 536.78 485.79, 535.89 486.02, 534.38 486.21 C 532.86 486.40, 532.14 486.35, 530.94 485.96 C 529.74 485.57, 529.18 485.23, 528.38 484.26 C 527.58 483.30, 527.29 482.74, 526.94 481.12 C 526.60 479.51, 526.55 478.43, 526.66 476.18 C 526.78 473.93, 526.80 472.59, 527.52 469.89 C 528.23 467.19, 528.80 465.70, 530.24 462.67 C 531.68 459.64, 532.76 457.94, 534.74 454.75 C 536.72 451.56, 537.89 449.66, 540.15 446.71 C 542.40 443.75, 543.69 442.36, 546.00 439.97 C 548.32 437.58, 549.58 436.61, 551.72 434.77 C 553.87 432.92, 554.95 432.10, 556.73 430.74 C 558.51 429.38, 559.48 429.06, 560.61 427.97 C 561.75 426.87, 562.07 426.19, 562.41 425.27 C 562.74 424.36, 562.68 423.79, 562.27 423.38 C 561.87 422.97, 561.36 422.74, 560.39 423.23 C 559.42 423.72, 558.92 424.39, 557.43 425.84 C 555.93 427.28, 555.01 428.22, 552.91 430.45 C 550.82 432.67, 549.58 434.19, 546.96 436.95 C 544.34 439.71, 542.87 441.19, 539.82 444.25 C 536.77 447.30, 535.15 448.93, 531.70 452.20 C 528.24 455.47, 526.28 457.26, 522.54 460.58 C 518.80 463.90, 516.78 465.62, 513.01 468.80 C 509.24 471.97, 507.32 473.75, 503.69 476.45 C 500.06 479.15, 498.19 480.39, 494.87 482.29 C 491.55 484.19, 489.83 484.87, 487.08 485.94 C 484.34 487.01, 483.16 487.41, 481.15 487.64 C 479.14 487.88, 478.52 487.76, 477.03 487.10 C 475.55 486.45, 474.88 485.89, 473.73 484.37 C 472.57 482.84, 472.07 482.00, 471.27 479.48 C 470.48 476.96, 470.12 475.33, 469.76 471.76 C 469.40 468.18, 469.30 466.07, 469.47 461.60 C 469.64 457.12, 469.90 454.55, 470.60 449.38 C 471.30 444.22, 471.86 441.39, 472.96 435.76 C 474.07 430.12, 474.92 426.92, 476.11 421.21 C 477.29 415.50, 477.81 412.46, 478.88 407.21 C 479.95 401.97, 480.57 399.50, 481.46 394.99 C 482.34 390.47, 483.04 388.18, 483.32 384.62 C 483.59 381.06, 483.59 379.44, 482.83 377.18 C 482.07 374.91, 481.17 373.89, 479.52 373.29 C 477.88 372.68, 476.55 372.87, 474.60 374.16 C 472.66 375.45, 471.78 376.93, 469.79 379.73 C 467.80 382.53, 466.97 384.44, 464.64 388.15 C 462.31 391.87, 460.84 394.06, 458.13 398.31 C 455.43 402.57, 453.96 404.89, 451.12 409.45 C 448.29 414.00, 446.77 416.56, 443.96 421.10 C 441.14 425.65, 439.62 428.01, 437.05 432.17 C 434.49 436.32, 433.33 438.45, 431.14 441.88 C 428.96 445.31, 427.74 446.96, 426.13 449.33 C 424.52 451.69, 424.06 452.63, 423.08 453.70 C 422.09 454.77, 422.01 454.93, 421.21 454.66 C 420.41 454.40, 420.01 453.88, 419.07 452.38 C 418.13 450.89, 417.58 449.78, 416.51 447.18 C 415.45 444.58, 414.78 443.02, 413.73 439.39 C 412.69 435.76, 412.14 433.50, 411.31 429.03 C 410.47 424.56, 410.20 421.96, 409.56 417.03 C 408.91 412.10, 408.58 409.39, 408.08 404.37 C 407.58 399.35, 407.42 396.73, 407.06 391.92 C 406.70 387.12, 406.78 384.69, 406.28 380.34 C 405.77 375.99, 405.40 373.83, 404.55 370.16 C 403.71 366.49, 403.50 364.55, 402.06 361.98 C 400.63 359.42, 399.59 358.49, 397.37 357.34 C 395.16 356.18, 393.61 355.75, 390.99 356.22 C 388.37 356.70, 386.89 357.67, 384.28 359.71 C 381.66 361.75, 380.48 363.28, 377.92 366.42 C 375.36 369.56, 374.06 371.44, 371.48 375.41 C 368.89 379.37, 367.55 381.59, 364.99 386.26 C 362.43 390.93, 361.14 393.58, 358.67 398.76 C 356.21 403.94, 354.98 406.74, 352.67 412.16 C 350.37 417.58, 349.24 420.38, 347.15 425.85 C 345.06 431.33, 343.99 434.26, 342.23 439.53 C 340.48 444.80, 339.76 447.34, 338.38 452.21 C 337.00 457.08, 336.48 459.51, 335.35 463.87 C 334.21 468.22, 333.62 470.46, 332.71 473.98 C 331.79 477.49, 331.13 478.93, 330.78 481.43 C 330.42 483.93, 330.55 485.07, 330.94 486.49 C 331.32 487.91, 331.99 488.36, 332.70 488.54 C 333.42 488.72, 334.02 488.50, 334.51 487.38 C 335.01 486.25, 335.09 485.21, 335.18 482.92 C 335.27 480.62, 335.07 479.15, 334.97 475.91 C 334.87 472.67, 334.61 470.76, 334.68 466.73 C 334.75 462.69, 334.94 460.39, 335.32 455.75 C 335.70 451.11, 335.96 448.54, 336.58 443.51 C 337.19 438.48, 337.50 435.85, 338.38 430.61 C 339.26 425.37, 339.78 422.51, 340.96 417.32 C 342.14 412.13, 342.94 409.51, 344.28 404.67 C 345.62 399.82, 346.43 397.39, 347.67 393.10 C 348.92 388.80, 349.49 386.68, 350.52 383.20 C 351.56 379.71, 352.57 378.22, 352.84 375.69 C 353.12 373.15, 352.73 371.94, 351.89 370.52 C 351.05 369.11, 350.00 368.66, 348.65 368.61 C 347.30 368.55, 346.52 369.17, 345.14 370.25 C 343.76 371.33, 343.22 372.13, 341.74 374.01 C 340.27 375.89, 339.40 377.15, 337.76 379.65 C 336.12 382.15, 335.36 383.71, 333.53 386.51 C 331.70 389.30, 330.64 390.73, 328.61 393.61 C 326.58 396.50, 325.38 398.05, 323.39 400.94 C 321.39 403.83, 320.56 405.31, 318.63 408.05 C 316.71 410.80, 315.62 412.17, 313.75 414.66 C 311.88 417.15, 310.82 418.34, 309.29 420.49 C 307.76 422.63, 307.39 423.56, 306.08 425.39 C 304.76 427.21, 303.98 427.97, 302.70 429.62 C 301.43 431.26, 300.91 432.07, 299.70 433.63 C 298.50 435.19, 297.84 435.85, 296.69 437.42 C 295.53 438.99, 294.77 439.92, 293.91 441.50 C 293.06 443.08, 292.71 443.95, 292.40 445.32 C 292.09 446.69, 291.95 447.52, 292.35 448.34 C 292.76 449.16, 293.52 449.54, 294.41 449.43" style="stroke: black; fill: black;"/><path d="M 1059.04,359.26 C 1058.46 360.06, 1058.42 360.91, 1058.26 362.90 C 1058.11 364.90, 1058.20 366.20, 1058.26 369.24 C 1058.32 372.28, 1058.51 374.20, 1058.56 378.11 C 1058.61 382.02, 1058.63 384.27, 1058.51 388.80 C 1058.39 393.33, 1058.24 395.78, 1057.96 400.75 C 1057.69 405.73, 1057.37 408.53, 1057.12 413.69 C 1056.87 418.85, 1056.86 421.57, 1056.72 426.55 C 1056.59 431.53, 1056.51 434.13, 1056.45 438.57 C 1056.39 443.01, 1056.12 445.31, 1056.42 448.76 C 1056.72 452.21, 1057.01 453.89, 1057.97 455.82 C 1058.93 457.75, 1059.82 458.35, 1061.23 458.41 C 1062.65 458.48, 1063.82 457.98, 1065.04 456.14 C 1066.26 454.29, 1066.80 452.59, 1067.35 449.18 C 1067.90 445.78, 1067.59 443.48, 1067.78 439.12 C 1067.98 434.76, 1068.04 432.20, 1068.32 427.37 C 1068.59 422.54, 1068.65 419.81, 1069.16 414.96 C 1069.66 410.12, 1069.93 407.74, 1070.83 403.17 C 1071.74 398.59, 1072.29 396.30, 1073.67 392.10 C 1075.04 387.90, 1075.90 385.90, 1077.71 382.18 C 1079.52 378.47, 1080.55 376.60, 1082.71 373.54 C 1084.86 370.48, 1085.99 369.15, 1088.50 366.87 C 1091.02 364.59, 1092.44 363.62, 1095.30 362.12 C 1098.15 360.62, 1099.59 359.99, 1102.79 359.37 C 1105.99 358.74, 1107.73 358.72, 1111.30 359.00 C 1114.87 359.28, 1116.90 359.58, 1120.64 360.76 C 1124.39 361.94, 1126.37 362.80, 1130.03 364.90 C 1133.69 367.00, 1135.60 368.36, 1138.93 371.25 C 1142.26 374.14, 1144.02 375.90, 1146.68 379.34 C 1149.35 382.78, 1150.54 384.68, 1152.26 388.43 C 1153.98 392.19, 1154.58 394.17, 1155.29 398.10 C 1156.00 402.03, 1156.00 404.14, 1155.81 408.08 C 1155.62 412.03, 1155.29 414.10, 1154.34 417.80 C 1153.40 421.51, 1152.68 423.25, 1151.07 426.62 C 1149.45 429.99, 1148.41 431.64, 1146.27 434.65 C 1144.13 437.65, 1142.96 439.09, 1140.36 441.65 C 1137.76 444.21, 1136.33 445.31, 1133.27 447.43 C 1130.21 449.56, 1128.59 450.68, 1125.06 452.28 C 1121.54 453.88, 1119.47 454.38, 1115.64 455.43 C 1111.81 456.47, 1109.64 456.92, 1105.92 457.52 C 1102.19 458.11, 1100.38 458.21, 1097.01 458.40 C 1093.64 458.60, 1091.88 458.59, 1089.08 458.51 C 1086.27 458.43, 1084.97 458.25, 1082.99 458.01 C 1081.01 457.77, 1080.29 457.71, 1079.17 457.30 C 1078.05 456.89, 1078.02 456.06, 1077.39 455.96 C 1076.76 455.87, 1076.06 455.99, 1076.03 456.83 C 1075.99 457.67, 1076.02 458.97, 1077.22 460.15 C 1078.41 461.33, 1079.66 462.08, 1082.02 462.73 C 1084.38 463.39, 1085.95 463.44, 1089.02 463.43 C 1092.09 463.42, 1093.86 463.08, 1097.38 462.69 C 1100.89 462.29, 1102.73 462.16, 1106.59 461.46 C 1110.45 460.76, 1112.67 460.31, 1116.68 459.17 C 1120.70 458.04, 1122.90 457.50, 1126.66 455.79 C 1130.42 454.09, 1132.20 452.90, 1135.49 450.64 C 1138.78 448.37, 1140.33 447.20, 1143.12 444.46 C 1145.92 441.71, 1147.18 440.14, 1149.46 436.90 C 1151.74 433.67, 1152.83 431.90, 1154.53 428.26 C 1156.24 424.62, 1157.00 422.72, 1157.99 418.72 C 1158.97 414.71, 1159.31 412.49, 1159.46 408.24 C 1159.62 403.99, 1159.58 401.71, 1158.77 397.45 C 1157.95 393.20, 1157.28 391.03, 1155.41 386.98 C 1153.54 382.94, 1152.25 380.90, 1149.41 377.23 C 1146.58 373.56, 1144.74 371.71, 1141.23 368.62 C 1137.72 365.53, 1135.74 364.08, 1131.86 361.78 C 1127.98 359.47, 1125.87 358.47, 1121.83 357.11 C 1117.79 355.75, 1115.61 355.34, 1111.65 354.98 C 1107.68 354.61, 1105.66 354.59, 1102.00 355.29 C 1098.34 355.98, 1096.60 356.74, 1093.36 358.48 C 1090.12 360.21, 1088.55 361.37, 1085.81 363.96 C 1083.06 366.54, 1081.88 368.08, 1079.63 371.42 C 1077.38 374.76, 1076.36 376.74, 1074.54 380.68 C 1072.71 384.61, 1071.89 386.71, 1070.51 391.09 C 1069.14 395.46, 1068.59 397.84, 1067.66 402.54 C 1066.74 407.24, 1066.47 409.69, 1065.88 414.60 C 1065.30 419.51, 1065.23 422.26, 1064.74 427.09 C 1064.26 431.92, 1064.04 434.49, 1063.46 438.73 C 1062.88 442.97, 1062.36 445.12, 1061.85 448.29 C 1061.33 451.46, 1061.00 452.85, 1060.89 454.58 C 1060.77 456.31, 1061.13 456.90, 1061.26 456.93 C 1061.40 456.97, 1061.67 456.47, 1061.56 454.75 C 1061.44 453.04, 1061.00 451.60, 1060.68 448.36 C 1060.35 445.11, 1060.09 442.88, 1059.93 438.53 C 1059.78 434.18, 1059.84 431.55, 1059.91 426.62 C 1059.97 421.68, 1059.99 418.97, 1060.26 413.85 C 1060.54 408.72, 1060.87 405.95, 1061.27 400.98 C 1061.66 396.01, 1061.85 393.54, 1062.22 389.00 C 1062.58 384.46, 1062.75 382.24, 1063.10 378.28 C 1063.44 374.31, 1063.94 372.36, 1063.94 369.19 C 1063.94 366.02, 1063.64 364.48, 1063.09 362.42 C 1062.53 360.37, 1061.96 359.55, 1061.15 358.92 C 1060.34 358.29, 1059.62 358.47, 1059.04 359.26" style="stroke: black; fill: black;"/><path d="M 1211.22,415.24 C 1211.16 414.44, 1210.87 413.95, 1209.88 413.22 C 1208.89 412.48, 1208.14 411.80, 1206.27 411.58 C 1204.40 411.35, 1202.97 411.40, 1200.53 412.10 C 1198.10 412.80, 1196.88 413.43, 1194.10 415.07 C 1191.32 416.71, 1189.66 417.80, 1186.63 420.28 C 1183.60 422.76, 1181.89 424.41, 1178.94 427.47 C 1176.00 430.52, 1174.47 432.18, 1171.89 435.57 C 1169.31 438.96, 1167.92 440.88, 1166.05 444.41 C 1164.18 447.94, 1163.42 449.90, 1162.53 453.23 C 1161.63 456.57, 1161.42 458.16, 1161.57 461.08 C 1161.72 463.99, 1162.03 465.48, 1163.26 467.81 C 1164.49 470.13, 1165.55 471.31, 1167.71 472.69 C 1169.86 474.08, 1171.30 474.46, 1174.03 474.73 C 1176.76 475.00, 1178.31 474.93, 1181.37 474.04 C 1184.42 473.16, 1186.18 472.31, 1189.32 470.32 C 1192.46 468.32, 1194.03 466.88, 1197.07 464.05 C 1200.11 461.22, 1201.65 459.57, 1204.52 456.16 C 1207.40 452.75, 1208.93 450.79, 1211.45 447.01 C 1213.98 443.23, 1215.11 440.87, 1217.16 437.26 C 1219.21 433.64, 1220.71 431.72, 1221.72 428.95 C 1222.73 426.19, 1222.56 424.62, 1222.21 423.43 C 1221.85 422.24, 1220.92 422.16, 1219.94 423.00 C 1218.95 423.85, 1217.98 425.15, 1217.29 427.64 C 1216.61 430.12, 1216.70 432.07, 1216.52 435.44 C 1216.34 438.81, 1216.25 441.04, 1216.39 444.47 C 1216.53 447.90, 1216.59 449.66, 1217.21 452.59 C 1217.84 455.53, 1218.33 456.86, 1219.50 459.15 C 1220.66 461.44, 1221.29 462.54, 1223.04 464.05 C 1224.80 465.56, 1225.99 466.28, 1228.27 466.69 C 1230.56 467.10, 1231.99 466.91, 1234.47 466.10 C 1236.94 465.29, 1238.29 464.59, 1240.65 462.65 C 1243.00 460.72, 1243.95 459.16, 1246.24 456.40 C 1248.54 453.65, 1249.78 451.96, 1252.12 448.86 C 1254.46 445.77, 1255.87 444.17, 1257.94 440.94 C 1260.00 437.71, 1261.99 434.66, 1262.45 432.73 C 1262.91 430.79, 1261.82 430.10, 1260.23 431.26 C 1258.65 432.42, 1256.85 435.55, 1254.52 438.52 C 1252.20 441.49, 1251.01 443.18, 1248.62 446.10 C 1246.22 449.02, 1244.86 450.68, 1242.54 453.10 C 1240.22 455.53, 1238.99 456.59, 1237.00 458.22 C 1235.01 459.86, 1234.20 460.49, 1232.58 461.28 C 1230.96 462.08, 1230.23 462.30, 1228.91 462.20 C 1227.60 462.10, 1227.04 461.77, 1226.02 460.77 C 1225.00 459.76, 1224.53 459.01, 1223.81 457.18 C 1223.09 455.35, 1222.84 454.15, 1222.43 451.61 C 1222.02 449.06, 1221.64 447.57, 1221.76 444.45 C 1221.87 441.33, 1222.62 439.21, 1223.00 435.99 C 1223.38 432.77, 1223.78 430.88, 1223.66 428.35 C 1223.54 425.82, 1223.12 424.49, 1222.41 423.34 C 1221.70 422.20, 1221.18 421.91, 1220.10 422.62 C 1219.02 423.34, 1218.30 424.35, 1217.01 426.91 C 1215.71 429.46, 1215.33 431.78, 1213.61 435.40 C 1211.88 439.02, 1210.78 441.32, 1208.39 444.98 C 1206.00 448.65, 1204.49 450.51, 1201.68 453.71 C 1198.86 456.90, 1197.27 458.46, 1194.32 460.96 C 1191.36 463.47, 1189.80 464.68, 1186.91 466.25 C 1184.03 467.82, 1182.41 468.13, 1179.90 468.81 C 1177.38 469.49, 1176.30 469.68, 1174.34 469.67 C 1172.39 469.65, 1171.53 469.51, 1170.12 468.72 C 1168.70 467.94, 1168.04 467.32, 1167.26 465.75 C 1166.48 464.18, 1166.33 463.15, 1166.24 460.87 C 1166.15 458.58, 1166.14 457.24, 1166.82 454.31 C 1167.50 451.39, 1167.99 449.53, 1169.63 446.26 C 1171.26 442.98, 1172.55 441.12, 1174.99 437.95 C 1177.44 434.77, 1178.97 433.17, 1181.86 430.38 C 1184.75 427.59, 1186.45 426.07, 1189.44 424.02 C 1192.43 421.97, 1194.24 421.34, 1196.80 420.12 C 1199.36 418.91, 1200.40 418.50, 1202.24 417.94 C 1204.09 417.39, 1204.83 417.44, 1206.02 417.35 C 1207.22 417.26, 1207.39 417.52, 1208.22 417.49 C 1209.05 417.46, 1209.56 417.67, 1210.16 417.22 C 1210.76 416.77, 1211.28 416.04, 1211.22 415.24" style="stroke: black; fill: black;"/><path d="M 1271.49,400.36 C 1270.66 400.94, 1270.37 401.84, 1269.54 403.66 C 1268.70 405.48, 1268.07 406.63, 1267.32 409.46 C 1266.57 412.28, 1266.53 414.30, 1265.79 417.78 C 1265.05 421.25, 1264.54 423.07, 1263.61 426.83 C 1262.69 430.59, 1262.03 432.81, 1261.16 436.57 C 1260.28 440.33, 1259.77 442.26, 1259.23 445.62 C 1258.69 448.97, 1258.29 450.72, 1258.47 453.35 C 1258.65 455.98, 1259.06 457.22, 1260.11 458.78 C 1261.16 460.35, 1261.94 460.85, 1263.71 461.18 C 1265.49 461.50, 1266.74 461.56, 1268.98 460.40 C 1271.22 459.24, 1272.50 457.95, 1274.91 455.36 C 1277.32 452.77, 1278.28 450.73, 1281.02 447.44 C 1283.76 444.14, 1285.33 442.28, 1288.60 438.88 C 1291.87 435.48, 1293.92 433.59, 1297.35 430.45 C 1300.79 427.30, 1302.65 425.48, 1305.78 423.15 C 1308.91 420.83, 1310.63 420.05, 1312.98 418.85 C 1315.34 417.65, 1316.16 417.19, 1317.56 417.16 C 1318.97 417.12, 1319.41 417.48, 1320.01 418.69 C 1320.61 419.89, 1320.41 420.89, 1320.54 423.18 C 1320.68 425.47, 1320.72 426.96, 1320.69 430.13 C 1320.65 433.29, 1320.58 435.44, 1320.37 439.01 C 1320.16 442.58, 1319.76 444.54, 1319.64 447.98 C 1319.51 451.42, 1319.29 453.26, 1319.73 456.20 C 1320.17 459.14, 1320.56 460.57, 1321.82 462.69 C 1323.09 464.81, 1324.09 465.78, 1326.05 466.81 C 1328.01 467.84, 1329.15 468.17, 1331.61 467.84 C 1334.08 467.51, 1335.70 467.03, 1338.38 465.15 C 1341.05 463.26, 1342.17 461.61, 1344.99 458.42 C 1347.82 455.23, 1349.27 453.29, 1352.49 449.21 C 1355.72 445.13, 1357.66 442.87, 1361.11 438.03 C 1364.57 433.18, 1366.34 430.33, 1369.77 424.99 C 1373.19 419.64, 1374.93 416.85, 1378.25 411.31 C 1381.56 405.77, 1383.19 402.74, 1386.33 397.29 C 1389.48 391.85, 1391.11 388.84, 1393.95 384.06 C 1396.79 379.28, 1398.29 376.98, 1400.53 373.39 C 1402.78 369.80, 1404.07 368.06, 1405.17 366.11 C 1406.28 364.17, 1406.22 363.45, 1406.06 363.66 C 1405.90 363.88, 1404.86 364.61, 1404.37 367.18 C 1403.89 369.75, 1404.07 371.99, 1403.64 376.53 C 1403.21 381.07, 1402.91 384.22, 1402.22 389.88 C 1401.53 395.54, 1401.03 398.77, 1400.19 404.81 C 1399.35 410.86, 1398.89 414.04, 1398.02 420.08 C 1397.14 426.13, 1396.54 429.37, 1395.83 435.04 C 1395.11 440.70, 1394.79 443.51, 1394.45 448.39 C 1394.11 453.28, 1393.99 455.55, 1394.14 459.46 C 1394.28 463.37, 1394.30 465.42, 1395.19 467.94 C 1396.07 470.47, 1397.12 471.61, 1398.56 472.09 C 1400.00 472.57, 1401.30 471.83, 1402.38 470.34 C 1403.45 468.85, 1403.94 467.32, 1403.93 464.64 C 1403.91 461.95, 1403.46 460.11, 1402.31 456.92 C 1401.16 453.73, 1400.13 451.73, 1398.18 448.70 C 1396.22 445.67, 1394.92 444.16, 1392.53 441.75 C 1390.14 439.34, 1388.90 438.23, 1386.24 436.65 C 1383.58 435.07, 1381.88 434.49, 1379.23 433.83 C 1376.57 433.18, 1375.07 433.10, 1372.96 433.39 C 1370.85 433.68, 1369.85 434.15, 1368.66 435.30 C 1367.47 436.44, 1366.90 437.40, 1367.01 439.11 C 1367.12 440.82, 1367.50 442.19, 1369.22 443.84 C 1370.94 445.50, 1372.40 446.31, 1375.63 447.39 C 1378.86 448.47, 1380.97 448.74, 1385.37 449.22 C 1389.77 449.70, 1392.26 449.75, 1397.63 449.78 C 1403.00 449.81, 1406.13 449.79, 1412.22 449.38 C 1418.32 448.98, 1421.67 448.55, 1428.12 447.77 C 1434.57 446.99, 1438.12 446.52, 1444.48 445.48 C 1450.84 444.43, 1454.17 443.75, 1459.92 442.56 C 1465.67 441.37, 1468.39 440.61, 1473.25 439.51 C 1478.11 438.42, 1480.44 437.98, 1484.24 437.10 C 1488.03 436.21, 1489.95 436.12, 1492.21 435.10 C 1494.47 434.07, 1495.10 433.26, 1495.54 431.96 C 1495.98 430.66, 1495.59 429.71, 1494.39 428.60 C 1493.19 427.50, 1492.02 426.78, 1489.54 426.44 C 1487.06 426.11, 1485.29 426.38, 1482.01 426.92 C 1478.72 427.47, 1476.78 428.03, 1473.12 429.18 C 1469.46 430.34, 1467.36 431.05, 1463.70 432.69 C 1460.05 434.33, 1458.11 435.29, 1454.84 437.40 C 1451.57 439.51, 1449.95 440.81, 1447.34 443.25 C 1444.73 445.69, 1443.44 446.92, 1441.79 449.61 C 1440.13 452.31, 1439.64 454.03, 1439.08 456.71 C 1438.52 459.40, 1438.48 460.67, 1438.99 463.05 C 1439.50 465.44, 1440.08 466.81, 1441.62 468.65 C 1443.15 470.48, 1444.30 471.21, 1446.67 472.22 C 1449.04 473.24, 1450.53 473.61, 1453.47 473.72 C 1456.42 473.84, 1458.13 473.59, 1461.40 472.78 C 1464.67 471.98, 1466.47 471.22, 1469.80 469.69 C 1473.14 468.16, 1474.92 467.34, 1478.08 465.15 C 1481.25 462.95, 1482.79 461.48, 1485.64 458.72 C 1488.50 455.97, 1489.93 454.32, 1492.36 451.37 C 1494.79 448.41, 1496.08 446.86, 1497.78 443.95 C 1499.49 441.05, 1500.30 439.10, 1500.87 436.85 C 1501.45 434.61, 1501.07 433.45, 1500.65 432.73 C 1500.23 432.01, 1499.55 432.22, 1498.76 433.23 C 1497.97 434.25, 1497.11 435.25, 1496.71 437.81 C 1496.30 440.38, 1496.44 442.64, 1496.74 446.04 C 1497.03 449.43, 1497.39 451.45, 1498.16 454.80 C 1498.94 458.16, 1499.32 459.89, 1500.61 462.80 C 1501.90 465.71, 1502.61 467.18, 1504.63 469.35 C 1506.64 471.52, 1508.04 472.29, 1510.68 473.66 C 1513.32 475.02, 1514.80 475.86, 1517.82 476.17 C 1520.85 476.48, 1522.60 476.05, 1525.80 475.21 C 1529.00 474.37, 1530.64 473.69, 1533.84 471.97 C 1537.04 470.26, 1538.68 469.10, 1541.80 466.61 C 1544.92 464.12, 1546.39 462.61, 1549.43 459.54 C 1552.47 456.47, 1554.04 454.61, 1557.00 451.27 C 1559.97 447.94, 1561.52 446.06, 1564.25 442.86 C 1566.99 439.66, 1568.20 438.09, 1570.68 435.27 C 1573.15 432.45, 1574.34 431.04, 1576.63 428.77 C 1578.92 426.51, 1580.06 425.55, 1582.12 423.94 C 1584.18 422.33, 1585.01 421.58, 1586.92 420.70 C 1588.82 419.82, 1589.71 419.52, 1591.65 419.52 C 1593.59 419.53, 1594.39 419.83, 1596.60 420.73 C 1598.82 421.63, 1600.21 422.28, 1602.72 424.02 C 1605.23 425.77, 1606.76 427.06, 1609.16 429.47 C 1611.55 431.88, 1612.83 433.34, 1614.70 436.08 C 1616.56 438.81, 1617.38 440.29, 1618.47 443.14 C 1619.56 445.99, 1619.90 447.52, 1620.12 450.34 C 1620.35 453.17, 1620.23 454.79, 1619.61 457.28 C 1618.99 459.77, 1618.39 460.68, 1617.03 462.78 C 1615.67 464.88, 1614.82 466.04, 1612.81 467.79 C 1610.80 469.55, 1609.50 470.24, 1606.99 471.54 C 1604.47 472.84, 1603.04 473.58, 1600.23 474.31 C 1597.43 475.04, 1595.64 475.04, 1592.94 475.18 C 1590.24 475.32, 1588.58 475.20, 1586.74 475.01 C 1584.90 474.82, 1584.16 474.73, 1583.72 474.22 C 1583.28 473.71, 1583.79 473.29, 1584.56 472.45 C 1585.32 471.62, 1586.46 471.27, 1587.56 470.04 C 1588.66 468.82, 1589.92 467.54, 1590.07 466.33 C 1590.21 465.13, 1589.60 464.12, 1588.30 464.03 C 1587.00 463.94, 1585.11 464.56, 1583.56 465.87 C 1582.01 467.19, 1581.10 468.60, 1580.56 470.62 C 1580.01 472.64, 1579.86 474.14, 1580.84 475.97 C 1581.83 477.80, 1583.03 478.83, 1585.50 479.77 C 1587.96 480.70, 1589.96 480.77, 1593.17 480.65 C 1596.39 480.54, 1598.34 480.11, 1601.57 479.19 C 1604.80 478.27, 1606.40 477.56, 1609.32 476.04 C 1612.24 474.53, 1613.77 473.74, 1616.17 471.63 C 1618.57 469.52, 1619.67 468.14, 1621.32 465.49 C 1622.97 462.85, 1623.72 461.53, 1624.42 458.42 C 1625.12 455.30, 1625.18 453.29, 1624.83 449.91 C 1624.48 446.53, 1623.95 444.79, 1622.67 441.52 C 1621.40 438.25, 1620.47 436.63, 1618.45 433.56 C 1616.43 430.50, 1615.13 428.92, 1612.58 426.18 C 1610.02 423.45, 1608.51 421.97, 1605.68 419.89 C 1602.86 417.81, 1601.30 416.81, 1598.47 415.80 C 1595.64 414.79, 1594.22 414.71, 1591.53 414.83 C 1588.84 414.96, 1587.52 415.35, 1585.02 416.41 C 1582.53 417.46, 1581.36 418.23, 1579.06 420.11 C 1576.75 421.99, 1575.77 423.27, 1573.50 425.79 C 1571.22 428.32, 1570.12 429.81, 1567.70 432.74 C 1565.29 435.67, 1564.11 437.24, 1561.42 440.46 C 1558.73 443.67, 1557.18 445.54, 1554.24 448.81 C 1551.31 452.08, 1549.73 453.91, 1546.73 456.81 C 1543.74 459.71, 1542.26 461.10, 1539.27 463.31 C 1536.27 465.52, 1534.69 466.47, 1531.75 467.87 C 1528.81 469.27, 1527.26 469.68, 1524.58 470.31 C 1521.90 470.94, 1520.67 471.26, 1518.35 471.03 C 1516.03 470.79, 1515.00 470.13, 1512.97 469.13 C 1510.94 468.13, 1509.75 467.68, 1508.21 466.03 C 1506.67 464.37, 1506.23 463.28, 1505.26 460.84 C 1504.30 458.40, 1503.82 456.83, 1503.38 453.81 C 1502.94 450.79, 1503.09 448.90, 1503.07 445.74 C 1503.06 442.58, 1503.57 440.53, 1503.32 438.02 C 1503.07 435.51, 1502.64 434.43, 1501.82 433.20 C 1501.01 431.96, 1500.35 431.47, 1499.23 431.82 C 1498.12 432.18, 1497.38 433.02, 1496.25 434.97 C 1495.12 436.93, 1495.01 438.86, 1493.57 441.60 C 1492.12 444.35, 1491.18 445.89, 1489.02 448.71 C 1486.85 451.53, 1485.41 453.15, 1482.75 455.72 C 1480.08 458.29, 1478.63 459.63, 1475.67 461.56 C 1472.72 463.49, 1471.04 464.15, 1467.96 465.36 C 1464.88 466.57, 1463.13 467.07, 1460.26 467.61 C 1457.40 468.15, 1456.00 468.11, 1453.64 468.07 C 1451.27 468.03, 1450.16 467.90, 1448.45 467.40 C 1446.74 466.91, 1446.07 466.65, 1445.07 465.61 C 1444.07 464.56, 1443.73 463.75, 1443.46 462.18 C 1443.20 460.61, 1443.24 459.78, 1443.75 457.77 C 1444.25 455.76, 1444.65 454.41, 1445.98 452.14 C 1447.32 449.87, 1448.17 448.66, 1450.40 446.42 C 1452.63 444.18, 1454.14 442.89, 1457.14 440.93 C 1460.13 438.97, 1461.96 438.05, 1465.40 436.62 C 1468.84 435.20, 1470.88 434.56, 1474.36 433.81 C 1477.83 433.06, 1479.75 433.13, 1482.77 432.87 C 1485.79 432.61, 1487.35 432.77, 1489.46 432.50 C 1491.57 432.22, 1492.41 431.82, 1493.33 431.50 C 1494.26 431.17, 1494.60 430.93, 1494.10 430.86 C 1493.59 430.80, 1492.97 430.63, 1490.81 431.18 C 1488.66 431.72, 1486.95 432.48, 1483.30 433.58 C 1479.65 434.68, 1477.34 435.39, 1472.55 436.67 C 1467.76 437.96, 1465.07 438.74, 1459.37 440.01 C 1453.68 441.28, 1450.39 441.97, 1444.08 443.01 C 1437.77 444.06, 1434.22 444.52, 1427.82 445.24 C 1421.42 445.95, 1418.09 446.35, 1412.07 446.60 C 1406.05 446.86, 1402.94 446.81, 1397.73 446.52 C 1392.52 446.24, 1390.06 446.03, 1386.03 445.16 C 1381.99 444.28, 1380.28 443.25, 1377.57 442.14 C 1374.85 441.02, 1373.91 440.35, 1372.43 439.58 C 1370.96 438.82, 1370.56 438.64, 1370.17 438.33 C 1369.78 438.02, 1369.90 438.08, 1370.49 438.04 C 1371.08 438.00, 1371.64 437.96, 1373.12 438.13 C 1374.60 438.31, 1375.79 438.32, 1377.89 438.92 C 1380.00 439.52, 1381.41 439.86, 1383.63 441.12 C 1385.86 442.38, 1386.99 443.17, 1389.01 445.23 C 1391.03 447.28, 1392.21 448.66, 1393.72 451.38 C 1395.22 454.11, 1395.70 456.06, 1396.55 458.85 C 1397.39 461.63, 1397.43 463.19, 1397.95 465.31 C 1398.48 467.42, 1398.83 468.37, 1399.17 469.42 C 1399.51 470.46, 1399.62 471.05, 1399.66 470.53 C 1399.70 470.02, 1399.74 469.11, 1399.37 466.85 C 1398.99 464.58, 1398.18 462.87, 1397.80 459.21 C 1397.42 455.55, 1397.33 453.32, 1397.47 448.54 C 1397.62 443.77, 1397.90 440.97, 1398.53 435.36 C 1399.16 429.74, 1399.74 426.49, 1400.62 420.46 C 1401.49 414.43, 1401.96 411.25, 1402.93 405.23 C 1403.90 399.21, 1404.51 395.99, 1405.48 390.36 C 1406.45 384.72, 1407.06 381.63, 1407.78 377.05 C 1408.50 372.47, 1409.27 370.33, 1409.09 367.44 C 1408.91 364.55, 1408.24 363.33, 1406.89 362.61 C 1405.53 361.89, 1404.14 362.03, 1402.29 363.84 C 1400.44 365.65, 1399.77 367.88, 1397.63 371.65 C 1395.48 375.42, 1394.25 377.81, 1391.56 382.69 C 1388.86 387.57, 1387.24 390.58, 1384.15 396.05 C 1381.07 401.52, 1379.44 404.54, 1376.13 410.04 C 1372.82 415.55, 1371.06 418.32, 1367.60 423.58 C 1364.13 428.84, 1362.34 431.64, 1358.80 436.33 C 1355.27 441.03, 1353.28 443.22, 1349.91 447.06 C 1346.54 450.89, 1344.89 452.75, 1341.97 455.49 C 1339.05 458.24, 1337.59 459.22, 1335.33 460.80 C 1333.07 462.38, 1332.15 462.87, 1330.66 463.38 C 1329.17 463.90, 1328.87 463.91, 1327.89 463.37 C 1326.92 462.83, 1326.40 462.23, 1325.78 460.67 C 1325.17 459.11, 1325.07 458.06, 1324.81 455.55 C 1324.55 453.04, 1324.40 451.38, 1324.49 448.14 C 1324.59 444.90, 1324.96 442.94, 1325.28 439.37 C 1325.59 435.79, 1325.95 433.64, 1326.07 430.25 C 1326.19 426.87, 1326.46 425.21, 1325.88 422.43 C 1325.30 419.65, 1324.78 418.13, 1323.17 416.35 C 1321.56 414.57, 1320.24 413.85, 1317.82 413.55 C 1315.40 413.24, 1313.93 413.52, 1311.05 414.83 C 1308.18 416.15, 1306.66 417.53, 1303.44 420.14 C 1300.22 422.74, 1298.44 424.61, 1294.96 427.85 C 1291.47 431.09, 1289.43 432.96, 1286.01 436.31 C 1282.60 439.66, 1280.87 441.54, 1277.88 444.60 C 1274.89 447.65, 1273.42 449.31, 1271.06 451.59 C 1268.69 453.87, 1267.50 454.70, 1266.05 456.01 C 1264.59 457.32, 1264.34 457.85, 1263.77 458.13 C 1263.20 458.40, 1263.27 458.37, 1263.18 457.40 C 1263.09 456.44, 1263.20 455.54, 1263.34 453.31 C 1263.48 451.09, 1263.46 449.44, 1263.87 446.29 C 1264.27 443.13, 1264.55 441.18, 1265.35 437.52 C 1266.15 433.86, 1266.82 431.66, 1267.88 427.97 C 1268.95 424.28, 1269.61 422.46, 1270.67 419.06 C 1271.73 415.66, 1272.45 413.82, 1273.18 410.97 C 1273.90 408.12, 1274.18 406.85, 1274.28 404.80 C 1274.38 402.76, 1274.23 401.65, 1273.68 400.76 C 1273.12 399.87, 1272.32 399.78, 1271.49 400.36" style="stroke: black; fill: black;"/></svg>