<?xml version="1.0" encoding="UTF-8" standalone="no"?>
<!-- Created with Inkscape (http://www.inkscape.org/) -->

<svg
   version="1.1"
   id="svg1"
   width="4000"
   height="3000"
   viewBox="0 0 4000 3000"
   xmlns="http://www.w3.org/2000/svg"
   xmlns:svg="http://www.w3.org/2000/svg">
  <defs
     id="defs1" />
  <g
     id="g1">
    <path
       style="fill:#000000"
       d="m 2080.4777,2179.8982 c -19.8158,-1.6527 -34.4348,-3.7893 -42.8619,-6.2644 -4.874,-1.4315 -10.0614,-2.6027 -11.5275,-2.6027 -1.4661,0 -3.6087,-0.6606 -4.7613,-1.4679 -1.1527,-0.8074 -4.0653,-1.7446 -6.4725,-2.0827 -3.7886,-0.5322 -8.0066,-1.9191 -16.3768,-5.3846 -3.4857,-1.4432 -15.8999,-5.877 -18.5,-6.6073 -1.375,-0.3863 -2.95,-1.035 -3.5,-1.4417 -0.55,-0.4067 -3.0631,-1.0079 -5.5846,-1.3359 -2.5216,-0.3279 -6.7966,-1.6879 -9.5,-3.022 -2.7035,-1.3341 -6.7154,-2.9912 -8.9154,-3.6823 -2.2,-0.6912 -6.25,-2.0732 -9,-3.0711 -2.75,-0.998 -7.5792,-2.5392 -10.7315,-3.4251 -3.1524,-0.8858 -6.0062,-2.055 -6.342,-2.5983 -0.3357,-0.5432 -2.9996,-2.0443 -5.9197,-3.3357 -6.0053,-2.6558 -7.9006,-5.8013 -4.8475,-8.045 1.6238,-1.1933 1.9918,-1.0668 3.1226,1.0734 0.7051,1.3344 1.7176,2.4262 2.25,2.4262 1.4942,0 1.1444,-3.6088 -0.4804,-4.9572 -0.7966,-0.6612 -1.5841,-3.2479 -1.75,-5.7482 -0.2895,-4.3655 -0.4784,-4.615 -4.7554,-6.282 -4.5546,-1.7752 -5.9708,-3.3231 -4.0989,-4.48 1.7784,-1.0991 1.1665,-3.5326 -0.8882,-3.5326 -1.0675,0 -2.1803,-0.3873 -2.4729,-0.8606 -0.2925,-0.4733 -3.2001,-1.6093 -6.4613,-2.5244 -3.2612,-0.915 -6.1843,-2.3277 -6.4958,-3.1393 -0.3114,-0.8117 -1.5397,-1.4757 -2.7296,-1.4757 -2.8627,0 -8.8994,-3.7861 -8.8994,-5.5816 0,-1.7215 1.4075,-1.8059 4.3,-0.2578 1.1928,0.6383 5.6957,1.9468 10.0066,2.9078 4.3109,0.9609 8.368,2.3899 9.0157,3.1756 0.6477,0.7856 6.5777,3.1664 13.1777,5.2907 6.6,2.1243 13.4693,4.7214 15.265,5.7714 2.4319,1.422 4.2182,1.7374 7,1.2358 7.0693,-1.2747 21.139,0.069 29.235,2.7923 8.6483,2.9088 13.5414,3.9885 19,4.1925 3.025,0.113 9.325,1.1866 14,2.3858 4.675,1.1991 11.2,2.6307 14.5,3.1812 3.3,0.5505 8.475,1.4237 11.5,1.9404 3.025,0.5166 8.425,1.3929 12,1.9473 3.575,0.5544 9.2,1.4828 12.5,2.0633 5.9866,1.0529 24.8519,1.6694 59.0963,1.9311 18.907,0.1445 32.743,-1.2999 49.4037,-5.1576 10.5942,-2.4531 15.3745,-3.356 25.5,-4.8165 13.8059,-1.9914 41.2919,-9.6158 45.123,-12.5168 1.0323,-0.7817 3.7225,-1.4356 5.9781,-1.4531 2.3465,-0.018 6.0196,-1.0519 8.5855,-2.4162 2.4665,-1.3115 6.021,-2.7056 7.8989,-3.0982 1.878,-0.3925 4.3145,-1.2734 5.4145,-1.9574 1.1,-0.684 3.3145,-1.5677 4.9211,-1.9638 1.6066,-0.3961 4.0298,-1.5923 5.3848,-2.6582 1.3551,-1.0659 3.1906,-1.9403 4.079,-1.9431 0.8883,0 3.4151,-1.1138 5.6151,-2.4688 2.2,-1.355 4.656,-2.4777 5.4578,-2.4949 0.8018,-0.017 3.0518,-1.5404 5,-3.385 1.9482,-1.8446 5.5672,-4.1262 8.0422,-5.0704 6.0552,-2.3099 15.9029,-8.7494 15.9567,-10.4342 0.029,-0.9187 0.7989,-1.1688 2.3778,-0.7725 1.7417,0.4372 3.0521,-0.1632 5.1611,-2.3645 1.5547,-1.6228 5.2904,-4.4251 8.3015,-6.2275 3.0111,-1.8024 6.8303,-4.5146 8.4871,-6.0271 1.6568,-1.5125 3.2842,-2.75 3.6163,-2.75 0.3321,0 2.7616,-2.0095 5.3988,-4.4656 2.6373,-2.4561 6.6864,-5.7388 8.9979,-7.295 2.9562,-1.9901 4.2028,-3.5314 4.2028,-5.1961 0,-1.8946 0.8476,-2.6502 4.25,-3.7883 2.3375,-0.7819 4.25,-1.7555 4.25,-2.1635 0,-1.3741 8.9879,-12.331 17.6321,-21.4949 4.7194,-5.0031 8.9494,-10.0506 9.4001,-11.2166 0.4507,-1.1661 2.8778,-4.6472 5.3936,-7.7359 2.5158,-3.0887 4.5824,-5.9597 4.5924,-6.38 0.021,-0.8614 4.4423,-7.751 8.8338,-13.7641 1.6067,-2.2 4.2098,-6.425 5.7847,-9.3889 3.819,-7.1876 4.7732,-8.7778 6.5128,-10.8542 1.7722,-2.1154 6.8505,-12.0504 6.8505,-13.4022 0,-0.5285 1.125,-2.6164 2.5,-4.6399 1.528,-2.2487 2.5,-5.0856 2.5,-7.2969 0,-2.4328 0.9826,-4.9743 3,-7.7592 1.65,-2.2778 3,-5.2546 3,-6.6152 0,-1.3607 1.35,-4.0115 3,-5.8907 1.7322,-1.9729 3,-4.5459 3,-6.0886 0,-1.4695 1.575,-7.3794 3.5,-13.133 1.925,-5.7536 3.5,-11.7722 3.5,-13.3747 0,-1.6025 0.6873,-3.6009 1.5272,-4.4409 1.7731,-1.773 6.4728,-15.577 6.4728,-19.0116 0,-1.2839 0.8367,-3.4075 1.8594,-4.7191 1.0227,-1.3117 2.1767,-4.6349 2.5645,-7.3849 0.7929,-5.6224 3.2679,-14.8564 9.2277,-34.4281 0.7416,-2.4355 1.3484,-5.8937 1.3484,-7.6849 0,-1.7913 0.5157,-4.5236 1.146,-6.0719 0.6303,-1.5483 1.563,-5.5151 2.0728,-8.8151 1.0331,-6.6883 1.9254,-11.9819 4.1298,-24.5 1.2767,-7.2498 2.8715,-19.8795 3.9826,-31.5387 0.1593,-1.6713 0.6641,-3.6446 1.1218,-4.3853 0.4577,-0.7406 0.968,-3.6482 1.1338,-6.4613 0.1659,-2.8131 0.8014,-10.5147 1.4122,-17.1147 1.6964,-18.3294 2.453,-77.7869 1.0239,-80.4573 -0.8333,-1.557 -0.8573,-2.5374 -0.085,-3.4683 1.5147,-1.8251 -2.0683,-49.0804 -3.9942,-52.679 -0.5192,-0.9701 -0.944,-5.3669 -0.944,-9.7706 0,-4.4037 -0.45,-8.2849 -1,-8.6248 -0.55,-0.3399 -1.0142,-3.179 -1.0315,-6.309 -0.029,-5.3073 -3.4874,-26.9771 -5.9347,-37.191 -0.5931,-2.475 -1.7797,-9 -2.6369,-14.5 -0.8573,-5.5 -2.4235,-11.8 -3.4806,-14 -1.057,-2.2 -1.9206,-5.2533 -1.9191,-6.7852 0,-1.5318 -0.6251,-3.7818 -1.3926,-5 -0.7674,-1.2181 -2.1546,-5.3648 -3.0826,-9.2148 -0.928,-3.85 -2.5008,-8.4046 -3.495,-10.1213 -0.9943,-1.7168 -2.1365,-5.0918 -2.5384,-7.5 -0.4018,-2.4083 -1.8012,-6.5012 -3.1096,-9.0955 -1.3085,-2.5942 -2.379,-5.5246 -2.379,-6.5121 0,-2.7998 -4.875,-17.4679 -6.3845,-19.2098 -1.7166,-1.9808 -7.6155,-17.3767 -7.6155,-19.876 0,-1.0336 -0.9,-2.917 -2,-4.1853 -1.1,-1.2683 -2,-3.1235 -2,-4.1226 0,-1.6719 -1.9655,-5.7299 -5.4206,-11.1912 -0.7607,-1.2024 -1.7023,-3.7612 -2.0925,-5.6862 -0.3902,-1.925 -1.2627,-4.175 -1.9389,-5 -2.7722,-3.3822 -9.548,-17.3286 -9.548,-19.6523 0,-1.3743 -1.7434,-5.5023 -3.8742,-9.1732 -3.9052,-6.7278 -9.1258,-17.3182 -9.1258,-18.5123 0,-0.3547 -1.575,-2.7083 -3.5,-5.2301 -1.925,-2.5219 -3.5,-5.2558 -3.5,-6.0754 0,-0.8196 -1.0757,-2.9226 -2.3905,-4.6734 -1.3148,-1.7508 -2.7106,-4.7583 -3.1018,-6.6833 -0.3912,-1.925 -2.207,-5.075 -4.035,-7 -1.9882,-2.0937 -3.6062,-5.044 -4.0269,-7.3429 -0.4434,-2.423 -1.8565,-4.899 -3.8245,-6.7014 -3.0321,-2.7768 -4.6365,-5.4931 -10.015,-16.9557 -4.4836,-9.5553 -6.8152,-13.1289 -9.1435,-14.0142 -2.7019,-1.0272 -5.4628,-4.7085 -5.4628,-7.2838 0,-1.9682 -7.3495,-15.182 -9.0177,-16.213 -0.5432,-0.3356 -1.9447,-2.7205 -3.1145,-5.2996 -1.1698,-2.5792 -3.3061,-6.1 -4.7474,-7.824 -1.4412,-1.7241 -4.1716,-5.7116 -6.0676,-8.8612 -1.896,-3.1496 -5.3835,-7.8802 -7.75,-10.5123 -2.3665,-2.6322 -4.3028,-5.4915 -4.3028,-6.354 0,-0.8626 -1.334,-3.0877 -2.9645,-4.9447 -1.6305,-1.8571 -3.4382,-4.4602 -4.017,-5.7848 -2.0626,-4.7199 -6.5842,-11.6986 -10.8629,-16.7661 -2.3893,-2.8299 -5.5802,-7.5619 -7.0908,-10.5156 -1.5106,-2.9537 -3.2649,-5.9906 -3.8986,-6.7486 -5.1054,-6.1074 -8.4944,-10.6096 -9.6319,-12.7957 -0.739,-1.4203 -2.3991,-3.529 -3.689,-4.686 -1.2899,-1.1569 -3.2453,-3.6101 -4.3453,-5.4515 -2.2351,-3.7414 -2.78,-4.5831 -7.0204,-10.8445 -1.6388,-2.4198 -3.4296,-5.1198 -3.9796,-6 -0.55,-0.8802 -1.4846,-1.9167 -2.0768,-2.3032 -0.5923,-0.3865 -1.9128,-2.6365 -2.9345,-5 -1.0217,-2.3635 -3.9561,-6.7722 -6.5208,-9.7972 -2.5647,-3.025 -5.4283,-6.9818 -6.3634,-8.793 -0.9352,-1.8111 -2.7441,-3.6898 -4.0198,-4.1748 -1.5964,-0.6069 -2.7422,-2.3133 -3.6751,-5.4731 -1.0973,-3.716 -1.9646,-4.8112 -4.5506,-5.7463 -2.5652,-0.9276 -3.4339,-2.0088 -4.4072,-5.4852 -0.7352,-2.6258 -2.9646,-6.1987 -5.6651,-9.0787 -2.449,-2.612 -5.1528,-6.099 -6.0084,-7.749 -0.8556,-1.65 -2.7307,-4.3844 -4.167,-6.0764 -1.4362,-1.69211 -3.9612,-4.84211 -5.611,-7.00001 -1.6498,-2.158 -5.0805,-6.1736 -7.6236,-8.9236 -2.5432,-2.75 -4.9007,-5.9 -5.2391,-7 -0.3383,-1.1 -2.3572,-3.8 -4.4865,-6 -2.1292,-2.2 -4.8585,-5.9419 -6.0649,-8.3154 -1.2065,-2.3735 -3.6733,-5.1885 -5.4819,-6.2556 -1.8086,-1.0671 -3.8422,-3.1557 -4.5191,-4.6414 -0.677,-1.4857 -2.0847,-3.2994 -3.1284,-4.0304 -1.0437,-0.7311 -3.5512,-3.8204 -5.5722,-6.8652 -2.021,-3.0447 -4.665,-6.1848 -5.8755,-6.978 -1.2105,-0.7931 -2.76,-2.6733 -3.4434,-4.178 -1.9413,-4.2747 -8.2795,-12.1691 -10.28,-12.804 -0.9942,-0.3156 -2.5214,-2.0044 -3.3937,-3.7529 -0.8723,-1.7485 -4.5854,-6.1041 -8.2512,-9.6791 -3.6659,-3.575 -7.9201,-8.1875 -9.4539,-10.25 -1.5338,-2.0625 -3.3688,-3.75 -4.0777,-3.75 -0.709,0 -1.8737,-1.7713 -2.5882,-3.9363 -0.8936,-2.70759 -2.1702,-4.29708 -4.0899,-5.09224 -1.5365,-0.63646 -3.5175,-2.68752 -4.4079,-4.56374 -0.8893,-1.87426 -2.2795,-3.40774 -3.0891,-3.40774 -0.8097,0 -5.1998,-3.31649 -9.7558,-7.36997 -4.556,-4.05349 -9.2324,-7.67113 -10.3922,-8.03921 -2.0837,-0.66134 -6.3988,-5.63303 -7.5031,-8.64464 -0.3133,-0.85461 -3.2052,-3.00872 -6.4263,-4.78693 -3.2212,-1.77821 -8.0198,-4.8131 -10.6635,-6.74421 -16.4447,-12.01194 -41.5499,-13.11726 -51.0581,-2.24796 -4.7223,5.39821 -5.0302,5.92325 -9.2875,15.83292 -1.5358,3.575 -3.3628,7.09006 -4.0598,7.81125 -0.6971,0.72119 -2.1895,4.54619 -3.3165,8.5 -1.127,3.95381 -2.7065,8.46272 -3.5102,10.01979 -0.8036,1.55707 -1.4611,5.03811 -1.4611,7.73568 0,5.3745 -1.3064,11.5798 -4.1519,19.7208 -1.0164,2.9081 -1.8481,7.7752 -1.8481,10.8157 0,3.0406 -0.5318,6.5112 -1.1819,7.7125 -3.046,5.6293 -4.4834,113.72071 -1.767,132.87601 0.5219,3.6803 0.9489,9.7733 0.9489,13.5399 0,3.7665 0.7263,9.5303 1.6139,12.8084 0.8877,3.2781 1.9903,12.0351 2.4502,19.4601 1.3731,22.1648 2.6883,33.4716 4.3581,37.4681 0.8678,2.0769 1.5817,6.3087 1.5864,9.404 0.013,8.2629 6.107,45.0574 9.7934,59.1279 1.0808,4.125 2.2605,11.775 2.6216,17 0.3612,5.225 0.8129,11.5766 1.0038,14.1146 0.1909,2.5381 1.2928,7.7131 2.4485,11.5 1.1557,3.787 2.5017,10.9354 2.9911,15.8854 0.4894,4.95 1.7914,12.15 2.8933,16 1.1019,3.85 2.0165,9.7 2.0324,13 0.02,4.1134 0.8899,8.201 2.7671,13 1.506,3.85 3.1063,9.7 3.5563,13 0.45,3.3 1.4861,10.95 2.3025,17 3.3462,24.7977 6.1008,38.925 8.8717,45.5 0.3476,0.825 1.0929,5.775 1.6561,11 0.5632,5.225 1.9307,12.7568 3.0388,16.7373 1.1081,3.9806 2.0148,9.6509 2.0148,12.6008 0,2.9499 0.3917,6.6681 0.8704,8.2627 0.4787,1.5945 1.6811,6.4992 2.6721,10.8992 0.991,4.4 2.3994,9.2152 3.1297,10.7003 0.7303,1.4852 1.3278,5.5577 1.3278,9.05 0,3.4924 0.4719,6.8216 1.0487,7.3984 0.5767,0.5767 1.4889,5.2792 2.0269,10.45 1.0114,9.719 2.7801,20.9119 5.3571,33.9013 0.8183,4.125 1.5058,9.2646 1.5276,11.4213 0.022,2.1567 0.7298,4.6837 1.5732,5.6157 0.8723,0.9639 1.8978,4.9426 2.3783,9.2273 0.4646,4.143 1.237,8.1409 1.7165,8.8842 0.4794,0.7433 0.9018,5.1765 0.9385,9.8515 0.037,4.711 0.844,11.3975 1.8102,15 0.9588,3.575 2.5697,9.875 3.5796,14 3.8258,15.6261 6.1153,24.0601 7.1936,26.5 0.4861,1.1 1.5298,5.15 2.3193,9 3.0218,14.7352 4.5562,20.6109 5.9456,22.7672 1.3446,2.0868 2.5776,6.9304 4.5144,17.7328 0.4438,2.475 1.5412,6.4691 2.4387,8.8757 0.8975,2.4067 1.6318,5.7571 1.6318,7.4453 0,1.9475 0.9557,4.0671 2.6143,5.7983 1.8239,1.9038 2.7704,4.1876 3.1308,7.5547 0.2841,2.6543 0.8378,5.276 1.2305,5.826 0.3927,0.55 1.2782,3.25 1.9677,6 3.1113,12.4086 7.659,16.3549 6.642,5.7637 -0.7465,-7.7742 -0.7702,-9.4483 -0.2017,-14.2637 1.2355,-10.4661 0.889,-55.9666 -0.4384,-57.566 -0.8739,-1.053 -0.8652,-2.5989 0.036,-6.3547 0.6548,-2.7298 0.8595,-6.0018 0.4547,-7.2712 -0.4047,-1.2695 -0.8276,-9.0581 -0.9398,-17.3081 -0.3627,-26.6808 -1.3212,-44.8066 -2.8387,-53.6848 -0.8164,-4.7766 -1.2403,-10.5046 -0.942,-12.7289 0.3857,-2.8755 0.042,-4.808 -1.1897,-6.6878 -1.4181,-2.1642 -1.5161,-3.0476 -0.5404,-4.8707 0.8874,-1.6581 0.9152,-3.2237 0.109,-6.1275 -0.5956,-2.1451 -1.1093,-9.0753 -1.1415,-15.4003 -0.032,-6.325 -0.7244,-15.1 -1.5382,-19.5 -0.8138,-4.4 -1.6986,-13.175 -1.9662,-19.5 -0.2677,-6.325 -0.7488,-12.4 -1.0691,-13.5 -1.007,-3.4575 -2.4137,-12.6621 -3.3622,-22 -0.5028,-4.95 -1.3617,-10.8 -1.9086,-13 -0.547,-2.2 -1.2146,-7.2103 -1.4835,-11.134 -0.4419,-6.4467 -3.2528,-26.0925 -5.7755,-40.366 -0.5346,-3.025 -1.658,-7.6191 -2.4964,-10.2091 -0.8384,-2.59 -1.643,-8.1247 -1.788,-12.2993 -0.1449,-4.1747 -0.7814,-8.1081 -1.4142,-8.7409 -0.6329,-0.6329 -1.1507,-2.4297 -1.1507,-3.9929 0,-1.5631 -0.7263,-6.3106 -1.6141,-10.55 -0.8877,-4.2393 -2.1986,-11.9828 -2.9131,-17.2078 -0.7145,-5.225 -2.2235,-11.975 -3.3533,-15 -1.1298,-3.025 -2.0675,-7.525 -2.0837,-10 -0.016,-2.475 -0.8947,-7.65 -1.9522,-11.5 -1.7533,-6.3828 -6.648,-27.6312 -9.2143,-40 -0.5706,-2.75 -2.3496,-9.7275 -3.9534,-15.5056 -1.6037,-5.7781 -2.9159,-12.5455 -2.9159,-15.0386 0,-2.5521 -0.8702,-6.2398 -1.9914,-8.4388 -1.0952,-2.1483 -2.2828,-6.181 -2.6391,-8.9615 -0.3562,-2.7805 -1.3891,-7.0805 -2.2953,-9.5555 -0.9062,-2.475 -1.6545,-4.95 -1.663,-5.5 -0.05,-3.271 -4.5184,-20.927 -7.2123,-28.5 -1.0761,-3.025 -2.5368,-8.2 -3.246,-11.5 -0.7093,-3.3 -2.1139,-7.6696 -3.1213,-9.7102 -1.0074,-2.0406 -1.8316,-5.0231 -1.8316,-6.6278 0,-1.6048 -0.6207,-4.4352 -1.3792,-6.2899 -0.7586,-1.8546 -1.6932,-5.9774 -2.0769,-9.1616 -0.4961,-4.1164 -1.2535,-6.1367 -2.6208,-6.9906 -1.3133,-0.8202 -1.9231,-2.3315 -1.9231,-4.7662 0,-2.2325 -0.9345,-4.8317 -2.5,-6.9537 -1.5239,-2.0655 -2.5172,-4.7769 -2.5441,-6.9443 -0.055,-4.4192 -1.9001,-11.1571 -4.671,-17.0557 -1.1626,-2.475 -2.3935,-6.562 -2.7354,-9.0822 -0.342,-2.5202 -1.4338,-6.1202 -2.4264,-8.0001 -0.9926,-1.8798 -2.3525,-5.6678 -3.0222,-8.4178 -0.6696,-2.75 -2.2238,-6.575 -3.4538,-8.5 -7.6896,-12.0349 -6.7891,-20.2845 3.5572,-32.58651 6.6724,-7.9337 4.433,-7.3671 23.9018,-6.047 6.7801,0.4597 17.1419,8.5927 18.3744,14.4221 0.3825,1.8087 2.1808,5.23471 3.9964,7.61321 1.8796,2.4624 3.6134,6.173 4.0263,8.617 0.4999,2.9589 1.7402,5.2537 3.9922,7.3868 2.5246,2.3911 3.4089,4.2141 3.891,8.0213 0.3431,2.7098 1.2281,5.6348 1.9667,6.5 2.01,2.3546 4.4829,9.5419 7.7563,22.5434 0.5498,2.1835 1.8909,5.4123 2.9803,7.1749 1.9273,3.1185 4.9103,12.8566 4.9103,16.03 0,0.8676 1.35,4.2341 3,7.4811 1.65,3.247 3,6.9886 3,8.3147 0,1.3261 0.3974,2.6567 0.8831,2.9569 0.4857,0.3002 1.2032,3.1076 1.5944,6.2388 0.3913,3.1311 1.5689,7.2929 2.6169,9.2484 1.0481,1.9555 1.9084,4.687 1.9118,6.0702 0,1.3831 0.6783,3.8037 1.5,5.3791 0.8216,1.5754 1.4938,3.7178 1.4938,4.7609 0,1.0431 0.8365,3.8042 1.8589,6.1357 3.03,6.9094 5.4056,15.7723 6.229,23.2391 0.4246,3.85 1.7606,10.375 2.9688,14.5 1.2082,4.125 2.4145,8.9667 2.6805,10.7593 0.2661,1.7926 0.8841,3.5066 1.3733,3.809 0.4892,0.3023 0.8895,1.354 0.8895,2.3371 0,0.983 0.7716,3.319 1.7148,5.191 1.0256,2.0358 1.96,7.0203 2.325,12.4036 0.4038,5.9562 1.3178,10.5219 2.7026,13.5 1.1508,2.475 2.4214,6.7429 2.8236,9.4843 0.4023,2.7414 1.4934,6.3414 2.4248,8 1.9287,3.4346 3.0533,8.6393 3.5261,16.3189 0.1795,2.9167 0.7329,5.8417 1.2297,6.5 1.5588,2.0654 3.2532,9.247 3.259,13.8128 0.01,4.2458 1.2237,10.2722 2.9079,14.384 1.3099,3.1979 3.0865,11.3026 3.0865,14.0801 0,1.4033 0.4801,3.4484 1.0668,4.5448 0.5868,1.0963 1.4907,6.0901 2.0087,11.0973 0.9567,9.2466 2.587,16.5069 4.0931,18.2278 0.4573,0.5225 0.8314,4.82 0.8314,9.55 0,4.73 0.4625,9.0625 1.0279,9.6279 0.5653,0.5653 1.6537,5.9428 2.4186,11.95 0.7649,6.0071 1.8402,12.2721 2.3895,13.9221 0.5494,1.65 1.2358,6.8918 1.5256,11.6485 0.2897,4.7566 1.1863,10.227 1.9924,12.1563 0.8222,1.9677 1.7468,8.6755 2.106,15.2783 0.3523,6.4737 0.9387,12.2529 1.3031,12.8426 0.3645,0.5898 1.0188,3.5477 1.454,6.5733 0.4352,3.0255 1.2773,7.976 1.8713,11.001 0.594,3.025 1.4583,10.9 1.9207,17.5 0.4624,6.6 1.3544,15.825 1.9821,20.5 0.6278,4.675 1.486,11.425 1.9072,15 0.4212,3.575 1.0975,7.2432 1.5029,8.1516 0.4054,0.9083 0.9236,4.9583 1.1516,9 0.6887,12.2107 1.9037,22.2651 2.8738,23.7808 0.5043,0.7879 1.0011,7.0879 1.1041,14 0.1179,7.9159 0.6807,13.678 1.5205,15.5676 0.923,2.077 1.5483,10.6916 2.0322,28 0.3844,13.75 0.9571,28.8417 1.2727,33.537 0.3156,4.6954 0.8067,17.4382 1.0914,28.3174 0.2847,10.8791 0.8028,20.2418 1.1514,20.8058 0.3486,0.564 0.096,5.1462 -0.5613,10.1826 -0.7588,5.8146 -0.873,10.6173 -0.3129,13.1572 1.1794,5.3474 -2.5762,76.0238 -4.6761,88 -0.5786,3.3 -1.2967,8.925 -1.5958,12.5 -0.299,3.575 -0.9462,8.075 -1.4383,10 -0.492,1.925 -1.4296,6.425 -2.0837,10 -0.654,3.575 -2.481,10.411 -4.06,15.1911 -1.579,4.78 -2.8709,9.5478 -2.8709,10.595 0,2.4453 -3.0566,5.2139 -5.7563,5.2139 -1.1543,0 -3.1659,1.3636 -4.4703,3.0303 -1.6747,2.1399 -3.5324,3.2039 -6.3225,3.6214 -2.173,0.3251 -4.4677,1.2351 -5.0994,2.022 -1.567,1.9524 -21.3412,-0.2121 -26.1319,-2.8603 -1.8042,-0.9974 -4.8417,-1.8134 -6.75,-1.8134 -2.6836,0 -3.4696,-0.4107 -3.4696,-1.8129 0,-0.9971 -1.3813,-3.1346 -3.0695,-4.75 -3.8385,-3.6729 -5.6331,-7.5335 -6.4791,-13.9371 -0.5555,-4.2057 -4.9527,-14.4597 -10.935,-25.5 -0.7451,-1.375 -2.4036,-4.75 -3.6855,-7.5 -1.282,-2.75 -2.6684,-5.15 -3.0809,-5.3333 -0.4125,-0.1834 -0.75,-1.3863 -0.75,-2.6731 0,-1.2869 -1.35,-3.6898 -3,-5.3398 -1.65,-1.65 -3,-3.4274 -3,-3.9498 0,-0.9571 -3.1274,-8.6729 -5.3035,-13.0847 -0.6459,-1.3094 -1.032,-3.4667 -0.8581,-4.7941 0.3342,-2.5504 -3.1273,-12.1131 -5.9095,-16.3252 -0.9082,-1.375 -2.1966,-4.1812 -2.863,-6.2361 -0.6665,-2.0548 -1.629,-3.9939 -2.1389,-4.309 -0.5098,-0.3151 -0.927,-1.6953 -0.927,-3.067 0,-1.3717 -1.125,-4.1496 -2.5,-6.1731 -1.375,-2.0235 -2.5,-4.3886 -2.5,-5.2558 0,-0.8672 -0.6607,-2.4502 -1.4682,-3.5179 -0.8075,-1.0676 -1.4825,-3.3798 -1.5,-5.1382 -0.018,-1.7584 -1.1568,-5.3129 -2.5318,-7.8989 -1.375,-2.586 -2.4978,-5.4224 -2.4951,-6.3029 0.01,-1.7807 -2.7361,-10.6015 -4.1651,-13.4007 -0.5053,-0.9899 -1.2992,-3.6899 -1.7642,-6 -0.465,-2.3102 -1.6179,-6.9004 -2.562,-10.2004 -0.9441,-3.3 -2.0869,-8.0942 -2.5396,-10.6537 -0.4526,-2.5595 -1.532,-6.0247 -2.3985,-7.7003 -0.8665,-1.6757 -1.5755,-3.9425 -1.5755,-5.0373 0,-1.0949 -0.3981,-2.2367 -0.8846,-2.5374 -0.4865,-0.3007 -1.1996,-2.6469 -1.5845,-5.2138 -0.3849,-2.5668 -1.517,-5.8349 -2.5157,-7.2623 -1.1454,-1.637 -2.043,-5.3071 -2.4313,-9.9405 -0.3386,-4.04 -1.0984,-8.2476 -1.6886,-9.3503 -1.4675,-2.742 -5.7839,-23.1337 -7.4566,-35.227 -1.579,-11.4156 -3.1554,-19.3513 -4.9909,-25.1254 -0.7078,-2.2263 -1.5833,-7.4013 -1.9456,-11.5 -0.3623,-4.0986 -1.3718,-9.252 -2.2434,-11.452 -0.8715,-2.2 -1.9453,-6.25 -2.3862,-9 -1.8671,-11.6472 -2.8829,-17.2627 -3.889,-21.5 -0.5877,-2.475 -1.4451,-7.875 -1.9053,-12 -0.4601,-4.125 -1.1134,-8.175 -1.4518,-9 -0.3384,-0.825 -1.0014,-5.55 -1.4735,-10.5 -0.472,-4.95 -1.7843,-12.6 -2.9163,-17 -1.1319,-4.4 -2.5658,-11.825 -3.1865,-16.5 -1.6285,-12.2668 -3.007,-19.6159 -5.0647,-27 -3.6686,-13.165 -3.9865,-14.8672 -4.0369,-21.616 -0.057,-7.698 -1.2586,-17.8454 -2.8273,-23.884 -0.5716,-2.2 -1.5533,-6.7 -2.1818,-10 -0.6284,-3.3 -1.9969,-8.1975 -3.0411,-10.8834 -1.0441,-2.6858 -1.8984,-5.9217 -1.8984,-7.1909 0,-1.2692 -0.45,-2.5858 -1,-2.9257 -0.55,-0.3399 -1,-3.2088 -1,-6.3754 0,-6.6755 -1.7446,-17.1933 -3.0809,-18.5746 -0.5055,-0.5225 -0.9191,-4.18 -0.9191,-8.1279 0,-4.1181 -0.6394,-8.7082 -1.5,-10.7679 -0.825,-1.9745 -1.5,-5.3043 -1.5,-7.3996 0,-2.0953 -0.6263,-4.7037 -1.3917,-5.7965 -0.8041,-1.148 -1.6266,-5.7812 -1.948,-10.9725 -0.6504,-10.5045 -1.4454,-16.2018 -2.6493,-18.9856 -0.9674,-2.2369 -1.7708,-7.9214 -2.8975,-20.5 -0.4187,-4.675 -1.3279,-9.85 -2.0204,-11.5 -0.6925,-1.65 -1.2472,-5.1752 -1.2327,-7.8338 0.014,-2.6586 -0.4352,-6.0336 -0.9994,-7.5 -0.9412,-2.4467 -1.6464,-7.1251 -3.7933,-25.1662 -1.1868,-9.9728 -3.9913,-29.8561 -5.0863,-36.0602 -0.5398,-3.0581 -0.9814,-8.0994 -0.9814,-11.2029 0,-3.1036 -0.4094,-6.6765 -0.9098,-7.9398 -1.3387,-3.3802 -4.2805,-23.3462 -6.1582,-41.7971 -2.8837,-28.3347 -4.5069,-60.7944 -3.988,-79.7501 0.041,-1.5125 -0.1536,-14.81811 -0.4332,-29.56801 -0.3418,-18.0287 -0.1589,-27.4711 0.5582,-28.8109 0.5866,-1.0962 1.3061,-8.6031 1.5988,-16.6821 0.4953,-13.6689 2.1362,-23.8291 6.3481,-39.305 0.5412,-1.9888 0.9835,-5.5888 0.9827,-8 0,-5.71046 8.7014,-32.6371 13.5853,-42.0314 1.3289,-2.55606 2.4161,-5.30787 2.4161,-6.11514 0,-0.80727 0.8453,-2.54242 1.8785,-3.8559 1.0332,-1.31347 2.8824,-4.18666 4.1095,-6.38486 2.9998,-5.37408 10.1537,-14.28193 12.012,-14.95695 0.825,-0.29968 2.3065,-2.23389 3.2922,-4.29824 1.6113,-3.37478 5.1117,-6.34416 9.9145,-8.41069 0.9386,-0.40389 3.1886,-2.29636 5,-4.2055 3.2682,-3.44469 17.3649,-10.62534 20.8591,-10.62534 0.9989,0 2.0943,-0.45 2.4342,-1 0.3399,-0.55 1.4364,-1 2.4366,-1 1.0002,0 2.4211,-0.72613 3.1577,-1.61362 1.0417,-1.25517 2.4415,-1.48307 6.3012,-1.02594 2.9512,0.34953 5.486,0.15286 6.2549,-0.4853 4.2823,-3.55393 32.4872,-0.47229 38.8839,4.24841 0.5689,0.41981 3.7189,1.20401 7,1.74266 3.2811,0.53864 8.4407,2.07692 11.4657,3.41838 3.025,1.34147 7.5385,2.73894 10.0299,3.10549 3.1814,0.46805 5.365,1.55117 7.3348,3.63819 1.5427,1.63445 3.4417,2.97173 4.2201,2.97173 0.7783,0 1.4152,0.45965 1.4152,1.02144 0,0.56179 1.2375,1.55636 2.75,2.21015 1.5125,0.6538 4.2282,2.44415 6.0348,3.97857 1.8066,1.53441 3.9338,2.78984 4.7269,2.78984 0.7932,0 2.1741,1.11708 3.0687,2.48239 0.8946,1.36531 3.2675,3.4888 5.2731,4.71886 2.0056,1.23006 5.178,3.71298 7.0499,5.51761 1.8719,1.80463 3.995,3.28114 4.7181,3.28114 0.723,0 1.8915,1.05262 2.5966,2.33916 0.705,1.28654 4.4319,4.99295 8.2819,8.23647 7.6132,6.41389 11.4128,10.3608 11.4794,11.92437 0.023,0.55 2.4001,2.59383 5.2816,4.54184 2.9023,1.96208 7.5166,6.59077 10.3454,10.37759 2.8086,3.75966 6.2346,7.52026 7.6134,8.35689 1.3788,0.83662 3.9598,3.74034 5.7355,6.45269 1.7756,2.71236 5.2779,6.23127 7.7827,7.81981 2.9386,1.8636 5.1706,4.2647 6.2913,6.7679 0.9553,2.1338 2.4645,4.1588 3.3538,4.5001 0.8893,0.3412 1.6169,1.2253 1.6169,1.9647 0,0.7394 1.4082,2.666 3.1294,4.2814 1.7211,1.6154 4.6518,5.2868 6.5125,8.1586 1.8607,2.8718 4.2728,5.6977 5.3603,6.2796 1.0874,0.582 2.7134,2.5073 3.6132,4.2785 0.8999,1.7712 4.1694,5.9204 7.2655,9.2204 10.0344,10.6953 16.1184,17.8232 16.152,18.9236 0.018,0.592 1.8531,2.8764 4.0777,5.0764 2.2247,2.2 5.4362,5.9125 7.1367,8.25 1.7004,2.3375 3.4655,4.25 3.9222,4.25 0.4568,0 0.8305,0.5103 0.8305,1.134 0,1.3733 13.188,19.1215 17.4518,23.4864 1.6765,1.7162 4.3982,5.0096 6.0482,7.3186 1.65,2.30901 4.4109,5.85481 6.1354,7.87961 1.7245,2.0248 3.8725,5.4491 4.7734,7.6095 0.9009,2.1605 3.9103,6.4355 6.6877,9.5 9.6612,10.6603 10.9035,12.1393 10.9035,12.9807 0,0.4655 0.7225,1.446 1.6055,2.1788 0.883,0.7329 2.6267,3.6417 3.8749,6.4641 1.2482,2.8223 3.9007,6.7628 5.8945,8.7566 1.9938,1.9938 3.6251,4.0384 3.6251,4.5435 0,0.505 1.0692,1.6188 2.376,2.4751 2.3434,1.5354 12.9137,15.759 15.4045,20.7287 1.9717,3.9338 9.1475,12.2994 11.7374,13.6835 1.363,0.7285 2.6008,2.5828 3.0037,4.5 0.3769,1.7936 1.9468,4.611 3.4887,6.261 1.542,1.65 3.8013,5.151 5.0209,7.78 1.2195,2.6291 4.1025,6.9041 6.4066,9.5 2.3041,2.596 5.8111,7.6517 7.7933,11.235 4.1466,7.496 7.5302,11.7479 13.5069,16.973 1.0934,0.9559 2.3128,3.469 2.7097,5.5847 0.7089,3.779 2.3238,6.1865 9.8023,14.6133 2.0625,2.324 3.75,4.7946 3.75,5.4901 0,2.4083 7.8044,17.3752 10.7839,20.6808 1.0624,1.1787 3.2143,4.6181 4.782,7.6431 1.5676,3.025 4.7816,7.8218 7.1422,10.6595 2.3605,2.8377 4.2919,5.7981 4.2919,6.5785 0,1.3595 2.3857,5.3793 9.6564,16.2707 1.839,2.7547 3.3436,5.4671 3.3436,6.0275 0,1.2583 5.4901,11.9243 7.9297,15.4057 0.986,1.4069 2.3703,4.3581 3.0764,6.5581 0.706,2.2 2.3434,5.272 3.6388,6.8267 1.2953,1.5547 2.3551,3.6062 2.3551,4.5589 0,0.9526 1.5838,4.3622 3.5195,7.5767 1.9357,3.2146 3.7859,6.9064 4.1116,8.204 0.3257,1.2976 1.1584,2.691 1.8504,3.0965 1.4175,0.8305 5.5185,8.5202 5.5185,10.3477 0,0.6546 1.1863,3.71 2.6362,6.7898 1.4499,3.0798 4.224,8.9747 6.1647,13.0997 1.9407,4.125 3.9044,8.2814 4.3638,9.2364 0.4594,0.9551 0.8353,2.4039 0.8353,3.2196 0,0.8157 0.9,3.0719 2,5.0136 1.1,1.9417 2.9,5.1191 4,7.0608 1.1,1.9417 2,4.146 2,4.8985 0,0.7524 1.35,3.9344 3,7.0711 1.65,3.1367 3,6.3385 3,7.1151 0,0.7766 0.414,2.1934 0.9201,3.1485 0.506,0.955 1.892,4.4364 3.0799,7.7364 1.1879,3.3 2.6221,6.8586 3.187,7.908 0.565,1.0493 1.8302,4.6493 2.8117,8 1.983,6.7701 3.4078,10.9086 6.0563,17.592 0.9808,2.475 2.3482,6.75 3.0387,9.5 0.6904,2.75 1.8711,5.9629 2.6237,7.1399 0.7525,1.1769 1.7615,4.3269 2.2422,7 0.4806,2.673 1.5666,6.6601 2.4132,8.8601 0.8467,2.2 1.5592,5.6609 1.5833,7.691 0.024,2.03 0.4471,3.9401 0.9399,4.2447 0.4927,0.3046 1.4549,4.4919 2.1382,9.3052 0.6832,4.8133 1.9323,9.8045 2.7757,11.0917 1.5758,2.4051 2.6977,7.1773 4.1532,17.6674 0.4578,3.3 1.3319,7.9176 1.9423,10.2613 0.6103,2.3437 1.3123,5.8433 1.5599,7.777 0.2475,1.9337 0.6971,3.9154 0.999,4.4039 0.7604,1.2304 4.713,41.4566 5.2133,53.0578 0.2254,5.225 0.8054,10.4 1.289,11.5 0.8723,1.9843 2.4592,35.0255 2.2814,47.5 -0.4919,34.5004 -1.3867,61.2925 -2.1708,65 -0.5234,2.475 -1.2309,9.1906 -1.5722,14.9236 -0.3413,5.733 -1.1239,11.358 -1.7392,12.5 -1.0519,1.9524 -1.6587,6.8534 -3.2283,26.0764 -0.3592,4.4 -1.0552,9.8 -1.5464,12 -0.4913,2.2 -1.422,6.475 -2.0681,9.5 -0.6461,3.025 -1.4367,6.175 -1.7569,7 -0.3201,0.825 -0.6054,5.55 -0.634,10.5 -0.029,4.9895 -0.6745,10.7824 -1.449,13 -0.7685,2.2 -2.2265,6.3794 -3.2401,9.2875 -1.0137,2.9081 -1.843,6.5255 -1.843,8.0386 0,1.513 -0.9091,4.5337 -2.0202,6.7125 -1.1111,2.1788 -2.3042,6.4364 -2.6514,9.4614 -0.3472,3.025 -1.1167,5.8156 -1.7102,6.2014 -0.5934,0.3858 -1.8291,3.5358 -2.7458,7 -3.7841,14.2991 -5.0768,18.5048 -6.9273,22.5377 -1.0698,2.3315 -1.9451,5.1657 -1.9451,6.2983 0,1.1326 -0.9,3.922 -2,6.1987 -1.1,2.2768 -2,4.9285 -2,5.8927 0,0.9642 -0.45,2.0313 -1,2.3712 -0.55,0.3399 -1.0028,1.604 -1.0063,2.809 0,1.2051 -1.8179,5.791 -4.0322,10.191 -4.0582,8.0641 -7.9615,18.2685 -7.9615,20.8135 0,0.7571 -0.9,2.191 -2,3.1865 -1.1,0.9955 -2,2.6027 -2,3.5717 0,0.9689 -0.3375,1.9116 -0.75,2.095 -0.6758,0.3003 -3.957,7.3082 -6.477,13.8333 -0.531,1.375 -1.5827,3.625 -2.3371,5 -0.7544,1.375 -2.1736,4.075 -3.1538,6 -0.9801,1.925 -2.1448,3.6584 -2.5882,3.852 -1.804,0.7879 -4.6939,4.6361 -4.6939,6.2506 0,2.6352 -9.5194,21.7337 -13.7496,27.5853 -6.9902,9.6695 -12.4858,17.8041 -13.3847,19.8121 -2.1909,4.8938 -4.675,8.0234 -6.5934,8.3067 -1.183,0.1748 -2.5954,1.559 -3.282,3.2168 -0.663,1.6005 -2.0981,3.1933 -3.1891,3.5396 -1.0911,0.3463 -2.5825,2.0488 -3.3143,3.7833 -0.7318,1.7345 -2.9944,4.7286 -5.028,6.6536 -2.0336,1.925 -4.3248,4.9625 -5.0916,6.75 -0.7668,1.7875 -2.0991,3.25 -2.9608,3.25 -0.8616,0 -6.7947,5.175 -13.1845,11.5 -6.3898,6.325 -11.997,11.5 -12.4604,11.5 -2.7628,0 -13.7616,9.7477 -13.7616,12.1962 0,1.0406 -0.7404,1.8156 -1.75,1.8316 -0.9625,0.015 -3.5177,1.3653 -5.6781,3 -2.1605,1.6347 -4.4205,2.9722 -5.0222,2.9722 -0.6017,0 -2.659,1.2468 -4.5719,2.7707 -1.9128,1.524 -4.71,3.3972 -6.216,4.1627 -1.506,0.7655 -3.3033,2.6687 -3.9941,4.2293 -0.9514,2.1493 -1.9401,2.8373 -4.0776,2.8373 -3.4563,0 -5.4142,1.0057 -9.6364,4.9499 -1.7959,1.6775 -3.699,3.0501 -4.2293,3.0501 -0.5302,0 -2.9262,1.35 -5.3244,3 -2.3982,1.65 -4.6795,3 -5.0696,3 -0.3901,0 -2.784,1.2616 -5.3198,2.8035 -2.5358,1.542 -6.1856,3.3947 -8.1106,4.1173 -7.011,2.6315 -10.5416,4.3651 -12.5,6.1377 -1.1,0.9956 -5.3204,3.0066 -9.3787,4.4688 -4.0583,1.4623 -8.7833,3.5151 -10.5,4.5619 -1.7167,1.0468 -4.5572,1.905 -6.3123,1.9071 -1.755,0 -3.4332,0.3956 -3.7292,0.8745 -0.296,0.479 -1.9335,1.1499 -3.6388,1.491 -1.7054,0.3411 -4.5272,1.2409 -6.2708,1.9996 -1.7436,0.7587 -5.1952,1.943 -7.6702,2.6317 -9.0652,2.5227 -14.5732,4.3703 -19.4801,6.5346 -2.761,1.2177 -6.5949,2.5446 -8.5199,2.9486 -1.925,0.4041 -4.85,1.3453 -6.5,2.0917 -7.0013,3.1669 -25.1316,6.2254 -37.6279,6.3476 -5.316,0.052 -10.0392,0.6741 -12.3046,1.6206 -6.7682,2.828 -13.9321,3.681 -34.5675,4.1162 -11.275,0.2377 -22.75,0.496 -25.5,0.5738 -2.75,0.078 -6.125,0.057 -7.5,-0.046 -1.375,-0.103 -7,-0.047 -12.5,0.125 -5.5,0.1717 -14.05,-0.025 -19,-0.4384 z m 1232.0356,-57.9294 c -7.6804,-0.4561 -14.8804,-1.2628 -16,-1.7928 -4.3199,-2.0448 -6.3215,-2.4731 -15.0356,-3.217 -4.95,-0.4226 -11.25,-1.266 -14,-1.8742 -2.75,-0.6083 -7.25,-1.3761 -10,-1.7063 -2.75,-0.3302 -5.45,-0.9532 -6,-1.3844 -0.55,-0.4312 -2.8,-1.108 -5,-1.5039 -2.2,-0.3959 -4.4793,-1.0973 -5.0652,-1.5586 -0.5859,-0.4613 -5.3109,-2.2077 -10.5,-3.881 -5.1891,-1.6733 -11.6848,-4.1221 -14.4348,-5.4419 -5.9996,-2.8793 -16.1317,-7.1119 -19.25,-8.0416 -1.2375,-0.3689 -2.25,-1.0387 -2.25,-1.4884 0,-0.8487 -11.4924,-7.0476 -13.0659,-7.0476 -0.4915,0 -3.2652,-1.7981 -6.1638,-3.9957 -2.8987,-2.1976 -5.7584,-3.9976 -6.355,-4 -0.5966,0 -2.2876,-1.3543 -3.7577,-3.0043 -1.4702,-1.65 -3.2748,-3 -4.0103,-3 -0.7355,0 -2.1365,-0.8831 -3.1132,-1.9624 -0.9768,-1.0792 -3.409,-2.4917 -5.405,-3.1388 -1.996,-0.647 -4.7541,-1.9249 -6.1291,-2.8398 -1.375,-0.9148 -6.775,-3.8461 -12,-6.514 -5.225,-2.6679 -10.85,-5.8173 -12.5,-6.9986 -1.65,-1.1813 -4.35,-2.7806 -6,-3.554 -1.65,-0.7734 -3.8322,-2.1005 -4.8494,-2.9493 -1.0172,-0.8487 -4.21,-2.8931 -7.0952,-4.5431 -2.8852,-1.65 -8.1279,-5.1302 -11.6506,-7.7337 -3.5226,-2.6035 -7.9603,-5.7535 -9.8615,-7 -1.9012,-1.2465 -5.9512,-4.8557 -9,-8.0205 -3.0488,-3.1648 -6.0295,-5.7523 -6.6238,-5.75 -0.5942,0 -2.538,-2.0254 -4.3195,-4.5061 -1.7815,-2.4806 -4.5577,-5.1922 -6.1695,-6.0256 -4.0926,-2.1164 -4.0098,-5.4641 0.1352,-5.4641 4.1343,0 6.5619,1.418 12.2397,7.1493 6.5014,6.5628 9.2628,5.8481 6.1538,-1.5927 -0.8026,-1.9208 -1.4592,-4.0056 -1.4592,-4.6329 0,-2.8457 13.6402,3.3061 24.5,11.0495 3.85,2.7453 7.7178,4.9993 8.595,5.0091 0.8773,0.01 2.4095,0.9177 3.405,2.0177 0.9955,1.1 2.5888,2 3.5407,2 0.9519,0 2.9807,0.6485 4.5085,1.4411 2.4373,1.2645 3.1413,1.2532 5.7435,-0.093 2.763,-1.4288 3.1593,-1.3906 5.796,0.5589 1.5567,1.1509 3.6585,2.0925 4.6708,2.0925 1.0123,0 2.2685,0.428 2.7916,0.9511 0.5232,0.5232 4.0374,2.1129 7.8095,3.5327 3.7721,1.4198 8.2716,3.6338 9.9989,4.9201 1.7273,1.2863 4.9405,2.5737 7.1405,2.8608 3.4841,0.4548 16.6101,6.0246 27.5,11.6692 6.4067,3.3208 16.807,6.0661 22.9807,6.0661 4.9791,0 7.5992,0.7165 14.6606,4.0095 8.3381,3.8883 20.7874,6.8074 23.9143,5.6075 2.1238,-0.8149 1.7588,-2.5651 -0.7266,-3.4845 -5.2027,-1.9247 0.7184,-1.736 13.671,0.4356 15.5733,2.611 30.8019,4.868 43.25,6.41 4.5375,0.562 12.0739,1.5442 16.7475,2.1826 12.5712,1.7173 55.7702,-0.5071 62.6705,-3.2269 2.6983,-1.0636 5.6769,-1.9491 6.619,-1.9677 0.9422,-0.019 3.513,-0.9034 5.713,-1.9661 2.2,-1.0627 5.0719,-1.9474 6.382,-1.9661 1.31,-0.019 3.785,-0.8793 5.5,-1.9126 1.7149,-1.0333 4.8017,-2.417 6.8596,-3.0748 2.0578,-0.6578 6.3328,-3.0963 9.5,-5.4189 3.1671,-2.3225 8.2334,-5.6479 11.2584,-7.3897 9.2071,-5.3015 19.9766,-15.1222 24.4299,-22.2776 2.2385,-3.5968 5.2893,-7.7206 6.7794,-9.1639 1.4902,-1.4433 3.0183,-3.9004 3.3959,-5.4603 0.3775,-1.5598 1.5208,-4.0306 2.5406,-5.4905 1.0198,-1.4599 1.8542,-2.932 1.8542,-3.2714 0,-0.3394 1.1678,-2.3818 2.5952,-4.5387 1.4274,-2.1569 3.8797,-7.631 5.4495,-12.1646 1.5699,-4.5337 3.777,-9.4911 4.9048,-11.0165 1.492,-2.0181 2.0505,-4.2959 2.0505,-8.3636 0,-3.3573 0.6825,-6.8684 1.7088,-8.7905 1.2058,-2.2583 1.7953,-6.1438 2.0027,-13.2003 0.3649,-12.4166 1.2777,-20.3753 2.4177,-21.0799 1.1503,-0.7109 1.1195,-5.7614 -0.043,-6.9701 -0.5023,-0.5225 -1.152,-5.225 -1.4438,-10.45 -0.6449,-11.5505 -1.5179,-17.0508 -2.9978,-18.8874 -0.6149,-0.763 -1.1765,-2.788 -1.248,-4.5 -0.3243,-7.7666 -1.8363,-14.7551 -4.8923,-22.6126 -1.8183,-4.675 -3.8216,-10.695 -4.4519,-13.3778 -0.6303,-2.6828 -2.2501,-6.3252 -3.5995,-8.0944 -1.3494,-1.7691 -2.4534,-3.8716 -2.4534,-4.6722 0,-0.8006 -0.3947,-1.8831 -0.8771,-2.4056 -0.4824,-0.5225 -1.6717,-3.3973 -2.6429,-6.3884 -0.9712,-2.9911 -2.7916,-6.4642 -4.0454,-7.7179 -1.2537,-1.2537 -2.56,-3.1635 -2.9029,-4.2439 -0.6716,-2.116 -11.7474,-19.3069 -14.5606,-22.5998 -0.9397,-1.1 -1.9925,-3.2028 -2.3396,-4.6729 -0.347,-1.4701 -1.756,-4.0101 -3.1312,-5.6444 -1.3752,-1.6343 -2.5003,-3.274 -2.5003,-3.6438 0,-1.2022 -6.5353,-9.5483 -11.6006,-14.815 -1.7054,-1.7731 -3.6734,-4.6885 -4.3733,-6.4785 -0.6999,-1.79 -2.9046,-4.6815 -4.8993,-6.4255 -1.9948,-1.7441 -6.9391,-7.2545 -10.9874,-12.2454 -4.0483,-4.991 -9.2233,-10.912 -11.5,-13.1578 -2.2767,-2.2458 -6.1644,-6.6702 -8.6394,-9.8319 -2.475,-3.1618 -5.4,-6.6143 -6.5,-7.6724 -3.6781,-3.5378 -9.9583,-9.1131 -14.25,-12.6504 -2.3375,-1.9266 -4.25,-4.1021 -4.25,-4.8343 0,-1.7044 -6.3735,-7.9577 -11.3248,-11.1112 -7.5496,-4.8084 -11.3461,-1.1268 -9.4916,9.2045 1.4392,8.0175 1.4265,15.5918 -0.032,19.1127 -0.6585,1.5899 -1.3584,6.7102 -1.5552,11.3785 -0.3638,8.6276 -2.7785,19.2673 -4.9903,21.9878 -0.6707,0.825 -1.7468,2.7375 -2.3914,4.25 -0.6446,1.5125 -1.6316,2.75 -2.1934,2.75 -0.5618,0 -1.0214,0.814 -1.0214,1.8089 0,0.9948 -0.6607,2.6823 -1.4682,3.75 -0.8075,1.0676 -1.4825,2.6814 -1.5,3.5861 -0.018,0.9048 -1.2222,2.7048 -2.6772,4 -1.4549,1.2953 -5.0984,4.7417 -8.0965,7.6589 -7.1398,6.9468 -14.7878,11.895 -19.7581,12.7831 -2.2,0.3931 -4.9,1.2687 -6,1.9458 -3.475,2.1389 -9.9723,2.5857 -13.8771,0.9541 -1.9771,-0.8261 -5.886,-1.9934 -8.6864,-2.5939 -4.2464,-0.9107 -15.0861,-5.8753 -23.4721,-10.7502 -1.0804,-0.6281 -3.21,-1.5841 -4.7323,-2.1244 -1.5224,-0.5404 -3.2018,-2.1237 -3.7321,-3.5184 -0.5303,-1.3947 -2.0972,-2.9667 -3.4821,-3.4932 -1.3848,-0.5265 -2.5179,-1.4554 -2.5179,-2.0641 0,-0.6088 -1.9125,-3.1511 -4.25,-5.6497 -2.3375,-2.4985 -5.2205,-5.59 -6.4066,-6.87 -1.1862,-1.2799 -2.6847,-3.9272 -3.3301,-5.8828 -0.6454,-1.9555 -2.0374,-4.0179 -3.0934,-4.5831 -1.0559,-0.5651 -1.9199,-1.5248 -1.9199,-2.1328 0,-1.0159 -1.8055,-5.2677 -5.7602,-13.5649 -0.8496,-1.7823 -2.779,-4.6232 -4.2877,-6.313 -1.5087,-1.6899 -2.9664,-4.0566 -3.2393,-5.2594 -0.273,-1.2029 -1.2674,-5.787 -2.2099,-10.187 -0.9424,-4.4 -2.2807,-8.675 -2.9739,-9.5 -0.6932,-0.825 -1.5577,-2.7508 -1.9212,-4.2796 -0.3634,-1.5289 -1.7739,-3.7475 -3.1343,-4.9304 -2.201,-1.9137 -2.4735,-2.9399 -2.4735,-9.3138 0,-4.5587 -0.7272,-9.2766 -2,-12.9762 -1.1,-3.1972 -2,-7.0361 -2,-8.5308 0,-1.4948 -0.6512,-4.5635 -1.4472,-6.8195 -1.392,-3.9453 -4.0122,-22.5231 -3.7587,-26.6497 0.068,-1.1 0.4231,-4.846 0.79,-8.3244 0.8453,-8.0146 0.6286,-8.1685 -9.5841,-6.808 -9.076,1.2091 -12.2091,10.0161 -7.5394,21.1923 0.8467,2.0264 1.5394,5.684 1.5394,8.128 0,2.444 0.477,5.3348 1.0599,6.4241 0.583,1.0892 1.2027,6.7972 1.3771,12.6842 0.3414,11.5237 1.2473,17.9769 2.7982,19.9326 0.6385,0.8051 0.5624,2.9464 -0.2208,6.211 -0.8617,3.5921 -0.9022,5.9001 -0.1451,8.2713 0.5775,1.8089 1.2336,10.4068 1.4579,19.1065 0.2393,9.2786 0.8475,16.2571 1.4712,16.8808 0.6574,0.6574 0.8506,3.6009 0.506,7.711 -0.3065,3.6562 -0.022,12.7866 0.6331,20.2896 1.2184,13.9621 0.698,18.9552 -2.5325,24.301 -0.6648,1.1 -1.526,3.5189 -1.9138,5.3752 -0.9541,4.567 -13.302,17.8212 -19.3778,20.8003 -11.3199,5.5502 -39.1134,-7.8041 -39.1134,-18.7934 0,-3.755 -0.8991,-6.878 -3.5,-12.1575 -1.925,-3.9075 -3.5,-7.6066 -3.5,-8.2203 0,-0.6137 -1.125,-2.6406 -2.5,-4.5043 -1.375,-1.8637 -2.5,-4.417 -2.5,-5.674 0,-1.2571 -0.6248,-3.9821 -1.3885,-6.0558 -5.7266,-15.5492 -5.344,-18.5525 2.455,-19.2702 5.4335,-0.5 5.4335,-0.5 6.0607,-9.5 0.8194,-11.756 -0.1006,-33.622 -1.4882,-35.373 -0.5984,-0.7551 -1.4528,-6.3801 -1.8986,-12.5 -4.8863,-67.0777 -3.4933,-62.9543 -21.8279,-64.6145 -5.1769,-0.4688 -11.4375,-1.3459 -13.9125,-1.949 -2.475,-0.6032 -6.7614,-1.4502 -9.5253,-1.8822 -2.764,-0.4321 -5.5617,-1.1171 -6.2173,-1.5222 -6.1852,-3.8227 -13.5925,2.6409 -9.8857,8.6261 0.7545,1.2181 2.1493,5.5898 3.0996,9.7148 0.9504,4.125 2.5325,9.3 3.5157,11.5 2.83,6.332 4.013,10.824 4.013,15.2381 0,2.2528 0.9579,6.2709 2.1286,8.929 2.3768,5.3966 5.8714,17.6659 5.8714,20.6141 0,1.0541 0.6229,3.3345 1.3842,5.0677 2.1744,4.9501 4.557,13.6842 5.2243,19.1511 0.3357,2.75 1.2024,7.25 1.926,10 0.7236,2.75 1.6071,8.0097 1.9635,11.6881 0.3564,3.6785 1.2483,7.1864 1.982,7.7953 0.7338,0.609 1.6326,3.6743 1.9973,6.8119 0.3648,3.1376 1.7763,9.7547 3.1368,14.7047 5.5672,20.2555 5.0825,26.7857 -2.4862,33.5 -2.17,1.925 -4.4523,4.5125 -5.0718,5.75 -0.6196,1.2375 -1.8332,2.25 -2.6969,2.25 -0.8638,0 -2.9519,1.1624 -4.6403,2.583 -2.2902,1.9271 -3.7235,2.4207 -5.6443,1.9435 -1.416,-0.3517 -4.9495,-1.0269 -7.8522,-1.5005 -2.9026,-0.4735 -6.8658,-1.7981 -8.8071,-2.9435 -1.9413,-1.1454 -4.0664,-2.0864 -4.7225,-2.0912 -1.534,-0.011 -8.6928,-6.7722 -8.6928,-8.2099 0,-0.6009 -1.0546,-2.4851 -2.3436,-4.187 -2.7062,-3.5733 -7.3772,-14.8255 -9.1717,-22.0944 -0.6789,-2.75 -3.2686,-11.975 -5.755,-20.5 -2.4864,-8.525 -5.2718,-19.325 -6.1898,-24 -0.9179,-4.675 -2.064,-10.075 -2.5469,-12 -0.4828,-1.925 -1.6373,-6.875 -2.5655,-11 -0.9282,-4.125 -2.3041,-9.1966 -3.0576,-11.2702 -0.7534,-2.0737 -1.3699,-5.088 -1.3699,-6.6985 0,-1.7117 -1.0055,-4.0132 -2.4203,-5.5398 -1.9302,-2.0828 -2.5661,-4.1674 -3.1404,-10.2955 -0.396,-4.2261 -1.6062,-10.6116 -2.6894,-14.19 -1.0832,-3.5783 -2.768,-9.881 -3.744,-14.006 -2.0694,-8.7462 -3.4657,-12.5481 -4.9442,-13.4619 -0.5839,-0.3609 -1.0642,-1.6421 -1.0673,-2.8471 -0.021,-8.2285 -4.3443,-12.5432 -6.9549,-6.941 -1.6018,3.4373 -4.1656,13.9175 -4.22,17.25 -0.083,5.1119 -2.0059,17.5836 -3.083,20 -1.4477,3.2478 -1.7435,17.2982 -0.4793,22.7617 0.8161,3.5269 0.5965,5.4733 -1.274,11.2905 -1.865,5.8002 -2.1696,8.4795 -1.7423,15.3282 0.2907,4.6586 0.085,9.072 -0.4678,10.0605 -0.542,0.9686 -1.1193,4.7532 -1.2828,8.4101 -0.6834,15.2906 -2.0413,21.25 -7.3618,32.3097 -2.8207,5.8634 -5.1285,11.4362 -5.1285,12.384 0,5.5715 -2.2708,9.287 -6.7127,10.9834 -2.4459,0.9341 -5.969,3.2202 -7.829,5.0803 -5.5146,5.5146 -17.5331,9.805 -22.1096,7.8928 -1.9761,-0.8256 -4.6477,-1.5012 -5.9369,-1.5012 -2.0842,0 -4.807,-0.9599 -12.0513,-4.2485 -1.1768,-0.5342 -2.6147,-2.014 -3.1954,-3.2885 -0.5807,-1.2745 -2.6554,-3.0764 -4.6105,-4.0041 -1.955,-0.9277 -3.5546,-2.127 -3.5546,-2.6651 0,-0.5381 -0.8772,-2.0935 -1.9493,-3.4565 -1.0721,-1.3629 -2.2226,-4.5839 -2.5566,-7.1577 -0.334,-2.5738 -1.1962,-5.8046 -1.9158,-7.1796 -0.7197,-1.375 -1.5888,-6.1 -1.9314,-10.5 -0.3426,-4.4 -1.3388,-10.0221 -2.2138,-12.4935 -0.8751,-2.4714 -2.0208,-6.9714 -2.5461,-10 -0.5253,-3.0286 -1.5642,-7.0815 -2.3088,-9.0065 -0.7445,-1.925 -2.3736,-8.45 -3.6202,-14.5 -1.2466,-6.05 -2.5683,-11.45 -2.9372,-12 -1.4007,-2.0886 -3.0208,-9.4057 -3.0208,-13.6435 0,-2.4263 -0.5913,-5.2991 -1.314,-6.384 -0.7227,-1.0849 -1.3709,-3.0975 -1.4404,-4.4725 -0.07,-1.375 -0.5929,-4.075 -1.1631,-6 -0.5702,-1.925 -2.1141,-7.1 -3.4308,-11.5 -1.3167,-4.4 -2.954,-11.0431 -3.6385,-14.7624 -0.6844,-3.7193 -1.6423,-7.0084 -2.1288,-7.309 -0.4864,-0.3007 -0.8844,-1.59 -0.8844,-2.8652 0,-1.2752 -0.675,-2.8787 -1.5,-3.5634 -0.825,-0.6847 -1.5,-2.0291 -1.5,-2.9876 0,-0.9585 -0.8425,-2.8159 -1.8722,-4.1275 -1.0297,-1.3117 -2.2023,-4.4099 -2.6058,-6.8849 -0.4034,-2.475 -1.5859,-5.9031 -2.6277,-7.618 -1.0419,-1.715 -1.8943,-3.7683 -1.8943,-4.5629 0,-0.7947 -1.3902,-2.7666 -3.0893,-4.382 -12.1716,-11.572 -1.3066,-34.8726 17.5893,-37.7213 1.65,-0.2488 5.1303,-1.281 7.734,-2.2938 6.44,-2.5052 14.7969,-0.9288 18.9018,3.5655 1.8453,2.0204 3.7032,3.0125 5.6416,3.0125 2.7021,0 10.2226,8.4658 10.2226,11.5075 0,1.9269 4.1803,9.3132 6.5088,11.5008 1.3702,1.2872 2.4912,2.8495 2.4912,3.4717 0,0.6223 1.125,2.6563 2.5,4.52 1.6139,2.1875 2.5,4.7102 2.5,7.1176 0,2.5569 0.8172,4.7002 2.6001,6.819 2.4514,2.9133 2.5596,3.4945 1.8908,10.1537 -0.7093,7.0636 -0.7093,7.0636 2.1499,6.7367 2.5091,-0.287 2.8205,-0.686 2.5428,-3.2589 -0.174,-1.6126 0.3344,-4.7626 1.1297,-7 0.7953,-2.2375 2.0074,-6.7681 2.6937,-10.0681 0.6862,-3.3 1.892,-8.475 2.6794,-11.5 0.7874,-3.025 1.9872,-8.0066 2.6661,-11.0701 0.6789,-3.0636 2.2222,-6.6304 3.4295,-7.9263 1.2073,-1.2959 2.4751,-3.2382 2.8172,-4.3162 0.3422,-1.078 2.1473,-3.9581 4.0114,-6.4003 1.8642,-2.4422 3.3894,-4.9232 3.3894,-5.5134 0,-1.0632 9.6124,-10.7737 10.6649,-10.7737 0.301,0 2.187,-1.2901 4.1912,-2.8669 11.9221,-9.38 38.9589,-10.0727 45.0159,-1.1534 0.9005,1.3261 2.4805,2.0203 4.5981,2.0203 2.7857,0 3.4675,0.5353 4.9941,3.9206 0.9723,2.1563 2.7282,4.7667 3.9019,5.8008 1.1736,1.0341 3.5154,3.4682 5.2038,5.4091 4.3558,5.007 4.9028,5.1792 9.3101,2.9307 7.8755,-4.0178 32.9699,-3.0259 44.4141,1.7555 1.5368,0.642 4.0118,1.4453 5.5,1.785 1.4882,0.3397 4.6341,1.2433 6.9908,2.008 10.9903,3.5659 13.1937,-2.5196 7.2811,-20.1097 -1.1093,-3.3 -2.0438,-8.025 -2.0768,-10.5 -0.033,-2.475 -0.7032,-5.625 -1.4892,-7 -0.786,-1.375 -1.4451,-3.5107 -1.4646,-4.746 -0.02,-1.2353 -0.9092,-4.8353 -1.9771,-8 -1.068,-3.1647 -2.2452,-8.454 -2.616,-11.754 -0.3709,-3.3 -1.4918,-7.575 -2.4909,-9.5 -1.0302,-1.985 -2.0146,-6.53 -2.274,-10.5 -0.3137,-4.799 -1.5926,-9.9355 -4.0675,-16.3358 -1.9854,-5.1347 -3.6099,-10.6556 -3.6099,-12.2688 0,-1.6131 -1.125,-6.153 -2.5,-10.0885 -1.375,-3.9356 -2.4942,-8.5396 -2.4872,-10.2312 0.014,-3.4011 -1.9777,-13.102 -5.662,-27.5757 -1.3301,-5.225 -3.276,-12.875 -4.3243,-17 -1.0484,-4.125 -2.1922,-8.85 -2.5418,-10.5 -0.3496,-1.65 -1.9517,-5.7643 -3.5602,-9.143 -1.6085,-3.3786 -2.9245,-7.0214 -2.9245,-8.095 0,-1.0736 -0.9,-2.7665 -2,-3.762 -1.1,-0.9955 -2,-2.7868 -2,-3.9807 0,-1.1939 -1.1119,-3.2153 -2.471,-4.492 -1.359,-1.2768 -2.9927,-3.9427 -3.6303,-5.9244 -0.6376,-1.9816 -1.603,-4.162 -2.1452,-4.8453 -4.0229,-5.07 7.0342,-23.0414 15.6092,-25.37 1.2403,-0.3369 3.9412,-1.4125 6.0019,-2.3904 11.5082,-5.461 42.6354,8.6801 42.6354,19.3693 0,3.0991 4.768,9.1335 7.2168,9.1335 2.1216,0 4.1312,2.6508 3.4182,4.5089 -0.3238,0.8438 0.2862,3.7541 1.3556,6.4672 1.0694,2.7132 2.2363,7.991 2.593,11.7285 0.3568,3.7374 1.2714,7.7921 2.0325,9.0102 0.7612,1.2182 1.3839,3.0679 1.3839,4.1105 0,1.0426 1.125,3.5534 2.5,5.5796 1.375,2.0261 2.5,4.5798 2.5,5.6747 0,1.0949 0.6372,2.9874 1.4161,4.2056 0.7788,1.2181 1.7178,5.8148 2.0865,10.2148 0.6846,8.1679 0.8634,9.0042 4.4396,20.771 1.1318,3.724 2.0608,7.999 2.0644,9.5 0,1.5009 0.9006,4.079 1.9934,5.729 1.1377,1.7178 1.9947,4.7095 2.0053,7 0.01,2.2 0.7202,6.475 1.578,9.5 0.8577,3.025 2.9033,11.575 4.5458,19 1.6424,7.425 3.8956,16.65 5.0071,20.5 1.1114,3.85 2.5479,9.475 3.1923,12.5 0.6443,3.025 1.6215,6.175 2.1715,7 0.55,0.825 1.0741,3.3 1.1646,5.5 0.09,2.2 0.6549,6.7 1.2542,10 1.9958,10.9902 2.8747,15.9446 3.9914,22.5 3.8108,22.3711 3.8924,22.4306 27.5898,20.1311 6.6,-0.6404 19.084,-1.3683 27.7423,-1.6176 14.758,-0.4248 21.6656,-1.5035 29.9489,-4.6765 2.91,-1.1147 8.9973,0.283 11.8088,2.7115 0.825,0.7126 2.85,1.5923 4.5,1.9549 1.65,0.3625 4.125,1.0653 5.5,1.5616 1.375,0.4964 12.85,1.3138 25.5,1.8165 23.5724,0.9367 24.5692,1.109 35,6.0486 2.2,1.0419 7.0215,3.3041 10.7144,5.0272 6.5694,3.0653 10.9736,7.1435 13.8855,12.8578 1.6679,3.273 7.8185,12.4921 8.7958,13.1841 0.389,0.2755 2.2229,2.6383 4.0753,5.2508 1.8524,2.6125 3.8796,4.75 4.5049,4.75 0.6252,0 3.7323,2.8842 6.9046,6.4094 3.1722,3.5251 7.0242,6.9298 8.5599,7.5659 1.5357,0.6361 3.4149,2.3551 4.1759,3.82 1.7387,3.3469 11.7653,13.5775 14.2214,14.5109 1.0108,0.3841 2.3474,2.0485 2.9702,3.6986 0.6229,1.6501 1.9454,3.2582 2.9389,3.5735 0.9936,0.3154 2.5064,1.6416 3.3618,2.9471 0.8555,1.3056 3.0935,3.2813 4.9734,4.3905 2.7868,1.6442 3.4182,2.6231 3.419,5.3004 9e-4,2.7279 1.1184,4.3756 6.6026,9.735 3.6309,3.5481 7.7903,8.0481 9.2431,10 1.4528,1.9518 3.3191,3.9668 4.1474,4.4778 0.8282,0.511 2.7843,2.2899 4.3469,3.9531 1.5625,1.6632 3.8125,3.5064 5,4.096 1.1874,0.5895 2.3049,2.0888 2.4831,3.3317 0.1871,1.3043 1.9842,3.3584 4.25,4.8578 2.1593,1.429 3.9925,3.1008 4.074,3.7152 0.081,0.6144 0.1939,1.8284 0.25,2.6978 0.056,0.8693 2.3519,3.5169 5.1019,5.8835 2.75,2.3666 5.5709,5.3564 6.2688,6.6442 0.6978,1.2877 2.1603,2.8185 3.25,3.4016 1.0896,0.5832 1.9812,1.5042 1.9812,2.0466 0,1.8718 5.2695,8.9434 6.6643,8.9434 0.7691,0 1.7006,0.7875 2.0698,1.75 1.087,2.8333 5.8784,9.5575 8.675,12.1743 1.425,1.3334 2.5909,2.9935 2.5909,3.6892 0,0.6957 1.8,3.3446 4,5.8865 2.2,2.5419 4,5.2589 4,6.0378 0,0.7788 1.1075,2.1417 2.461,3.0286 1.3536,0.8869 2.7553,2.5848 3.1149,3.7731 0.3597,1.1883 1.4808,3.0666 2.4913,4.1741 1.0105,1.1076 2.5399,3.6951 3.3985,5.75 0.8586,2.055 1.9721,3.7364 2.4743,3.7364 1.6351,0 7.06,10.659 7.06,13.8717 0,1.7206 0.444,3.1283 0.9866,3.1283 0.5426,0 1.6708,1.4625 2.507,3.25 0.8362,1.7875 3.2586,5.6054 5.3831,8.4842 2.1505,2.9142 4.1353,6.9395 4.4778,9.0813 0.3384,2.1159 1.522,4.6677 2.6303,5.6708 1.2905,1.1679 2.0152,3.0849 2.0152,5.3308 0,3.3281 4.2329,12.1829 5.8238,12.1829 0.4068,0 1.3427,2.1375 2.0799,4.75 0.7372,2.6125 2.3762,7.9 3.6422,11.75 1.2661,3.85 2.8064,9.7 3.4231,13 0.6166,3.3 1.7358,7.8 2.4871,10 4.6336,13.5682 7.7811,36.4855 7.5537,55 -0.2829,23.0332 -0.9088,39.7829 -1.5441,41.3177 -0.8027,1.9397 -1.5619,4.5974 -4.4794,15.6823 -1.158,4.4 -2.7016,10.25 -3.4302,13 -0.7285,2.75 -2.0936,7.025 -3.0334,9.5 -0.9399,2.475 -2.3454,6.75 -3.1233,9.5 -0.7779,2.75 -1.8611,5.15 -2.4069,5.3333 -0.5459,0.1834 -0.9925,0.7934 -0.9925,1.3557 0,0.5622 -1.1253,2.3596 -2.5006,3.994 -1.3753,1.6345 -2.7807,4.7242 -3.1232,6.8661 -0.4012,2.5088 -1.2646,4.0981 -2.4269,4.467 -0.9922,0.3149 -2.8492,2.2219 -4.1267,4.2378 -1.2774,2.0158 -3.2226,5.1021 -4.3226,6.8585 -3.3689,5.379 -10.5472,14.649 -15.013,19.3876 -2.3325,2.475 -4.5061,5.6427 -4.8302,7.0394 -0.8455,3.6441 -5.8209,7.8914 -14.504,12.3816 -1.5357,0.7941 -4.835,3.4578 -7.3318,5.9194 -2.4969,2.4615 -6.38,5.4143 -8.6291,6.5617 -2.2491,1.1474 -5.1857,3.1826 -6.5256,4.5226 -1.34,1.3399 -4.27,2.93 -6.511,3.5335 -2.2411,0.6034 -6.1217,2.6597 -8.6236,4.5695 -2.502,1.9098 -5.0275,3.4723 -5.6123,3.4723 -1.2325,0 -9.3148,4.5374 -12.8043,7.1883 -1.3116,0.9964 -3.6476,1.8117 -5.1909,1.8117 -1.5434,0 -3.0476,0.3907 -3.3427,0.8682 -0.2952,0.4775 -2.7005,1.1552 -5.3452,1.5061 -2.6448,0.3508 -5.6959,1.2593 -6.7804,2.0189 -1.0845,0.7596 -4.2182,1.6091 -6.9638,1.8878 -2.7457,0.2787 -11.0671,1.5215 -18.4921,2.7619 -15.2601,2.5492 -48.9893,3.4075 -74.4644,1.8948 z m -30.8918,-417.4007 c 4.5956,-3.2189 6.2834,-46.2554 2.6879,-68.537 -0.8432,-5.225 -2.1295,-13.55 -2.8584,-18.5 -1.5592,-10.5878 -3.1462,-17.0413 -5.0411,-20.5 -0.7533,-1.375 -2.9741,-5.7209 -4.9351,-9.6575 -4.7963,-9.6284 -10.4166,-14.3425 -17.0998,-14.3425 -4.7061,0 -16.104,2.5969 -17.7407,4.0421 -1.3242,1.1692 -1.7112,17.8189 -0.5685,24.4579 0.5681,3.3 1.6356,11.4699 2.3725,18.1554 1.0248,9.2982 1.8314,12.8241 3.4317,15 1.1506,1.5645 2.3669,5.0946 2.703,7.8446 0.3734,3.0559 1.9317,7.1972 4.0078,10.6507 1.8683,3.1079 3.3973,6.9329 3.3977,8.5 0,4.1289 5.2759,14.6454 8.3589,16.6654 1.6925,1.109 2.6403,2.6307 2.6403,4.2391 0,4.3375 4.0111,11.7494 10.1109,18.6834 4.5531,5.1756 5.3905,5.4993 8.5329,3.2984 z M 934.97764,1939.8557 c -1.92502,-0.5472 -4.21042,-1.6317 -5.07872,-2.4098 -0.8683,-0.7781 -2.1789,-1.4148 -2.9125,-1.4148 -9.0101,0 -21.1425,-17.1396 -17.1251,-24.1928 1.0361,-1.819 2.1576,-5.8313 2.4922,-8.9164 0.3347,-3.085 1.287,-7.2331 2.1163,-9.2179 0.8293,-1.9847 1.5078,-5.5581 1.5078,-7.9408 0,-2.3826 0.5386,-4.8707 1.197,-5.5291 0.6583,-0.6583 1.5424,-3.5608 1.9645,-6.45 0.4222,-2.8891 1.2335,-8.0655 1.803,-11.503 0.5695,-3.4375 1.4982,-9.0625 2.0638,-12.5 0.5656,-3.4375 1.4283,-8.275 1.9173,-10.75 0.489,-2.475 1.6186,-9 2.5102,-14.5 0.8917,-5.5 2.0539,-10.7814 2.5827,-11.7364 0.5288,-0.9551 0.9615,-4.2067 0.9615,-7.2259 0,-3.7649 0.6356,-6.5179 2.0233,-8.7635 1.74942,-2.831 1.93712,-4.2984 1.38692,-10.8397 -0.5466,-6.4998 -0.3817,-7.8202 1.1711,-9.3729 1.5308,-1.5309 1.8235,-3.6624 1.9135,-13.9345 0.077,-8.7912 0.5657,-13.277 1.7768,-16.3075 0.9188,-2.2992 2.1794,-8.3742 2.8013,-13.5 0.6218,-5.1258 1.5348,-10.0775 2.0289,-11.0039 0.494,-0.9263 0.8982,-5.0562 0.8982,-9.1776 0,-8.0139 1.426,-20.9088 2.9459,-26.6381 0.5106,-1.925 1.4479,-8.9 2.0827,-15.5 0.6348,-6.6 1.5302,-12.9 1.9898,-14 0.4595,-1.1 1.0568,-4.025 1.3272,-6.5 1.4278,-13.0692 3.8107,-31.081 4.6735,-35.3263 0.5395,-2.6544 0.9809,-7.3796 0.9809,-10.5004 0,-3.1207 0.7061,-8.8239 1.5692,-12.6737 0.8631,-3.8498 1.962,-10.3746 2.442,-14.4996 2.122,-18.2344 3.0503,-26.9695 3.56,-33.5 0.3005,-3.85 1.1594,-9.25 1.9086,-12 0.7493,-2.75 1.6322,-10.4538 1.962,-17.1196 0.3299,-6.6658 1.2654,-14.6753 2.079,-17.7988 0.8136,-3.1236 1.4792,-7.6529 1.4792,-10.0653 0,-2.4124 0.4721,-5.6277 1.049,-7.1452 0.577,-1.5175 1.2772,-7.7056 1.5561,-13.7514 0.2789,-6.0457 0.7941,-11.4566 1.1449,-12.0242 0.3507,-0.5675 0.9749,-4.4212 1.3869,-8.5637 0.4121,-4.1425 1.4834,-14.0568 2.3807,-22.0318 0.8973,-7.975 1.8411,-18.1 2.0972,-22.5 0.2562,-4.4 1.0878,-10.9864 1.848,-14.6364 1.0371,-4.9794 1.1197,-7.6706 0.3308,-10.7788 -0.857,-3.3762 -0.7678,-4.4607 0.4821,-5.8636 0.9353,-1.0498 1.8135,-4.8419 2.2512,-9.7212 0.3948,-4.4 1.1341,-8.7979 1.643,-9.7732 0.5089,-0.9752 0.9169,-7.0179 0.9066,-13.4282 -0.01,-6.4103 0.3916,-14.6123 0.8931,-18.2268 1.3452,-9.6961 3.1763,-29.4292 3.5791,-38.5718 0.1938,-4.4 0.8988,-12.275 1.5666,-17.5 0.6678,-5.225 1.347,-14.9 1.5093,-21.5 0.3344,-13.5974 1.92926,-38.8943 3.43616,-54.5 0.5576,-5.775 1.2021,-17.925 1.4322,-27 0.2302,-9.075 0.8983,-22.8 1.4847,-30.5 1.7093,-22.4432 2.2108,-55.5587 0.8903,-58.7853 -0.9259,-2.2624 -0.8096,-3.5178 0.6192,-6.6864 1.3825,-3.0658 1.6025,-5.1457 1.0273,-9.7147 -0.9859,-7.8323 -0.7493,-26.1024 0.4573,-35.3137 0.7898,-6.0286 2.1904,-61.15091 2.4521,-96.50001 0.1189,-16.0627 -1.3952,-45.80821 -2.5079,-49.27076 -0.6591,-2.05109 -1.3458,-4.29176 -1.5258,-4.97926 -0.7113,-2.71544 -7.39016,0.11658 -7.39016,3.13361 0,1.35317 -8.068,12.61639 -9.0373,12.61639 -0.5295,0 -0.9627,0.93002 -0.9627,2.06672 0,1.1367 -1.1515,3.5765 -2.559,5.4218 -1.4074,1.8452 -2.9754,4.8631 -3.4843,6.7063 -0.509,1.8432 -2.9929,6.4909 -5.5198,10.3282 -2.527,3.8373 -5.5205,9.002 -6.6522,11.477 -1.1318,2.475 -3.3463,6.065 -4.9212,7.9778 -1.5749,1.9128 -2.8635,3.9903 -2.8635,4.6167 0,2.0001 -4.2331,11.4055 -5.1333,11.4055 -0.4767,0 -0.8667,0.8449 -0.8667,1.8776 0,1.0326 -0.675,2.4377 -1.5,3.1224 -0.825,0.6847 -1.514,1.9773 -1.5312,2.8724 -0.017,0.8952 -1.1399,3.4276 -2.4949,5.6276 -1.355,2.2 -2.466,4.976 -2.4688,6.169 0,1.1929 -0.6686,3.4429 -1.4795,5 -3.1698,6.0864 -8.5267,18.34 -8.5478,19.5525 -0.012,0.7032 -0.9023,2.4035 -1.9778,3.7785 -1.0755,1.375 -1.9655,3.1137 -1.9778,3.8638 -0.012,0.7502 -0.8707,3.0002 -1.90782,5 -1.037,1.99991 -3.1347,6.72551 -4.6614,10.50141 -1.5268,3.7758 -3.7257,8.0508 -4.8865,9.5 -3.5382,4.417 -5.6004,10.0001 -7.026,19.0222 -0.7985,5.0528 -2.4314,10.6461 -3.9507,13.5322 -1.4244,2.7057 -2.5898,5.9075 -2.5898,7.1151 0,1.2076 -0.8611,3.2904 -1.9136,4.6284 -1.0524,1.338 -2.6383,4.8862 -3.524,7.8848 -0.8858,2.9987 -2.3049,7.4772 -3.1535,9.9522 -0.8487,2.475 -2.5806,8.1 -3.8488,12.5 -2.5209,8.7463 -4.2423,12.9044 -7.8658,19 -1.3078,2.2 -2.9699,7.1432 -3.6936,10.9849 -0.7237,3.8417 -2.1432,8.3417 -3.1545,10 -1.0113,1.6583 -1.8404,4.7658 -1.8425,6.9056 0,2.1397 -0.8469,5.7397 -1.8776,8 -2.1344,4.6808 -4.6853,12.5409 -5.6557,17.4269 -0.3624,1.8245 -1.2887,4.5245 -2.0585,6 -0.7698,1.4754 -1.4023,3.8828 -1.4057,5.3497 0,1.4669 -0.9564,4.8419 -2.1177,7.5 -1.1613,2.6581 -2.7412,7.4638 -3.5109,10.6794 -0.7697,3.2156 -2.0695,6.8033 -2.8885,7.9725 -0.819,1.1693 -1.4891,3.27 -1.4891,4.6683 0,1.3983 -0.8331,4.1107 -1.8514,6.0275 -2.1906,4.1237 -6.713,21.9733 -7.7238,30.4852 -0.4658,3.9226 -1.5283,7.0714 -3.0686,9.0944 -1.6814,2.2082 -2.3562,4.4059 -2.3562,7.6737 0,4.7399 -1.5958,13.7368 -3.0565,17.2319 -1.4615,3.497 -3.7174,12.6992 -5.5026,22.4461 -0.9516,5.1954 -2.565,11.8216 -3.5855,14.725 -1.0205,2.9034 -1.8554,7.445 -1.8554,10.0925 0,2.739 -0.8113,6.4048 -1.8824,8.5057 -1.0353,2.0307 -2.2016,6.2883 -2.5917,9.4614 -0.3902,3.1731 -1.2747,6.4443 -1.9656,7.2693 -1.3281,1.5859 -2.1047,4.4159 -5.6252,20.5 -1.2039,5.5 -3.4263,14.1261 -4.9388,19.169 -1.5124,5.043 -2.5355,10.2907 -2.2734,11.6615 0.3435,1.7972 -0.093,2.797 -1.5637,3.5843 -1.3756,0.7362 -2.8633,3.7781 -4.5669,9.3385 -1.3898,4.5357 -3.4415,10.0293 -4.5595,12.2081 -1.1181,2.1788 -2.0328,4.7282 -2.0328,5.6653 0,0.9371 -1.35,2.978 -3,4.5353 -1.65,1.5573 -3.0082,3.508 -3.0182,4.3348 -0.01,0.8267 -1.36,3.4834 -3,5.9037 -1.64,2.4202 -2.9818,5.0807 -2.9818,5.9121 0,5.9754 -10.2822,16.1564 -16.4111,16.2495 -2.2489,0.034 -9.9277,0.2167 -17.0639,0.4055 -11.2226,0.2971 -13.4796,0.086 -16.7102,-1.5621 -2.0543,-1.048 -4.1899,-1.9055 -4.7457,-1.9055 -3.3093,0 -10.4309,-6.8762 -13.1619,-12.7083 -3.4488,-7.3649 -3.5093,-8.6535 -0.9142,-19.4784 1.0961,-4.5723 1.9961,-10.9304 2,-14.129 0,-3.1987 0.5479,-6.7987 1.2091,-8 0.7222,-1.3124 1.4634,-9.1697 1.8569,-19.6843 0.3602,-9.625 1.1416,-19.975 1.7364,-23 3.9373,-20.0236 4.2936,-23.1118 3.0601,-26.523 -1.0303,-2.8492 -0.9593,-3.8989 0.4517,-6.6788 2.1248,-4.1861 3.8388,-16.4393 4.0982,-29.2982 0.2265,-11.2263 2.122,-27.2099 3.8543,-32.5 0.6304,-1.925 1.2205,-7.325 1.3114,-12 0.091,-4.675 0.7086,-10.75 1.3725,-13.5 1.4458,-5.988 3.7015,-29.0115 4.6047,-47 0.5773,-11.4972 3.5812,-31.2825 5.13,-33.7885 0.31,-0.5016 0.557,-10.2044 0.5489,-21.5618 -0.01,-13.4088 0.4291,-22.403 1.2513,-25.6497 0.6964,-2.75 1.345,-9.05 1.4414,-14 0.096,-4.95 0.6261,-13.05 1.1773,-18 2.3718,-21.3008 4.2795,-65.2725 2.9268,-67.4613 -1.7117,-2.7695 -8.024,7.1297 -8.024,12.5836 0,1.4788 -1.0804,4.1054 -2.401,5.8367 -1.3205,1.7314 -2.9719,5.1488 -3.6699,7.5944 -0.6979,2.4456 -2.0461,5.3466 -2.996,6.4466 -0.9499,1.1 -2.5126,5.375 -3.4727,9.5 -0.9601,4.125 -2.6939,9.075 -3.853,11 -1.1591,1.925 -2.6202,5.3 -3.247,7.5 -1.5082,5.2941 -7.2397,18.7992 -8.2631,19.4703 -0.4442,0.2914 -1.3354,4.1197 -1.9803,8.5075 -0.6449,4.3878 -1.6101,8.4153 -2.1448,8.95 -0.5347,0.5347 -0.9722,1.6002 -0.9722,2.3678 0,0.7676 -0.8383,2.5901 -1.8629,4.05 -1.0246,1.4599 -2.6062,6.0338 -3.5148,10.1641 -0.9085,4.1303 -2.5451,8.9787 -3.637,10.7741 -1.0919,1.7955 -1.9853,4.107 -1.9853,5.1368 0,1.0297 -1.3534,5.1813 -3.0076,9.2258 -1.6541,4.0445 -3.4492,10.0814 -3.9891,13.4155 -1.0593,6.5417 -3.224,13.3401 -7.3741,23.158 -1.4461,3.4209 -2.6292,7.4833 -2.6292,9.0275 0,1.5442 -0.7134,3.8261 -1.5854,5.071 -0.8719,1.2449 -2.4047,5.5075 -3.4061,9.4725 -1.0015,3.965 -3.1683,11.0341 -4.8151,15.7091 -1.6469,4.675 -3.5303,11.2 -4.1854,14.5 -0.6551,3.3 -1.8249,6.9967 -2.5996,8.2148 -0.7746,1.2182 -1.4084,3.274 -1.4084,4.5685 0,1.2945 -0.7131,4.7551 -1.5848,7.6902 -0.8716,2.935 -1.9609,7.4042 -2.4208,9.9315 -0.4598,2.5272 -1.9983,8.7579 -3.4189,13.8459 -1.4206,5.088 -3.5063,14.988 -4.635,22 -1.1287,7.012 -2.968,14.6632 -4.0873,17.0026 -2.3444,4.9001 -2.6952,16.4457 -0.9646,31.7465 0.5599,4.95 1.2957,14.85 1.635,22 0.3394,7.15 0.8798,13.9 1.201,15 0.3211,1.1 0.515,6.4652 0.4308,11.9226 -0.1201,7.7902 0.186,10.2971 1.4243,11.6655 1.7444,1.9275 2.1122,16.8145 0.8625,34.9119 -0.3608,5.225 -0.7831,24.125 -0.9384,42 -0.1554,17.875 -0.8004,45.55 -1.4334,61.5 -0.633,15.95 -1.3602,38.8216 -1.616,50.8257 -0.2558,12.0041 -0.8901,22.6198 -1.4096,23.5905 -0.5195,0.9707 -0.9257,10.564 -0.9027,21.3183 0.024,11.359 -0.3821,20.3455 -0.9698,21.4436 -0.5564,1.0396 -1.2924,7.9498 -1.6355,15.356 -0.3431,7.4063 -0.8166,14.1409 -1.0521,14.9659 -0.7903,2.7682 -3.5823,38.3643 -4.031,51.3916 -0.2441,7.0905 -0.93,13.4774 -1.524,14.1932 -0.7079,0.8529 -0.8753,4.8026 -0.4858,11.4594 0.5315,9.0842 0.3794,10.5056 -1.4384,13.4469 -1.118,1.809 -2.4472,6.376 -2.9537,10.149 -0.5065,3.7729 -1.4691,8.4349 -2.139,10.3599 -0.67,1.925 -1.5661,7.325 -1.9914,12 -0.4253,4.675 -1.2398,10.75 -1.8101,13.5 -0.5702,2.75 -1.7876,8.6 -2.7052,13 -0.9176,4.4 -2.7344,10.2565 -4.0372,13.0144 -1.3029,2.7578 -2.3886,6.3578 -2.4128,8 -0.024,1.6421 -0.6924,4.7856 -1.4849,6.9856 -0.7926,2.2 -1.4476,4.9 -1.4555,6 -0.017,2.3997 -6.8155,16.151 -9.2129,18.6355 -0.9335,0.9675 -2.1887,3.5839 -2.7893,5.8144 -1.2837,4.7672 -3.7692,6.5875 -10.2402,7.4995 -2.5997,0.3664 -4.9887,1.0902 -5.309,1.6084 -1.9043,3.0811 -30.1936,0.2841 -34.3168,-3.393 -6.5881,-5.8754 -9.1475,-8.6682 -9.1475,-9.9819 0,-0.8344 -0.9379,-3.6919 -2.0843,-6.35 -1.2842,-2.9777 -2.1944,-7.52 -2.3712,-11.8329 -0.1578,-3.85 -1.0502,-9.025 -1.983,-11.5 -0.9329,-2.475 -2.2895,-7.65 -3.0148,-11.5 -0.7252,-3.85 -2.0105,-9.475 -2.8562,-12.5 -0.8457,-3.025 -1.8403,-8.2 -2.2104,-11.5 -0.3701,-3.3 -1.0246,-6.45 -1.4546,-7 -0.43,-0.55 -1.1072,-9.098 -1.5049,-18.9955 -0.4776,-11.8858 -1.1831,-18.8849 -2.0779,-20.6153 -1.0071,-1.9475 -1.3531,-7.7224 -1.3485,-22.5045 0,-10.9366 -0.046,-23.7097 -0.1101,-28.3847 -0.064,-4.675 0.3884,-13.225 1.0054,-19 0.617,-5.775 1.3419,-21.0382 1.611,-33.9181 0.2691,-12.88 0.8066,-23.905 1.1944,-24.5 0.3878,-0.5951 1.0179,-6.7069 1.4001,-13.5819 2.1764,-39.1424 3.0455,-50.534 3.878,-50.8333 0.5098,-0.1834 0.927,-2.5755 0.927,-5.3158 0,-2.7403 0.493,-5.9036 1.0957,-7.0296 1.1637,-2.1745 2.6623,-13.5047 3.746,-28.3213 0.4596,-6.2837 1.2216,-9.8306 2.5246,-11.752 1.5675,-2.3114 1.7542,-3.7983 1.1662,-9.289 -0.782,-7.3021 0.826,-19.2381 3.2226,-23.9215 0.8338,-1.6293 1.9152,-7.7043 2.4031,-13.5 2.1818,-25.9166 2.61,-29.683 3.6424,-32.0375 1.1445,-2.6102 4.1994,-22.7709 4.1994,-27.714 0,-1.5676 0.6879,-5.3107 1.5286,-8.3181 1.3293,-4.7552 3.0366,-14.1851 5.1539,-28.4679 0.3262,-2.2 1.206,-5.2152 1.9553,-6.7003 0.7492,-1.4852 1.3622,-4.5407 1.3622,-6.7899 0,-2.2492 0.8298,-5.759 1.844,-7.7996 1.0141,-2.0406 2.6155,-9.3352 3.5585,-16.2102 1.2999,-9.4762 2.2805,-13.3467 4.054,-16 2.6372,-3.9454 5.3825,-24.2931 4.0838,-30.2683 -0.3863,-1.7774 -1.0797,-7.2817 -1.5408,-12.2317 -0.4612,-4.95 -1.7926,-13.275 -2.9587,-18.5 -1.1662,-5.225 -2.567,-12.425 -3.1131,-16 -0.546,-3.575 -1.6398,-8.75 -2.4306,-11.5 -0.7907,-2.75 -1.9568,-9.0383 -2.5911,-13.974 -0.6344,-4.9357 -1.85,-10.0371 -2.7014,-11.3364 -0.8513,-1.2994 -1.8675,-4.2361 -2.2581,-6.5261 -0.9176,-5.3799 -5.7108,-23.5691 -6.8946,-26.1635 -0.5019,-1.1 -1.4312,-3.8 -2.0651,-6 -0.6339,-2.2 -1.9887,-5.8 -3.0107,-8 -1.022,-2.2 -2.8638,-6.7 -4.0929,-10 -2.0035,-5.3794 -5.8566,-13.9816 -13.6618,-30.5 -2.46,-5.2062 -5.3648,-9.3251 -10.5785,-15 -1.2633,-1.375 -3.1181,-4.4125 -4.1218,-6.75 -1.0036,-2.3375 -2.1021,-4.25 -2.441,-4.25 -0.339,0 -3.5331,-2.7458 -7.0982,-6.1018 -3.565,-3.356 -7.841,-6.6939 -9.5022,-7.4175 -1.6612,-0.7236 -3.9112,-2.3165 -5,-3.5399 -4.035,-4.5335 -16.2926,-8.6705 -17.9146,-6.0462 -1.8787,3.0399 -32.913,-0.87 -38.5037,-4.8509 -1.5786,-1.124 -3.5692,-2.0437 -4.4237,-2.0437 -4.7308,0 -13.6377,-14.6355 -13.6377,-22.409 0,-2.2437 5.9392,-10.591 7.5357,-10.591 0.7667,0 1.8756,-0.9 2.4643,-2 0.5887,-1.1 1.8898,-2 2.8914,-2 1.0015,0 3.7982,-1.5038 6.2148,-3.3417 7.0317,-5.3481 8.0045,-5.6123 23.0647,-6.2654 20.7329,-0.899 44.6286,4.7037 59.7781,14.016 1.9531,1.2006 6.6162,3.731 10.3626,5.6233 3.7639,1.9011 7.9253,4.9007 9.3009,6.7041 1.3691,1.795 3.0289,3.2641 3.6884,3.2646 1.4686,0 8.1181,6.8361 8.9981,9.2491 0.351,0.9625 1.4826,1.75 2.5146,1.75 1.0321,0 2.6909,0.9 3.6864,2 0.9955,1.1 2.4249,2 3.1764,2 0.7516,0 1.9166,1.2375 2.5889,2.75 0.6723,1.5125 2.7132,4.3078 4.5353,6.2118 1.8221,1.9041 5.0594,6.0205 7.1941,9.1478 2.1346,3.1272 5.8216,7.6921 8.1932,10.1441 2.3717,2.452 5.7305,7.3356 7.4642,10.8523 7.068,14.3378 9.3487,19.4758 9.3483,21.0607 -2e-4,0.9166 0.4541,1.8181 1.0095,2.0033 0.5555,0.1851 1.2182,1.4183 1.4728,2.7403 0.2546,1.3221 1.6002,4.0448 2.9901,6.0505 1.39,2.0057 2.5272,4.2103 2.5272,4.899 0,1.3913 5.5303,12.8693 7.1285,14.7951 1.8395,2.2164 3.8059,0.2364 5.4664,-5.5043 0.8989,-3.1078 2.0328,-6.6843 2.5197,-7.9477 0.487,-1.2633 0.8854,-4.0087 0.8854,-6.1007 0,-4.0829 1.6003,-9.7349 3.3951,-11.9912 0.6077,-0.7639 1.8556,-4.1389 2.7732,-7.5 3.7089,-13.5859 5.4329,-18.2929 7.5133,-20.513 1.1998,-1.2805 2.4905,-4.1889 2.8682,-6.4631 0.3777,-2.2742 1.3085,-5.3501 2.0685,-6.8352 0.7599,-1.4852 1.3817,-4.1562 1.3817,-5.9356 0,-1.9587 0.8696,-4.1609 2.204,-5.5812 1.5999,-1.7031 2.2475,-3.7187 2.3629,-7.3541 0.1137,-3.5848 0.7662,-5.6545 2.296,-7.2829 1.1754,-1.2511 2.1371,-3.0512 2.1371,-4.0002 0,-0.949 0.9,-3.4895 2,-5.6457 1.1,-2.1562 2,-4.411 2,-5.0108 0,-0.5997 1.3965,-4.7801 3.1033,-9.2898 4.6412,-12.263 6.006,-15.6621 8.7122,-21.6994 3.5609,-7.944 6.2124,-14.9191 7.4127,-19.5001 0.5765,-2.2 1.436,-4.4275 1.91,-4.95 0.474,-0.5225 0.8618,-1.9243 0.8618,-3.1151 0,-1.1909 0.8414,-3.2384 1.8697,-4.55 1.0283,-1.3117 2.2086,-3.9599 2.6228,-5.8849 0.4142,-1.925 2.7839,-7.325 5.266,-12 2.4821,-4.67501 4.8849,-9.62501 5.3394,-11.00001 2.7359,-8.2755 4.7801,-13.218 6.1016,-14.7523 0.8279,-0.9612 2.3542,-3.3227 3.3918,-5.2477 1.0376,-1.925 2.4126,-4.175 3.0556,-5 0.643,-0.825 3.0574,-5.098 5.3653,-9.4955 2.308,-4.3975 5.8841,-9.5725 7.947,-11.5 2.0628,-1.9275 4.5102,-5.1883 5.4387,-7.2462 1.0796,-2.393 2.5769,-3.9649 4.1538,-4.3607 1.4503,-0.364 2.7052,-1.5729 3.0472,-2.9357 0.3723,-1.4834 1.9414,-2.8611 4.3613,-3.8293 2.0788,-0.8318 4.0219,-2.1436 4.3179,-2.9151 0.6527,-1.7008 17.4531,-7.7175 21.5496,-7.7175 1.6101,0 3.4876,-0.675 4.1723,-1.5 3.6666,-4.4179 28.3761,3.1055 30.4655,9.276 0.3211,0.9482 2.5498,3.2023 4.9527,5.0091 7.6197,5.7293 13.8398,28.9035 13.8808,51.7149 0.058,32.18701 -1.1672,87.17641 -2.0161,90.50011 -0.4917,1.925 -0.5511,5.3 -0.132,7.5 0.4191,2.2 0.7816,8.8516 0.8056,14.7814 0.034,8.3679 0.3618,10.9035 1.4654,11.327 2.2918,0.8794 5.2989,-1.3303 5.8932,-4.3307 0.3027,-1.5277 1.3,-5.2527 2.2163,-8.2777 0.9163,-3.025 1.904,-6.625 2.1948,-8 0.2908,-1.375 1.3835,-3.4419 2.4282,-4.5931 1.0447,-1.1512 2.3002,-4.5262 2.7902,-7.5 1.0325,-6.2673 2.6556,-10.9069 3.8156,-10.9069 0.4453,0 1.2938,-2.3625 1.8856,-5.25 2.0585,-10.0453 4.6739,-19.2595 5.8896,-20.7501 2.3983,-2.9404 4.4646,-7.9461 4.4646,-10.8155 0,-1.6031 0.8381,-3.988 1.8624,-5.2996 1.0244,-1.3117 2.1668,-3.3568 2.5388,-4.5446 0.3719,-1.1878 1.3338,-2.7054 2.1375,-3.3724 0.8037,-0.6671 1.4613,-2.0593 1.4613,-3.094 0,-1.0346 0.9,-3.5604 2,-5.6127 1.1,-2.05241 2,-4.77541 2,-6.05121 0,-1.2757 1.8186,-5.3324 4.0412,-9.0148 2.2227,-3.6823 4.2729,-7.8202 4.5561,-9.1952 0.2831,-1.375 1.3896,-4.4245 2.4587,-6.7768 1.0692,-2.3522 1.944,-5.0602 1.944,-6.0178 0,-0.9576 1.1397,-3.4184 2.5327,-5.4684 1.3931,-2.05 4.2695,-7.9793 6.3922,-13.1763 2.1227,-5.197 4.808,-10.7812 5.9673,-12.4093 1.1593,-1.6281 2.1078,-3.4711 2.1078,-4.0956 0,-2.0283 4.2376,-9.5205 6.1439,-10.8625 1.0607,-0.7467 1.8561,-2.5157 1.8561,-4.1276 0,-1.5515 0.6188,-3.3344 1.3752,-3.9622 0.7564,-0.6277 1.6573,-2.8203 2.002,-4.8724 0.5286,-3.1468 4.0928,-9.7295 7.4684,-13.7933 0.4853,-0.5841 1.6916,-2.8341 2.6808,-5 0.9892,-2.16578 2.8897,-5.4217 4.2232,-7.23534 1.3336,-1.81364 4.1731,-6.98864 6.31,-11.5 2.137,-4.51136 5.6649,-10.09898 7.83992,-12.41693 5.2825,-5.62959 11.0972,-13.30963 11.1142,-14.67935 0.016,-1.27261 15.1629,-17.6062 16.3274,-17.6062 0.4244,0 2.929,-2.25 5.5656,-5 3.4077,-3.55414 5.5659,-5 7.4635,-5 1.4683,0 4.4517,-1.125 6.6298,-2.5 2.1781,-1.375 4.5127,-2.5 5.188,-2.5 0.6752,0 2.8952,-1.6283 4.9333,-3.61845 5.3932,-5.26628 29.91356,-7.93891 35.31986,-3.84975 1.0677,0.80751 3.0232,1.4682 4.3457,1.4682 1.3224,0 3.5989,0.84124 5.0588,1.86942 1.4599,1.02817 4.5182,2.81249 6.7962,3.96514 11.8767,6.00945 23.5557,26.38016 26.7626,46.67956 0.8676,5.49224 2.0308,12.68588 2.5848,15.98588 3.555,21.17542 5.2555,48.55122 5.2488,84.50002 0,10.3686 0.012,14.0925 0.063,17 0.1647,9.4271 -1.4307,75.48571 -2.0287,84.00011 -0.719,10.2363 -0.7537,14.4534 -0.311,37.7919 0.1581,8.3334 -0.1568,11.8705 -1.2019,13.5 -1.1132,1.7358 -1.3258,5.4166 -0.9937,17.2081 0.5424,19.2631 0.5834,17.3012 -0.7624,36.5 -0.6362,9.075 -1.2418,24.15 -1.3458,33.5 -0.1041,9.35 -0.632,17.675 -1.1732,18.5 -0.5411,0.825 -1.0583,4.425 -1.1493,8 -0.1547,6.0765 -1.1141,16.0308 -3.1223,32.3953 -0.4836,3.9411 -0.457,9.4662 0.062,12.8962 0.6724,4.4429 0.4951,8.4465 -0.6831,15.42 -0.8752,5.1804 -1.5913,12.562 -1.5913,16.4034 0,4.0515 -0.5916,8.1284 -1.4088,9.7087 -1.0332,1.998 -1.482,7.7832 -1.6834,21.7003 -0.2188,15.1262 -0.6526,20.1934 -2.1378,24.9761 -1.3402,4.3156 -2.0026,10.3514 -2.3596,21.5 -0.2729,8.525 -1.1519,19.1351 -1.9533,23.5779 -0.8014,4.4429 -1.4714,9.8429 -1.4889,12 -0.017,2.1572 -0.5973,4.6654 -1.2884,5.5738 -0.8145,1.0707 -1.3441,5.974 -1.5054,13.9383 -0.1369,6.7577 -0.6375,14.0159 -1.1124,16.1294 -0.4748,2.1135 -0.6325,5.5639 -0.3503,7.6675 0.2821,2.1036 -0.018,4.8163 -0.6662,6.0281 -0.6485,1.2118 -1.6156,6.3391 -2.1491,11.3941 -1.4845,14.0663 -2.731,25.025 -4.3442,38.1909 -0.8087,6.6 -1.7193,16.4605 -2.0235,21.9123 -0.3123,5.5969 -1.092,10.5618 -1.7909,11.4043 -0.6808,0.8206 -1.3325,4.6851 -1.4483,8.5877 -0.2864,9.6511 -1.7019,20.5026 -3.119,23.9108 -0.6438,1.5483 -1.1705,5.4793 -1.1705,8.7356 0,3.2564 -0.4447,7.8396 -0.9883,10.1849 -1.2152,5.2437 -4.0117,31.8936 -4.0117,38.2311 0,2.548 -0.7634,6.0728 -1.6965,7.833 -1.2122,2.2866 -1.7924,6.295 -2.0324,14.0395 -0.1848,5.9616 -1.0496,13.6116 -1.9218,17 -0.8722,3.3885 -2.24,10.8858 -3.0396,16.6608 -0.7996,5.775 -2.0663,12.75 -2.8149,15.5 -0.7486,2.75 -1.6625,11.525 -2.0308,19.5 -0.3683,7.975 -1.1496,15.4 -1.7362,16.5 -0.5866,1.1 -1.0227,4.8952 -0.9692,8.4337 0.062,4.0985 -0.421,7.1738 -1.3307,8.4725 -0.7854,1.1214 -1.4333,4.0762 -1.4399,6.5663 -0.01,2.4901 -0.6762,7.0025 -1.4881,10.0275 -0.8119,3.025 -1.4816,7.3846 -1.4881,9.6879 -0.01,2.3034 -0.6641,7.0284 -1.4613,10.5 -0.7972,3.4717 -1.7581,9.9121 -2.1354,14.3121 -0.3772,4.4 -1.3,9.2152 -2.05046,10.7003 -0.7506,1.4852 -1.3647,4.0185 -1.3647,5.6295 0,1.6111 -1.3743,8.39 -3.0541,15.0642 -1.6797,6.6743 -3.6883,17.4161 -4.4634,23.8706 -1.7908,14.9121 -2.6417,18.7444 -5.317,23.9456 -1.191,2.3156 -2.1683,5.4656 -2.1717,7 0,1.5344 -0.6711,4.0647 -1.4838,5.623 -0.8127,1.5582 -1.9768,4.7082 -2.5869,7 -0.61,2.2917 -1.7304,4.8641 -2.4898,5.7164 -0.7593,0.8524 -2.0734,3.5132 -2.9202,5.9131 -2.4392,6.9135 -7.8518,12.6791 -15.5351,16.5484 -3.7561,1.8915 -7.1142,3.9003 -7.4626,4.464 -0.7908,1.2796 -10.8275,1.1822 -15.5154,-0.1505 z m 316.16236,-73.817 c -4.5977,-1.6541 -8.2747,-3.5939 -15.1623,-7.9987 -0.825,-0.5276 -3.6441,-1.9231 -6.2647,-3.1011 -5.9794,-2.6879 -17.1202,-14.4876 -20.2124,-21.4078 -1.2288,-2.75 -3.1991,-5.8572 -4.3785,-6.905 -1.1794,-1.0477 -2.1444,-2.9337 -2.1444,-4.191 0,-1.2573 -0.4378,-2.5565 -0.9728,-2.8872 -0.5351,-0.3307 -1.4816,-2.4906 -2.1034,-4.7999 -0.6218,-2.3092 -1.8914,-5.3277 -2.8212,-6.7077 -0.9299,-1.3801 -2.2562,-4.7592 -2.9474,-7.5092 -2.6953,-10.7239 -9.1552,-10.349 -9.1552,0.5314 0,3.8791 -0.4008,5.1792 -1.75,5.677 -2.3627,0.8718 -3.2164,2.294 -3.2347,5.3886 -0.01,1.4283 -0.9602,3.6783 -2.115,5 -1.1548,1.3216 -3.6981,4.878 -5.6517,7.903 -7.4441,11.5264 -8.5282,12.9521 -11.1017,14.6 -1.4558,0.9322 -5.124,4.3285 -8.1517,7.5474 -4.5512,4.8388 -6.0755,5.8526 -8.7996,5.8526 -1.8122,0 -4.7351,0.7651 -6.4953,1.7002 -5.3225,2.8276 -29.4597,3.1722 -34.996,0.4997 -2.3123,-1.1163 -5.3293,-2.5227 -6.7043,-3.1254 -1.375,-0.6026 -3.85,-1.986 -5.5,-3.0741 -1.65,-1.0881 -3.675,-2.2944 -4.5,-2.6807 -1.6274,-0.762 -9.3529,-8.7314 -15.0789,-15.5548 -1.9684,-2.3457 -4.8543,-7.5332 -6.413,-11.5278 -1.5588,-3.9945 -3.4358,-7.7621 -4.1711,-8.3724 -0.7354,-0.6103 -1.337,-1.9606 -1.337,-3.0007 0,-1.0401 -0.4061,-2.6725 -0.9025,-3.6276 -0.4964,-0.955 -1.4761,-3.7614 -2.1771,-6.2364 -0.701,-2.475 -1.5262,-4.95 -1.8337,-5.5 -1.1299,-2.0211 -7.1836,-26.1926 -8.0871,-32.2908 -0.5126,-3.4599 -1.1766,-6.6867 -1.4757,-7.1705 -0.299,-0.4838 -0.7752,-4.4029 -1.0582,-8.7092 -0.283,-4.3062 -0.9433,-9.4045 -1.4672,-11.3295 -1.6274,-5.9794 -2.9985,-17.5508 -2.9985,-25.3051 0,-4.082 -0.4845,-9.8458 -1.0766,-12.8084 -0.5921,-2.9626 -1.2682,-12.8115 -1.5024,-21.8865 -0.2342,-9.075 -0.4664,-17.625 -0.516,-19 -0.7119,-19.7558 3.6495,-69.9886 6.2144,-71.5738 0.4843,-0.2993 0.8806,-2.3226 0.8806,-4.4961 0,-2.1736 0.8579,-5.8595 1.9066,-8.191 1.0486,-2.3315 2.2105,-6.2641 2.582,-8.7391 0.3715,-2.475 1.0213,-6.75 1.444,-9.5 0.4228,-2.75 1.9609,-7.1613 3.418,-9.8029 1.4572,-2.6416 2.6494,-5.8434 2.6494,-7.1152 0,-1.2717 0.8346,-3.3854 1.8546,-4.697 1.02,-1.3117 2.4037,-4.0689 3.075,-6.1272 0.6712,-2.0582 1.8007,-4.0832 2.5099,-4.5 0.7093,-0.4167 1.9794,-2.1088 2.8226,-3.7601 0.8432,-1.6513 2.4792,-3.8585 3.6355,-4.9049 1.1563,-1.0465 2.1024,-2.333 2.1024,-2.8589 0,-0.5259 1.8,-3.1061 4,-5.7338 2.2,-2.6277 4,-5.3836 4,-6.1243 0,-2.0807 15.9721,-16.5853 20.7907,-18.8805 2.3599,-1.124 4.5623,-2.7516 4.8944,-3.6169 0.618,-1.6105 6.3126,-4.4192 14.3149,-7.0603 2.6386,-0.8709 9.2585,-1.5985 16.0038,-1.7591 7.0355,-0.1675 13.7536,-0.9279 17.2959,-1.9577 19.6696,-5.7181 61.5502,17.5772 59.2444,32.9535 -0.6136,4.0917 0.9942,9.9728 4.5755,16.736 0.5215,0.9848 0.5957,2.3348 0.165,3 -0.4307,0.6651 -0.7926,5.4843 -0.8041,10.7093 -0.013,5.9599 -0.5113,10.3736 -1.3365,11.8443 -1.1605,2.0684 -1.0571,2.6193 0.8779,4.679 2.1074,2.2432 2.1482,2.6605 1.0426,10.6557 -1.1977,8.6607 -1.6939,60.9936 -0.5952,62.7714 0.6808,1.1015 2.0226,13.5789 3.5003,32.5496 0.5141,6.6 1.6152,14.7 2.4469,18 0.8318,3.3 1.5283,8.6054 1.5479,11.7898 0.023,3.7568 0.7379,7.1665 2.0356,9.7102 1.1,2.1562 2,4.7833 2,5.838 0,1.0548 0.7537,3.6602 1.6749,5.7899 0.9212,2.1296 2.0255,6.5721 2.454,9.8721 2.0575,15.8437 3.86,25.8889 4.8173,26.8462 0.5796,0.5796 1.0538,2.6793 1.0538,4.666 0,1.9867 0.9,5.4749 2,7.7517 1.1,2.2767 2,5.2229 2,6.547 0,1.3242 1.2867,4.8334 2.8594,7.7983 1.5727,2.965 4.302,10.1158 6.0651,15.8908 5.0621,16.5807 11.3963,31.6387 15.5643,37 0.6414,0.825 1.707,3.3962 2.368,5.7138 1.5928,5.5848 3.9309,7.1091 10.0088,6.5251 4.9323,-0.4739 9.1344,0.8978 9.1344,2.9818 0,0.6327 0.9481,2.1596 2.1069,3.3931 1.9708,2.0978 2.0031,2.3911 0.5,4.537 -0.8838,1.2618 -1.6069,3.0957 -1.6069,4.0753 0,0.9796 -0.9,3.4604 -2,5.5127 -1.1,2.0524 -2,4.7731 -2,6.046 0,2.3915 -5.8162,9.2152 -7.8546,9.2152 -0.634,0 -2.8319,0.9 -4.8842,2 -4.7936,2.5692 -12.9698,2.5723 -20.0989,0.01 z m -128.1623,-85.2724 c 0,-0.6957 0.9,-2.944 2,-4.9964 1.1403,-2.1275 2,-5.6421 2,-8.1762 0,-2.4445 0.4387,-4.7157 0.9749,-5.0471 0.5373,-0.3321 0.7192,-2.4905 0.4052,-4.809 -0.4923,-3.6346 -0.217,-4.5361 2.0251,-6.6308 2.2591,-2.1107 2.5948,-3.235 2.5948,-8.691 0,-3.4467 0.45,-6.5448 1,-6.8847 0.55,-0.3399 1,-2.7865 1,-5.4369 0,-2.6504 0.675,-6.4344 1.5,-8.4089 0.825,-1.9745 1.5028,-6.1919 1.5062,-9.3721 0,-3.251 0.6807,-7.0757 1.5471,-8.7372 0.9827,-1.8845 1.8995,-8.0434 2.5307,-17 0.5443,-7.7247 1.4422,-16.3456 1.9952,-19.1575 1.0238,-5.2052 1.8983,-18.9485 2.633,-41.3756 0.2808,-8.5724 0.8324,-12.9623 1.759,-14 1.8543,-2.0765 1.5164,-26.1169 -0.3995,-28.4254 -1.0911,-1.3147 -1.0815,-1.8716 0.056,-3.2515 1.0291,-1.2486 1.3925,-5.6879 1.4526,-17.75 0.1326,-26.5808 1.3066,-39.5846 3.8444,-42.5849 0.6979,-0.825 1.9724,-4.2 2.8324,-7.5 4.5778,-17.5672 2.9193,-20.9376 -10.257,-20.8443 -4.2844,0.03 -13.2614,2.6319 -15.4714,4.4837 -8.1031,6.7894 -16.5795,16.7093 -17.1451,20.0646 -0.3434,2.0372 -1.4702,4.4695 -2.504,5.405 -1.1625,1.0521 -1.8889,3.0724 -1.9041,5.296 -0.014,1.9772 -0.9135,6.2524 -2,9.5002 -1.0865,3.2479 -1.9754,7.941 -1.9754,10.429 0,2.4881 -0.4108,5.9058 -0.9129,7.5948 -2.471,8.3118 -3.3857,14.1731 -4.1306,26.4672 -0.4666,7.7008 -1.2745,13.6823 -1.9002,14.069 -2.3292,1.4396 -1.4182,85.551 1.0727,99.0348 0.5588,3.025 1.5459,11.35 2.1935,18.5 0.7829,8.643 1.7241,13.8379 2.8084,15.5 0.8971,1.375 1.9001,4.962 2.2291,7.9711 0.329,3.0091 1.2426,7.5091 2.0303,10 0.7876,2.4909 2.122,9.0289 2.9651,14.5289 1.6166,10.545 5.1282,20.1174 7.6446,20.8383 2.8737,0.8232 4,0.6534 4,-0.6031 z m 214.8255,68.2269 c -0.921,-0.5373 -4.4423,-1.2663 -7.8252,-1.6199 -4.0621,-0.4245 -7.2287,-1.4271 -9.3255,-2.9524 -1.7461,-1.2702 -4.7498,-3.1797 -6.6748,-4.2432 -5.2781,-2.9162 -6.7125,-5.1113 -7.2834,-11.1466 -1.8395,-19.4473 -3.9529,-36.915 -4.7668,-39.3992 -0.5224,-1.5946 -0.9547,-5.4196 -0.9606,-8.5 -0.01,-3.0805 -0.681,-7.8098 -1.5,-10.5097 -0.8191,-2.6999 -1.4892,-6.9057 -1.4892,-9.3461 0,-2.4405 -0.7178,-6.9062 -1.595,-9.9238 -0.8773,-3.0176 -1.3801,-6.3082 -1.1175,-7.3124 0.2626,-1.0042 0.059,-3.7795 -0.4533,-6.1673 -1.1078,-5.1677 -2.0791,-21.3258 -3.6873,-61.3415 -0.9274,-23.0754 -2.4968,-40.0148 -4.1598,-44.8992 -0.5429,-1.5946 -1.0067,-4.9696 -1.0307,-7.5 -0.024,-2.5305 -0.4961,-6.6258 -1.0493,-9.1008 -0.5532,-2.475 -1.4052,-7.65 -1.8934,-11.5 -0.4882,-3.85 -1.4072,-9.25 -2.0422,-12 -0.635,-2.75 -1.5406,-9.05 -2.0124,-14 -3.1556,-33.1085 -6.0192,-57.5839 -7.956,-68 -0.6136,-3.3 -1.4637,-9.2247 -1.8893,-13.1659 -0.4255,-3.9413 -1.4552,-8.2163 -2.2883,-9.5 -5.4317,-8.3698 -1.9614,-20.5134 7.5975,-26.5856 2.1577,-1.3706 5.9827,-4.4126 8.5,-6.76 6.9459,-6.477 23.1785,-7.0158 31.8411,-1.057 2.7436,1.8873 6.5645,3.7271 8.4909,4.0885 9.4182,1.7669 13.3994,11.2662 14.0316,33.48 0.227,7.9767 2.2715,10.299 5.8854,6.6851 0.7817,-0.7817 2.5253,-1.7662 3.8746,-2.1879 1.3494,-0.4216 3.341,-1.381 4.4259,-2.1319 1.0849,-0.7509 3.3053,-1.3653 4.9343,-1.3653 1.629,0 5.0163,-1.0125 7.5275,-2.25 9.5726,-4.7174 58.642,0.7825 65.5157,7.3433 0.5225,0.4987 1.489,0.9067 2.1478,0.9067 0.6588,0 4.0563,1.6942 7.55,3.765 14.9666,8.8707 20.118,9.0197 22.8763,0.6619 0.6047,-1.8323 1.9707,-3.6079 3.0355,-3.9458 1.0649,-0.338 3.3087,-2.6095 4.9863,-5.0478 1.6776,-2.4383 3.4429,-4.4333 3.9229,-4.4333 1.4719,0 9.0312,-7.9841 9.0312,-9.5386 0,-0.8038 0.52,-1.4614 1.1556,-1.4614 0.6356,0 2.6654,-1.1516 4.5107,-2.559 1.8453,-1.4075 5.7127,-3.8112 8.5944,-5.3417 2.8816,-1.5304 8.7804,-4.6817 13.1085,-7.0028 9.1759,-4.9211 27.4872,-6.7753 31.625,-3.2024 6.3647,5.4958 7.8886,20.0802 2.6461,25.3228 -0.7064,0.7064 -2.117,3.4645 -3.1346,6.1291 -2.1305,5.5785 -5.8504,9.6199 -13.1562,14.2934 -2.8351,1.8136 -5.9945,4.3652 -7.0211,5.6702 -1.0265,1.305 -2.8703,2.9101 -4.0974,3.5668 -1.4057,0.7523 -2.231,2.1301 -2.231,3.7245 0,1.3918 -0.4484,3.3684 -0.9964,4.3924 -1.2955,2.4207 -0.2681,5.0067 1.9891,5.0067 0.9783,0 3.0676,0.6722 4.643,1.4938 1.5754,0.8217 3.7643,1.5035 4.8643,1.5154 4.2635,0.046 11.2132,11.6077 10.1692,16.9181 -3.3299,16.9377 -7.7539,24.0307 -18.1172,29.0475 -2.5222,1.221 -5.0845,3.1887 -5.6939,4.3726 -0.6094,1.1839 -1.9671,3.0979 -3.017,4.2532 -2.2732,2.5013 -2.9305,48.4575 -0.7728,54.0217 0.6138,1.5827 1.2537,7.3777 1.422,12.8777 0.2239,7.3171 0.9065,11.6097 2.5445,16 1.3235,3.5474 2.5544,9.8833 3.0113,15.5 0.425,5.225 1.2781,11.525 1.8958,14 0.6176,2.475 1.3931,6.4228 1.7232,8.773 0.3301,2.3501 0.9905,4.5141 1.4675,4.809 0.4771,0.2948 0.8829,1.522 0.9017,2.727 0.019,1.2051 1.4167,6.016 3.1062,10.691 1.6895,4.675 4.1582,11.6846 5.486,15.577 2.3863,6.9953 7.01,12.3837 9.3731,10.9233 2.0407,-1.2613 12.2099,-15.6369 12.9069,-18.246 2.0803,-7.7863 21.5057,-7.1125 26.2025,0.9088 7.207,12.3082 3.4645,30.1252 -9.9432,47.3369 -2.1422,2.75 -4.3943,5.9612 -5.0045,7.136 -0.6103,1.1748 -2.5838,3.073 -4.3855,4.2182 -1.8017,1.1453 -4.2392,2.7939 -5.4167,3.6636 -10.1071,7.4651 -31.452,7.9578 -43.8712,1.0126 -3.4721,-1.9417 -6.8412,-3.5304 -7.4869,-3.5304 -1.372,0 -10.1587,-5.9715 -11.2375,-7.6371 -0.4051,-0.6254 -2.9867,-2.581 -5.7369,-4.3459 -3.4119,-2.1894 -6.5046,-5.4815 -9.7352,-10.3629 -2.604,-3.9347 -5.5349,-8.0265 -6.513,-9.0927 -0.9781,-1.0662 -1.7784,-2.7967 -1.7784,-3.8456 0,-1.0489 -0.8513,-3.1026 -1.8917,-4.5637 -2.9072,-4.0828 -10.7667,-29.034 -12.1752,-38.6521 -0.4833,-3.3 -1.3412,-8.7 -1.9065,-12 -0.5653,-3.3 -1.4042,-9.4117 -1.8641,-13.5816 -0.4599,-4.1698 -1.1554,-8.0979 -1.5454,-8.729 -0.3901,-0.631 -0.9015,-5.3193 -1.1365,-10.4184 -0.8103,-17.58 -2.0809,-27.2857 -3.9963,-30.5284 -1.5091,-2.5546 -1.6434,-3.5981 -0.7229,-5.6184 2.3705,-5.2026 1.5261,-36.3094 -1.0343,-38.1028 -2.2189,-1.5541 -2.2189,-1.5541 0.777,-3.9444 5.2732,-4.2071 3.896,-30.577 -1.597,-30.577 -0.5757,0 -3.0089,-1.35 -5.4071,-3 -2.3982,-1.65 -5.0061,-3 -5.7953,-3 -0.7892,0 -2.5082,-0.8179 -3.8198,-1.8175 -1.3117,-0.9995 -3.9599,-2.4297 -5.8849,-3.178 -1.925,-0.7483 -4.3876,-1.9554 -5.4725,-2.6825 -1.0849,-0.7271 -2.6599,-1.3373 -3.5,-1.3559 -0.8401,-0.019 -3.3275,-0.9034 -5.5275,-1.9661 -2.2,-1.0627 -4.9539,-1.9474 -6.1197,-1.9661 -1.1659,-0.019 -4.9909,-0.9528 -8.5,-2.0759 -7.9279,-2.5374 -16.8803,0.3429 -16.8803,5.4309 0,0.6661 -0.5547,1.7658 -1.2328,2.4439 -0.678,0.678 -2.2756,5.3805 -3.5502,10.45 -1.2747,5.0694 -2.7789,10.7922 -3.3427,12.7172 -2.0005,6.83 -2.9078,12.6526 -3.8942,24.9915 -0.5493,6.8703 -1.265,13.3308 -1.5906,14.3566 -1.054,3.321 -0.552,56.0944 0.5616,59.0232 0.5769,1.5174 1.0489,4.1399 1.0489,5.8278 0,1.6879 0.4155,4.6961 0.9232,6.6849 1.6057,6.2889 3.1455,21.1467 3.6393,35.116 0.4551,12.8731 1.092,18.2578 3.4896,29.5 1.2926,6.0607 2.2247,21.8262 1.9992,33.8115 -0.091,4.8463 0.3841,10.4713 1.0562,12.5 0.6721,2.0287 1.382,7.7385 1.5775,12.6885 0.1956,4.95 0.3915,9.9 0.4355,11 0.2171,5.4332 -1.9411,13.4095 -4.6173,17.0642 -5.228,7.1397 -9.821,11.4358 -12.226,11.4358 -1.2743,0 -4.0991,1.125 -6.2772,2.5 -4.1291,2.6066 -10.0809,3.2672 -13.1745,1.4621 z m 1333.6745,-42.9621 c -1.1,-0.4727 -3.3997,-0.8911 -5.1105,-0.9297 -1.7107,-0.039 -4.7112,-1.1566 -6.6677,-2.4844 -1.9566,-1.3277 -5.2819,-3.1659 -7.3896,-4.0849 -7.2693,-3.1695 -8.8435,-4.3649 -12.0816,-9.1746 -1.7872,-2.6545 -4.7662,-6.4014 -6.6199,-8.3264 -1.8537,-1.925 -4.1349,-5.4991 -5.0694,-7.9423 -0.9345,-2.4433 -2.568,-5.6628 -3.6302,-7.1544 -1.0621,-1.4916 -1.9311,-3.6804 -1.9311,-4.864 0,-1.1836 -1.4037,-3.4341 -3.1194,-5.0011 -2.8644,-2.6163 -3.2029,-3.6129 -4.1414,-12.1937 -0.6106,-5.582 -1.7002,-10.3511 -2.7061,-11.8445 -2.1432,-3.1818 -3.5678,-7.0787 -5.1181,-14 -0.6775,-3.025 -2.3354,-9.55 -3.6842,-14.5 -1.3488,-4.95 -2.8294,-11.7 -3.2901,-15 -0.4608,-3.3 -1.3097,-8.475 -1.8865,-11.5 -0.5768,-3.025 -1.6984,-10.5282 -2.4924,-16.6737 -0.794,-6.1456 -1.9295,-12.9783 -2.5234,-15.1838 -0.5939,-2.2055 -1.0016,-6.2213 -0.9059,-8.9239 0.096,-2.7026 -0.1832,-5.4916 -0.6197,-6.1979 -0.7229,-1.1697 -1.2074,-6.5685 -3.0084,-33.5207 -0.6497,-9.7242 1.0288,-33.1286 2.7253,-38 0.5746,-1.65 2.333,-5.8137 3.9075,-9.2527 1.5746,-3.4389 2.8628,-6.4942 2.8628,-6.7894 0,-0.2952 1.575,-2.8755 3.5,-5.734 1.925,-2.8585 3.5002,-5.8782 3.5005,-6.7106 3e-4,-0.8323 2.2285,-3.432 4.9516,-5.7771 2.7231,-2.3451 5.7381,-5.596 6.6999,-7.2243 1.122,-1.8993 3.2656,-3.4773 5.9801,-4.4022 2.3272,-0.793 6.6654,-3.2795 9.6404,-5.5257 2.9751,-2.2462 6.1133,-4.084 6.9739,-4.084 0.8605,0 3.2946,-0.8523 5.4091,-1.8939 9.3379,-4.6002 40.327,-5.5656 58.3445,-1.8177 14.9667,3.1133 24.3342,5.8405 26.9514,7.8464 3.5271,2.7033 14.6792,10.089 17.6209,11.6698 1.3352,0.7175 2.4277,1.955 2.4277,2.75 0,0.795 0.6399,1.4454 1.4221,1.4454 0.7821,0 2.9196,1.7389 4.75,3.8643 1.8303,2.1253 4.3097,4.1709 5.5097,4.5457 1.2,0.3748 3.3564,2.6859 4.7921,5.1357 1.4357,2.4499 3.0331,4.4543 3.5497,4.4543 5.9974,0 12.8393,9.9647 12.06,17.5646 -0.7793,7.6006 -12.643,22.4354 -17.942,22.4354 -0.5944,0 -2.782,0.9912 -4.8612,2.2026 -12.6765,7.3858 -45.2804,-3.3174 -45.2804,-14.8646 0,-1.2235 -0.8986,-2.854 -1.9969,-3.6233 -1.0984,-0.7693 -2.4699,-2.7553 -3.0479,-4.4133 -2.0309,-5.8259 -26.8692,-10.0248 -33.5205,-5.6667 -1.3722,0.8991 -4.5388,2.0166 -7.0369,2.4833 -7.1989,1.3449 -10.3954,4.17 -10.4097,9.2001 -0.01,2.3 -0.5912,6.4319 -1.2993,9.1819 -1.7532,6.809 0.3614,48.1645 3.4002,66.5 0.5925,3.575 1.2812,9.65 1.5304,13.5 0.2492,3.85 0.8597,7.9 1.3567,9 0.497,1.1 1.5686,5.825 2.3813,10.5 2.8081,16.1537 6.127,29.5071 7.8165,31.45 0.4543,0.5225 0.8261,2.6334 0.8261,4.691 0,2.0575 0.4156,3.9978 0.9235,4.3117 1.085,0.6706 3.6409,8.4403 4.5387,13.7973 0.9448,5.6378 6.4141,4.1246 6.506,-1.8 0.018,-1.1275 0.4141,-2.4775 0.8814,-3 0.4673,-0.5225 1.6293,-2.975 2.5821,-5.45 2.1267,-5.5238 4.4331,-10.925 5.6524,-13.2364 0.5037,-0.9551 0.9159,-2.5424 0.9159,-3.5275 0,-0.9851 0.6547,-2.7257 1.4548,-3.8681 1.4952,-2.1346 3.8905,-8.1906 5.6832,-14.368 0.5586,-1.925 1.881,-5.3296 2.9388,-7.5657 1.0578,-2.2362 1.9232,-5.2471 1.9232,-6.691 0,-1.4439 0.3826,-2.8617 0.8502,-3.1507 0.4675,-0.289 1.8257,-3.6164 3.018,-7.3944 1.2926,-4.0955 3.17,-7.7402 4.6498,-9.0269 1.3651,-1.187 2.482,-2.7281 2.482,-3.4249 0,-0.6968 1.0125,-2.3965 2.25,-3.7772 1.2375,-1.3808 4.4036,-5.7171 7.0357,-9.6363 5.0651,-7.5421 13.6883,-16.3329 16.0214,-16.3329 0.7661,0 3.2564,-1.35 5.5342,-3 3.7186,-2.6937 4.9013,-3 11.5849,-3 4.094,0 8.5441,-0.4184 9.8891,-0.9298 6.0776,-2.3107 15.1717,-1.6796 18.7108,1.2983 2.521,2.1213 4.0173,2.6728 6.1138,2.2535 3.2655,-0.6531 9.3635,1.6414 10.2074,3.8407 0.3245,0.8455 1.6166,1.5542 2.8713,1.5748 3.894,0.064 9.7454,5.9368 10.446,10.484 0.7456,4.8397 1.6395,6.0544 5.9662,8.1076 2.4539,1.1644 3.6617,2.615 4.496,5.3999 0.6587,2.1984 1.9103,4.009 2.9615,4.2838 1.0021,0.2621 2.0955,1.7599 2.4319,3.3317 0.3363,1.5705 1.2568,4.0499 2.0456,5.5098 0.7888,1.4599 1.4342,3.3685 1.4342,4.2413 0,0.8729 1.575,3.6505 3.5,6.1723 1.925,2.5219 3.5,5.4239 3.5,6.4489 0,1.025 1.35,4.4656 3,7.6458 1.65,3.1803 3,6.9976 3,8.4831 0,1.4855 1.1744,4.0966 2.6098,5.8025 1.9641,2.3341 2.4957,3.8794 2.1485,6.2449 -0.4862,3.313 0.6357,7.7936 4.1846,16.7132 1.1831,2.9735 1.9143,6.0234 1.6249,6.7776 -0.2894,0.7542 0.1568,4.3164 0.9916,7.916 1.2198,5.2596 1.2839,7.1913 0.3268,9.8384 -0.9149,2.53 -0.9197,4.3717 -0.021,7.9424 0.9709,3.8556 0.9116,5.1495 -0.3475,7.5843 -0.835,1.6146 -1.5181,3.6393 -1.5181,4.4994 0,10.2757 -17.2328,15.8407 -27.294,8.814 -2.1881,-1.5281 -4.7706,-3.2026 -5.7388,-3.721 -2.1864,-1.1707 -10.4589,-17.7355 -11.3709,-22.7692 -0.37,-2.0416 -1.7804,-6.2169 -3.1345,-9.2786 -1.354,-3.0616 -2.4618,-6.4112 -2.4618,-7.4435 0,-1.0323 -1.5017,-3.6743 -3.3371,-5.8711 -1.8354,-2.1969 -3.9047,-5.502 -4.5985,-7.3447 -1.9995,-5.3108 -6.2668,-14.1083 -8.2484,-17.0047 -0.9988,-1.4599 -1.816,-3.1974 -1.816,-3.8612 0,-0.6638 -1.8,-3.3567 -4,-5.9844 -2.2,-2.6277 -4,-5.4714 -4,-6.3194 0,-6.732 -7.6217,-10.8983 -8.6117,-4.7075 -0.3494,2.1853 -1.7047,5.4227 -3.0118,7.1943 -1.3071,1.7716 -2.3765,4.0436 -2.3765,5.0488 0,1.0053 -1.3046,4.7049 -2.8991,8.2214 -1.5944,3.5166 -3.381,8.641 -3.97,11.3876 -0.589,2.7467 -2.4345,7.9709 -4.1009,11.6094 -1.6665,3.6385 -3.03,8.0918 -3.03,9.8962 0,1.9291 -1.0299,4.6767 -2.5,6.6692 -1.375,1.8637 -2.5,4.1227 -2.5,5.02 0,0.8972 -1.125,2.6883 -2.5,3.98 -1.4831,1.3933 -2.5,3.4595 -2.5,5.0798 0,8.0109 -23.3169,37.1397 -35.146,43.9066 -1.4553,0.8325 -4.6053,2.9127 -7,4.6227 -8.8575,6.3249 -27.6163,9.7159 -35.354,6.3909 z m -935.5,-18.9682 c -1.925,-0.406 -5.75,-1.8559 -8.5,-3.2221 -2.75,-1.3661 -7.025,-3.0949 -9.5,-3.8417 -2.475,-0.7468 -5.772,-2.3951 -7.3267,-3.6629 -1.5547,-1.2678 -3.3547,-2.3146 -4,-2.3261 -0.6453,-0.012 -3.8121,-2.5346 -7.0374,-5.6067 -3.2252,-3.0721 -7.8245,-6.4529 -10.2205,-7.5128 -3.6379,-1.6092 -4.531,-2.5752 -5.4146,-5.8567 -0.582,-2.1612 -1.8328,-4.51 -2.7795,-5.2194 -2.8533,-2.1381 -7.584,-8.9209 -10.6595,-15.2834 -1.5951,-3.3 -3.8773,-7.125 -5.0715,-8.5 -1.1943,-1.375 -2.7742,-4.075 -3.511,-6 -0.7368,-1.925 -2.6086,-5.3811 -4.1595,-7.6802 -1.5509,-2.2991 -2.8198,-5.3245 -2.8198,-6.7232 0,-1.3987 -0.9658,-4.6926 -2.1463,-7.3198 -4.2089,-9.367 -4.8979,-11.5961 -5.8372,-18.8841 -0.433,-3.359 -1.5465,-7.7073 -2.4745,-9.6629 -6.1132,-12.8827 -6.8935,-64.163 -1.2132,-79.7298 1.1846,-3.2461 1.6461,-7.9143 1.6566,-16.7536 0.012,-10.325 0.3294,-12.841 2.0146,-15.9852 1.1,-2.0524 2,-4.3329 2,-5.0678 0,-0.735 0.5625,-1.9012 1.25,-2.5918 0.6875,-0.6905 2.6445,-2.8466 4.349,-4.7913 3.5477,-4.0478 15.7244,-5.8146 23.7535,-3.4466 4.4585,1.3151 15.2348,14.4726 16.9015,20.6363 1.2839,4.7482 3.6152,26.0563 3.6874,33.7029 0.032,3.4117 0.5681,7.3213 1.1909,8.6881 0.9014,1.9784 0.7004,4.2821 -0.9859,11.2971 -2.2133,9.2074 -2.002,11.4822 1.6795,18.0824 0.6965,1.2488 2.0936,5.9738 3.1047,10.5 1.0111,4.5262 3.0153,12.0213 4.4539,16.6557 1.4385,4.6344 2.6155,9.4781 2.6155,10.7636 0,1.2855 0.3984,3.1187 0.8854,4.0738 4.9526,9.7125 7.1146,14.9611 7.1146,17.2711 0,1.6794 1.1704,4.0067 3,5.9653 1.65,1.7663 3,3.9972 3,4.9575 0,3.6925 16.3758,26.0425 19.0813,26.0425 3.6907,0 10.1227,-8.4813 11.3757,-15 0.37,-1.925 1.7353,-6.65 3.0339,-10.5 3.2476,-9.6276 6.201,-23.1748 7.5212,-34.5 0.6092,-5.225 1.517,-11.75 2.0175,-14.5 2.6107,-14.3462 2.6132,-67.4077 0,-78 -0.542,-2.2 -0.9962,-5.8832 -1.0093,-8.1849 -0.013,-2.3017 -0.4875,-5.4042 -1.054,-6.8944 -0.5666,-1.4902 -1.4929,-6.132 -2.0585,-10.3151 -1.2271,-9.076 -2.7235,-14.0582 -4.847,-16.1374 -4.0104,-3.9267 -10.0644,-11.9857 -10.0644,-13.3976 0,-0.8638 -0.4155,-1.5706 -0.9234,-1.5706 -0.5079,0 -3.0541,-1.6264 -5.6583,-3.6142 -2.6042,-1.9879 -9.5012,-6.0959 -15.3266,-9.1289 -5.8254,-3.033 -11.326,-6.1532 -12.2234,-6.9337 -0.8975,-0.7805 -3.3725,-1.8712 -5.5,-2.4238 -5.6206,-1.4599 -20.3756,-7.912 -23.8683,-10.4372 -1.65,-1.1929 -5.25,-2.5021 -8,-2.9092 -2.75,-0.4071 -5.5102,-1.1597 -6.1337,-1.6725 -0.6235,-0.5128 -4.4485,-1.5807 -8.5,-2.373 -4.0515,-0.7924 -9.7336,-2.3557 -12.627,-3.4741 -2.8934,-1.1184 -6.0434,-2.0362 -7,-2.0396 -0.9566,0 -3.0893,-0.7108 -4.7393,-1.572 -2.5214,-1.3161 -6.1107,-1.492 -22.5,-1.1023 -15.2192,0.3619 -20.2403,0.1582 -22.8721,-0.9279 -1.8547,-0.7654 -4.8656,-1.3916 -6.691,-1.3916 -1.8254,0 -3.5655,-0.399 -3.8668,-0.8866 -0.3014,-0.4877 -2.0828,-1.1746 -3.9586,-1.5265 -1.8758,-0.3519 -3.9609,-1.3029 -4.6335,-2.1134 -0.6726,-0.8104 -2.0212,-1.4735 -2.9969,-1.4735 -2.9618,0 -7.9811,-6.5881 -7.9811,-10.4758 0,-1.8734 -0.45,-3.6843 -1,-4.0242 -2.8007,-1.731 -0.1788,-10.0711 4.75,-15.1092 1.3373,-1.367 2.25,-3.5352 2.25,-5.3453 0,-2.4059 0.4315,-3.0455 2.0549,-3.0455 1.1301,0 4.81,-1.871 8.1774,-4.1578 8.5706,-5.8201 26.0519,-7.5595 40.4611,-4.0257 4.8968,1.2009 11.1315,2.1829 13.8549,2.1822 11.5121,0 21.162,2.0842 22.6067,4.8896 0.7398,1.4364 2.5419,3.8433 4.0049,5.3485 4.6426,4.7769 4.4785,16.4342 -0.3187,22.6481 -5.6094,7.2658 4.7508,11.0432 30.4308,11.0953 8.707,0.018 10.4963,0.3482 16.4187,3.0336 5.4554,2.4736 8.8122,3.1972 18.728,4.037 11.2585,0.9536 24.9682,4.1482 26.1739,6.099 0.289,0.4676 1.6082,0.8502 2.9316,0.8502 1.3234,0 3.9438,1.35 5.823,3 1.8793,1.65 4.5138,3 5.8545,3 1.3538,0 3.4041,1.1115 4.6114,2.5 1.4912,1.7151 3.2017,2.5 5.4482,2.5 5.0709,0 28.7387,19.4296 28.7387,23.5925 0,0.6992 1.2544,2.1645 2.7875,3.2562 2.6359,1.8769 6.2751,8.3902 10.9799,19.6513 1.149,2.75 2.6035,8.6 3.2323,13 1.1442,8.0072 1.4321,9.2431 4.5413,19.5 0.917,3.025 2.1304,7.075 2.6964,9 2.8937,9.8409 4.8666,96.6546 2.2863,100.6002 -0.8493,1.2987 -1.1824,3.5887 -0.8728,6 0.2754,2.1449 -0.2343,6.5998 -1.1328,9.8998 -0.8984,3.3 -2.4867,9.2533 -3.5296,13.2295 -1.0429,3.9762 -2.4492,8.2512 -3.1252,9.5 -0.6759,1.2488 -1.1397,3.5064 -1.0305,5.0169 0.1255,1.7371 -0.568,3.3909 -1.887,4.5 -1.9584,1.6468 -5.9458,9.0564 -5.9458,11.0487 0,0.4977 -1.452,2.8848 -3.2267,5.3049 -5.8102,7.923 -7.7733,10.9721 -7.7733,12.0737 0,0.5967 -1.9125,3.0023 -4.25,5.3458 -2.3375,2.3435 -8.0636,8.1353 -12.7247,12.8707 -4.6611,4.7354 -9.3166,8.6098 -10.3457,8.6098 -1.0291,0 -3.0654,0.6178 -4.5253,1.373 -8.002,4.1391 -10.2641,4.6266 -20.9382,4.512 -5.8939,-0.063 -12.2911,-0.4472 -14.2161,-0.8532 z m -123.7374,-61.321 c -8.1407,-2.3262 -20.6603,-16.0047 -22.6294,-24.7243 -0.887,-3.9275 -2.2787,-8.5688 -3.0928,-10.3138 -1.3013,-2.7896 -2.5785,-7.0107 -5.4985,-18.1727 -0.4317,-1.65 -1.4796,-4.8 -2.3288,-7 -0.8492,-2.2 -1.7781,-6.6224 -2.0643,-9.8275 -0.2861,-3.2051 -1.2242,-6.9017 -2.0845,-8.2148 -0.8604,-1.313 -1.5643,-3.9717 -1.5643,-5.9082 0,-3.1991 -0.4844,-5.8388 -3.0368,-16.5495 -3.6201,-15.1908 -6.2228,-35.7352 -6.5346,-51.5824 -0.098,-4.9953 -0.6435,-9.9506 -1.2115,-11.0119 -0.5679,-1.0613 -0.9841,-3.642 -0.9248,-5.7349 0.063,-2.2228 -0.4547,-4.1531 -1.2448,-4.6414 -1.0586,-0.6543 -1.167,-2.2156 -0.4987,-7.1827 0.4697,-3.4907 0.7688,-9.1647 0.6648,-12.6089 -0.1509,-4.993 0.197,-6.6484 1.7164,-8.1678 1.2333,-1.2333 2.1193,-3.9629 2.5115,-7.7378 1.0023,-9.6473 2.6461,-16.4198 4.4144,-18.1881 3.2544,-3.2544 6.1441,-7.9804 6.1441,-10.0485 0,-1.1526 0.3853,-2.0956 0.8562,-2.0956 0.4709,0 3.0584,-1.6875 5.75,-3.75 6.5193,-4.9956 20.7882,-4.8552 29.6112,0.2913 4.5025,2.6263 12.0515,20.6373 10.8801,25.9587 -1.3339,6.0599 -1.2829,21.3197 0.092,27.5 0.5506,2.475 0.9859,9.5531 0.9674,15.729 -0.019,6.176 0.3885,11.4901 0.9047,11.809 0.5161,0.319 0.9384,4.5135 0.9384,9.321 0,5.3964 0.4527,9.1937 1.1832,9.9242 0.7115,0.7115 1.2277,4.6782 1.2947,9.95 0.1542,12.1298 2.3038,34.4554 4.0696,42.2668 0.8081,3.575 1.4655,9.1132 1.4609,12.3072 -0.01,6.0365 1.6304,14.4967 3.1276,16.1428 0.4752,0.5225 0.8877,2.5475 0.9166,4.5 0.029,1.9525 0.7054,6.925 1.5033,11.05 2.7205,14.0648 3.5879,27.1836 1.9193,29.0274 -0.8114,0.8966 -1.4752,2.1987 -1.4752,2.8936 0,0.695 -0.9,2.4077 -2,3.8061 -1.1,1.3985 -2.0031,3.4944 -2.0068,4.6578 -0.017,5.3217 -13.3041,9.0194 -22.7306,6.3259 z"
       id="path1" />
  </g>
</svg>
